<svg width="56" height="62" viewBox="0 0 56 62" fill="none" xmlns="http://www.w3.org/2000/svg">
<path d="M5.6192 49.4916C8.00546 47.7489 10.4687 46.1999 12.624 44.341C13.3553 43.6827 13.5477 42.2886 13.7402 41.1655C14.279 38.3386 14.6639 35.4728 18.0123 34.3498C17.9738 34.1174 17.9738 33.9238 17.9354 33.6915C17.2426 33.4591 16.4343 32.8782 15.8955 33.0331C12.3931 34.2336 9.27556 32.4135 6.08106 31.639C2.92505 30.9032 0.846695 27.6115 0.769719 24.3198C0.692743 21.0668 2.80958 18.0075 5.81164 16.7296C6.65838 16.381 7.35116 15.7227 8.1979 15.2967C8.96766 14.9094 9.7759 14.4447 10.6226 14.2898C16.7037 13.3604 22.8233 12.7021 28.8659 11.579C34.947 10.456 40.3738 7.629 45.1464 3.67897C45.9931 2.9819 46.7244 2.01376 47.3787 1.08434C48.3793 -0.309791 49.611 -0.464694 50.6501 0.929434C51.3044 1.7814 51.8433 2.78827 52.1512 3.83387C55.1147 13.4766 56.5388 23.3129 55.769 33.3816C55.7305 34.0787 55.6536 34.8532 55.3072 35.4341C54.8838 36.1312 54.268 37.0219 53.5752 37.2155C52.9979 37.3704 52.1896 36.5959 51.5354 36.1699C51.035 35.8214 50.6501 35.2018 50.1113 34.9307C42.7216 31.4454 34.947 30.3998 26.7876 31.5228C26.8646 32.6459 27.134 33.1493 28.4041 32.9944C30.136 32.762 31.2907 33.6527 31.945 35.3179C32.5608 36.867 33.0996 38.5709 34.1003 39.8489C35.4474 41.5915 35.101 43.5278 35.1395 45.3479C35.178 46.3548 34.4082 47.7102 33.5615 48.3298C31.4831 49.9176 29.1738 51.1955 26.9031 52.5509C26.2103 52.9769 25.325 53.4416 24.5938 53.3642C20.668 52.9769 18.5512 55.9588 15.5491 57.9725C21.7842 60.4123 27.6728 60.4123 33.369 57.6627C41.1821 53.9063 45.3388 47.4778 46.1086 38.8033C46.147 38.416 46.0316 37.9513 46.1855 37.6415C46.4549 37.1381 46.8783 36.7895 47.2632 36.3248C47.6096 36.7895 48.2639 37.293 48.1869 37.7189C47.6866 40.817 47.4941 44.07 46.3395 46.9357C42.0673 57.7402 30.5209 63.7427 19.2824 61.4191C8.04395 59.0956 -0.0770167 48.9494 0.0384472 37.3704C0.0384472 36.0925 0.153911 34.7758 0.423327 33.5366C0.577279 32.9169 1.23157 32.4522 1.69343 31.9101C1.96285 32.5684 2.57865 33.3042 2.50168 33.9238C1.73192 38.9969 2.46319 43.7989 4.92642 48.3298C5.08037 48.6783 5.3113 48.9881 5.6192 49.4916ZM46.4165 6.04124C46.1855 5.96379 46.0701 5.92506 46.0701 5.92506C45.5312 6.27359 44.9924 6.62213 44.4921 6.97066C39.1807 10.7658 33.3305 13.2442 26.9031 14.2898C21.8226 15.1031 16.7037 15.6452 11.6233 16.2648C10.5072 16.4198 9.50649 16.5747 9.1601 17.9301C8.04395 22.1899 8.46731 26.2561 10.7381 30.0125C11.046 30.5159 11.8158 31.1743 12.3161 31.1356C15.857 30.787 19.3979 30.2836 22.7079 29.8189C22.169 26.2948 21.5532 22.9257 21.1683 19.5953C21.0914 18.8982 21.7842 18.1624 22.0921 17.4266C22.4769 18.085 23.0927 18.7433 23.2467 19.4791C23.824 22.2286 24.2474 25.0169 24.7092 27.8051C24.9402 29.3154 25.7869 29.4316 27.1725 29.3542C30.9828 29.1993 34.8701 29.0056 38.6419 29.4316C42.2598 29.8189 45.8391 31.0194 49.534 31.8713C47.3787 23.4678 46.1855 14.7933 46.4165 6.04124ZM19.167 36.2086C17.2811 36.8282 16.4343 38.0287 16.2034 39.8101C16.011 41.0881 15.8185 42.366 15.3182 43.5665C14.8948 44.6121 14.279 45.7352 13.4323 46.4322C11.3539 48.1362 9.08312 49.6078 6.5814 51.4279C8.89068 53.4029 11.0075 55.2617 13.1628 57.0818C14.8563 55.8039 16.2804 54.797 17.589 53.674C19.2824 52.2024 21.0529 51.1568 23.4391 51.3504C24.2474 51.4279 25.2096 51.0019 25.9793 50.5759C28.0577 49.4141 30.0591 48.1362 32.022 46.8195C32.4453 46.5484 32.9457 46.0063 32.9842 45.5415C33.0611 44.5734 32.8687 43.5665 32.8302 42.9082C32.2144 43.1018 31.5216 43.3342 30.8288 43.5665C30.8673 42.792 30.8288 41.94 31.0213 41.2043C31.2137 40.4297 31.5986 39.694 31.9065 38.9194C31.3677 38.7645 31.2907 38.8033 31.2522 38.842C30.4439 39.4616 30.136 41.4753 28.712 40.4297C27.4034 39.4229 29.1354 38.4935 29.4433 37.4866C29.6357 36.8282 29.5587 36.0925 29.5587 35.4341C28.9044 35.5116 28.2116 35.4728 27.6728 35.7439C25.633 36.7508 23.6701 37.9513 21.5917 38.842C19.5134 39.7327 19.2055 39.3841 19.5518 37.1768C19.5518 36.9444 19.3209 36.6346 19.167 36.2086ZM52.6515 34.5434C52.9979 34.5047 53.3058 34.466 53.6522 34.4272C54.3065 23.7002 53.1519 13.1668 49.1491 3.02063C48.7257 6.46722 48.6872 9.91382 48.8027 13.3604C48.8412 14.0575 49.3031 14.9094 49.8419 15.4129C51.8433 17.3879 52.1896 19.8663 50.6886 22.2286C50.3807 22.6933 49.9573 23.3129 50.0728 23.7389C50.8426 27.3792 51.7663 30.9419 52.6515 34.5434ZM7.50511 29.7027C7.04326 26.1399 6.61989 22.6159 6.15804 19.1693C3.81027 20.2149 2.57865 22.5772 3.04051 25.288C3.46388 27.689 5.42676 29.5091 7.50511 29.7027ZM25.479 34.5434C24.3244 31.7939 22.2845 31.2517 19.8213 32.9557C22.0921 37.1768 22.3615 37.2542 25.479 34.5434Z" fill="#E31E24"/>
</svg>
