
<svg  x="0px" y="0px"
	  viewBox="0 0 500 500"  xml:space="preserve">

<g>
	<path d="M51.9,249.9c0-59.4,0-118.8,0-178.2c0-29.6,15.9-52.7,42.9-61.6c6.6-2.2,13.8-3.1,20.8-3.2
		C171.8,6.7,228,6.8,284.2,6.7c12.4,0,22.6,4.4,31.3,13.1c39.8,40,79.7,79.8,119.7,119.6c8.8,8.7,13,19.1,13,31.4
		c0,86.3,0.1,172.6-0.1,258.8c-0.1,36.6-27.2,63.5-63.9,63.5c-89.3,0.1-178.6,0.1-267.9,0c-37.7,0-64.4-26.8-64.4-64.6
		C51.8,369,51.9,309.4,51.9,249.9z M278.4,40.7c-2.5,0-4.4,0-6.3,0c-51.6,0-103.2,0-154.9,0c-20.1,0-31.3,11.4-31.4,31.7
		c0,118.4,0,236.9,0,355.3c0,20.1,11.4,31.5,31.6,31.5c88.4,0,176.8,0,265.2,0c20.2,0,31.6-11.3,31.6-31.5c0-81.7,0-163.3,0-245
		c0-1.9,0-3.8,0-6.2c-2.6,0-4.5,0-6.4,0c-21.7,0-43.5,0.1-65.2,0c-37.2-0.1-64.1-27-64.2-64.3c-0.1-21.7,0-43.5,0-65.2
		C278.4,45.1,278.4,43.2,278.4,40.7z M386.8,142.1c-24.5-24.5-49.7-49.7-74.4-74.4c0,15.1-0.2,31.3,0.1,47.6
		c0.3,13.9,10.1,25.7,24,26.6C353.8,142.9,371.2,142.1,386.8,142.1z"/>
	<path d="M250.3,330c-15.1,15.2-29.3,29.4-43.4,43.8c-4.1,4.1-8.7,6.7-14.6,6.2c-6.9-0.6-12.1-4.1-14.5-10.7
		c-2.6-6.9-1.2-13.2,4-18.5c12.8-12.9,25.7-25.8,38.6-38.6c1.7-1.7,3.8-3.2,7.2-6.1c-3-2.2-5.5-3.4-7.3-5.3
		c-12.3-12.2-24.6-24.5-36.8-36.7c-8.5-8.5-9.3-18.9-2-26.1c7.4-7.3,17.4-6.4,26.1,2.3c12.8,12.7,25.5,25.5,38.3,38.2
		c1.2,1.2,2.5,2.4,4.7,4.4c2.2-2.5,4.2-5,6.4-7.3c12-12,24-24,36-36c8.1-8.1,18.2-8.7,25.4-1.7c7.2,7,6.7,17.5-1.5,25.8
		c-12.8,12.9-25.7,25.8-38.7,38.6c-1.4,1.3-3.3,2.1-5.2,3.4c15.5,15.5,29.9,29.6,43.9,44.1c2.8,2.9,5.2,6.9,6,10.8
		c1.7,7.5-2.2,14.4-8.7,17.7c-6.4,3.3-14.1,2.4-19.6-3c-13.5-13.3-26.8-26.7-40.2-40.1C253.2,333.8,252.1,332.2,250.3,330z"/>
</g>
</svg>
