
<svg x="0px" y="0px"
	 viewBox="0 0 500 500" xml:space="preserve">
<path d="M250,482.2c-1.4-2-2.6-3.6-3.7-5.3c-40.1-61.3-80.1-122.6-120.1-184c-16.6-25.5-28.8-52.8-34.6-82.9
	C76.3,131.4,121,51.2,200.8,25.6C293.4-4,389.4,53.2,408.3,149.1c8.4,42.7-0.4,82.9-21,120.3c-13.6,24.7-29.7,48.1-45.1,71.9
	c-29.3,45.2-58.9,90.3-88.4,135.4C252.7,478.4,251.5,480.1,250,482.2z M249.9,269.4c49.8,0,90.2-40.2,90.4-89.8
	c0.2-49.2-40.4-90-89.1-90.6c-47.5-0.6-91,36.8-91.6,89.9C159.1,228.8,199.9,269.4,249.9,269.4z"/>
</svg>
