<svg viewBox="0 0 500 500" xml:space="preserve">
<g>
	<path d="M256.3,484.8c-2.1,0-4.3,0-6.4,0c-3.3-3-7.6-5.3-9.8-9c-42.8-68.6-85.4-137.4-128.1-206.1
		c-10.8-17.5-18.6-36.2-22.5-56.4c-1.3-6.7-2.2-13.4-3.2-20.1c0-7,0-14,0-21c1.1-7.8,1.8-15.7,3.4-23.4
		c6.1-29.7,19.2-55.8,39.8-78.2c25.5-27.7,56.6-45,93.8-51.2c6.1-1,12.3-1.8,18.4-2.6c6.1,0,12.2,0,18.3,0
		c7.8,1.1,15.7,1.8,23.4,3.4c29.7,6.1,55.8,19.2,78.2,39.8c27.7,25.5,45,56.6,51.2,93.8c1,6.1,1.8,12.3,2.6,18.4c0,7,0,14,0,21
		c-0.3,0.8-0.7,1.7-0.8,2.5c-2.1,26.4-10.8,50.6-24.4,73.2c-41,68.3-81.9,136.6-122.7,205C264.6,478.7,261.4,482.7,256.3,484.8z
		 M252.8,444.6c0.8-1.1,1.2-1.6,1.5-2.1c38-63.5,76.1-127,114.1-190.5c11.6-19.4,18.2-40.4,19.4-62.9c1.3-24.3-3.2-47.6-14.6-69.2
		c-22.7-42.9-58.1-68.3-106.4-74.6c-32.1-4.2-62.1,2.7-89.3,20.3c-36.1,23.4-57.4,56.7-62.9,99.5c-4.2,32.6,3.5,62.7,20.8,90.6
		c36.5,58.7,73,117.5,109.4,176.3C247.5,436,250,440.1,252.8,444.6z"/>
	<path d="M333.1,181.7c-0.1,45.3-37.1,82-82.5,81.9c-45.5-0.1-82.3-37.2-82-82.8c0.2-45.1,37.5-81.9,82.7-81.7
		C296.4,99.3,333.2,136.5,333.1,181.7z M250.4,236.2c30.4,0.1,55.1-24.2,55.2-54.3c0.1-30.6-24.2-55.4-54.6-55.5
		c-30.4-0.1-55.1,24.3-55.2,54.4C195.8,211.5,220,236.1,250.4,236.2z"/>
</g>
</svg>
