
<svg  x="0px" y="0px"
	  viewBox="0 0 500 500" xml:space="preserve">
<g>
	<path d="M119.3,375.8c-24,0-47.1,0-70.1,0c-22.3,0-34.7-12.1-34.7-34.2c0-45.1,0-90.3,0-135.4
		c0-21.9,12.1-34.1,33.8-34.1c23.3,0,46.6,0,71,0c0-3.4,0-6.2,0-9c0-39.8,0-79.6,0-119.5c0-26.3,17.1-43.4,43.3-43.4
		c60,0,120,0.1,180-0.1c7,0,12,2.4,16.7,7.3C399,48.7,438.7,90,478.6,131.2c4.8,4.9,7,10,7,16.9c-0.2,102.7-0.1,205.5-0.1,308.2
		c0,26.7-17,43.6-43.9,43.6c-92.7,0-185.3,0-278,0c-27.3,0-44.2-16.9-44.2-44.1C119.3,429.6,119.3,403.3,119.3,375.8z M142,375.8
		c0,3.8,0,6.7,0,9.5c0,23.1,0,46.2,0,69.3c0,16.7,5.7,22.3,22.6,22.3c91.8,0,183.7,0,275.5,0c17,0,22.4-5.3,22.4-22.3
		c0-96.3,0-192.7,0-289c0-2.8-0.2-5.7-0.4-9.3c-3.5,0-6.4,0-9.2,0c-36.1,0-72.2,0-108.3,0c-12.1,0-15-3-15-15c0-36.4,0-72.7,0-109.1
		c0-2.8,0-5.6,0-8.5c-2.7-0.3-4.3-0.6-5.8-0.6c-54.1,0-108.3-0.1-162.4,0c-12.5,0-19.1,6.8-19.2,19.3c-0.1,26.3-0.1,52.6-0.1,78.8
		c0,16.7,0,33.3,0,50.8c4,0,7.1,0,10.2,0c49.4,0,98.7,0,148.1,0c19.9,0,32.4,12.3,32.4,32.1c0.1,46.4,0.1,92.9,0,139.3
		c0,19.6-12.7,32.2-32.5,32.2c-30.5,0.1-61,0-91.6,0C186.9,375.8,165.1,375.8,142,375.8z M173.5,353.4c41.4,0,82.8,0,124.2,0
		c10,0,12.7-2.7,12.7-12.7c0-44.3,0-88.7,0-133c0-10.7-2.5-13.2-13-13.2c-82.6,0-165.1,0-247.7,0c-10.5,0-12.4,1.9-12.4,12.7
		c0,44.3,0,88.7,0,133c0,11.7,1.6,13.3,13.5,13.3C91.7,353.4,132.6,353.4,173.5,353.4z M352.3,32.8c0,34.7,0,67.6,0,100.5
		c32.2,0,63.8,0,96.7,0C416.6,99.6,385.1,66.9,352.3,32.8z"/>
	<path d="M146.9,318.4c0-28.7,0-56.5,0-86.2c16.4,0.9,32.5,0.6,48.3,3c11.3,1.7,17.8,11.2,21.1,21.8
		c3.7,11.9,4,24,0.5,36.1c-4.4,15.2-14.3,24.1-30.1,25.1C173.8,319.1,160.8,318.4,146.9,318.4z M167.2,301.3
		c10.1-1.3,20.7,3.4,27.7-6.7c5.5-8,4.8-31.5-1-38.2c-7.3-8.4-17.2-5.5-26.7-6C167.2,267.7,167.2,283.8,167.2,301.3z"/>
	<path d="M90.9,318.3c-7.3,0-13.4,0-20,0c0-28.2,0-56.2,0-86.1c16.7,0.9,33.4,0.5,49.6,3c11.6,1.8,17.6,15.1,16.1,29.3
		c-1.3,11.9-10.3,21.2-22.2,22.3c-7.6,0.8-15.2,1-23.6,1.4C90.9,298.3,90.9,308,90.9,318.3z M91.2,270.8c6.5-0.5,12.6,0,17.8-1.8
		c3.1-1.1,6.8-5.8,6.7-8.9c0-3-4-7.5-7.1-8.4c-5.3-1.6-11.3-1-17.4-1.3C91.2,257.3,91.2,263.3,91.2,270.8z"/>
	<path d="M230,233.4c20,0,39.2,0,59,0c0,5.6,0,10.8,0,16.8c-12.8,0-25.4,0-38.6,0c0,5.5,0,10.1,0,15.6
		c10.5,0,21.3,0,32.7,0c0,6.2,0,11.5,0,17.7c-10.9,0-21.7,0-33.1,0c0,11.8,0,22.9,0,34.5c-6.9,0-13.1,0-19.9,0
		C230,290.1,230,262.1,230,233.4z"/>
</g>
</svg>
