
<svg x="0px" y="0px"
	 viewBox="0 0 500 500" xml:space="preserve">
<g>
	<path d="M372.6,489.3c-80.8,0-161.5,0-242.3,0c-0.6-0.2-1.1-0.6-1.7-0.7c-22.3-5-35.2-21.1-35.2-43.9
		c0-16.4,0-32.8,0-49.2c0-4.2,0-8.4,0-13.1c-4.8,0-9.2,0-13.6,0C40.8,382,9.4,350.7,9.2,311.9C9,273.7,9,235.5,9.3,197.4
		c0.1-7.1,1.3-14.5,3.4-21.3c9.2-29.3,36.2-48.9,67-49.2c4.5,0,9,0,13.7,0c0-17.1,0-33.5,0-49.9c0.1-41,31.2-72.1,72.2-72.2
		c57.3-0.1,114.5-0.1,171.8,0c40.9,0,72,31.3,72.1,72.3c0,14.8,0,29.7,0,44.5c0,1.7,0,3.3,0,5.3c5.2,0,9.8,0,14.3,0
		c30.9,0.4,58.5,21.4,67.1,51.1c1.1,3.7,1.9,7.5,2.9,11.3c0,43.5,0,87.1,0,130.6c-0.3,0.9-0.7,1.7-0.9,2.6
		c-5.1,31.1-29.3,54.9-60.5,59.1c-7.4,1-15,0.8-22.8,1.2c0,1.8,0,3.5,0,5.2c0,19.9,0.1,39.7-0.1,59.6c-0.2,17.8-11.6,33.3-28.3,39.2
		C378.3,487.8,375.4,488.5,372.6,489.3z M93.2,306.6c-3.3,0-6.1,0.1-8.9,0c-7.3-0.4-13.1-6.1-13.6-13.3c-0.4-6.9,4.4-13.3,11.4-14.7
		c2-0.4,4.1-0.3,6.1-0.3c108.8,0,217.6,0,326.4,0c1.1,0,2.2,0,3.3,0c8.1,0.3,14.2,6.4,14.2,14.1c0,7.8-6.1,13.9-14.1,14.2
		c-2.8,0.1-5.5,0-8.2,0c0,16.2,0,31.7,0,47.3c3.8,0,7.3,0,10.8,0c26.4-0.1,44.6-18.2,44.7-44.6c0-36.6,0-73.2,0-109.8
		c0-26.1-18.3-44.4-44.3-44.4c-113.1,0-226.1,0-339.2,0c-25.8,0-44.2,18.3-44.2,44c-0.1,36.9-0.1,73.8,0.1,110.7
		c0,4.2,0.5,8.6,1.6,12.6c5.9,21,24.8,35.1,54,30.9C93.2,338,93.2,322.6,93.2,306.6z M381.1,307c-86.7,0-172.9,0-259.1,0
		c-0.1,0.9-0.2,1.5-0.2,2.1c0,45.7,0,91.4,0,137.2c0,8.9,6.2,14.6,15.6,14.6c76,0,152,0,228,0c9.8,0,15.7-5.8,15.7-15.5
		c0-45.1,0-90.2,0-135.3C381.1,309.2,381.1,308.2,381.1,307z M122.5,126.5c86,0,172.1,0,258.5,0c0-1.7,0-3.1,0-4.5
		c0-16.6,0.6-33.1-0.3-49.6c-1.1-21.6-19.5-39-41.2-39.1C280.8,33,222,33,163.2,33.2c-20.1,0.1-38.4,15-40.3,35
		C121.1,87.4,122.5,106.9,122.5,126.5z"/>
	<path d="M107.9,187.4c7.2,0,14.5-0.1,21.7,0c8.7,0.1,15,6.3,14.8,14.4c-0.1,7.9-6.3,13.9-14.8,14
		c-14.8,0.1-29.6,0.1-44.4,0c-8.4-0.1-14.6-6.2-14.6-14.1c0-7.9,6.2-14.1,14.6-14.2C92.8,187.3,100.3,187.4,107.9,187.4z"/>
	<path d="M251.4,338.8c12.1,0,24.2,0,36.4,0c9.2,0,15.6,5.8,15.7,14c0.1,8.4-6.4,14.3-15.9,14.3c-24.1,0-48.2,0-72.3,0
		c-9.5,0-16-5.9-15.9-14.3c0.1-8.4,6.5-14.1,16.1-14.1C227.5,338.8,239.4,338.8,251.4,338.8z"/>
	<path d="M251.5,399.4c12.1,0,24.2,0,36.4,0c9.2,0,15.6,5.9,15.6,14.1c0,8.3-6.4,14.2-15.5,14.2c-24.4,0-48.8,0-73.2,0
		c-9,0-15.5-6.1-15.3-14.4c0.1-8.1,6.5-13.9,15.3-14C226.9,399.3,239.2,399.4,251.5,399.4z"/>
</g>
</svg>
