<svg x="0px" y="0px"
	 viewBox="0 0 500 500" xml:space="preserve">
<g>
	<path d="M173.4,446.1c7.1-2.2,12-7.2,17.1-12.3c55.5-55.5,110.9-111,166.5-166.5c6.8-6.8,10-14.5,6.9-23.8
		c-1.2-3.5-3.5-6.9-6.1-9.5c-57.5-57.7-115-115.2-172.7-172.7c-3.2-3.2-7.8-5-11.7-7.4c-2.8,0-5.6,0-8.4,0c-0.3,0.2-0.6,0.5-0.9,0.7
		c-12.3,4.7-19.8,14.7-27.3,24.7c-0.4,0.6-0.6,1.4-0.8,2.1c-2.7,9.4,0.1,17.1,7,23.9c47.3,47.1,94.4,94.3,141.6,141.5
		c1.1,1.1,2.1,2.2,3.5,3.6c-1.5,1.2-2.7,2.1-3.8,3.2c-46.8,46.8-93.7,93.6-140.5,140.5c-1.6,1.6-3.2,3.3-4.6,5.1
		c-5.5,7.3-5.8,18.5,0.2,25.2c7.5,8.3,14.4,17.6,25.6,21.6C167.8,446.1,170.6,446.1,173.4,446.1z"/>
</g>
</svg>
