<?xml version="1.0" encoding="utf-8"?>
<!-- Generator: Adobe Illustrator 26.0.3, SVG Export Plug-In . SVG Version: 6.00 Build 0)  -->
<svg version="1.1" id="Layer_1" xmlns="http://www.w3.org/2000/svg" xmlns:xlink="http://www.w3.org/1999/xlink" x="0px" y="0px"
	 width="500px" height="500px" viewBox="0 0 500 500" style="enable-background:new 0 0 500 500;" xml:space="preserve">
<style type="text/css">
	.st0{display:none;}
	.st1{display:inline;fill:#6C6C6C;}
	.st2{display:inline;fill:#606060;}
	.st3{display:none;fill:#606060;}
	.st4{display:inline;fill:#E03636;}
	.st5{display:none;fill:#61B828;}
	.st6{display:inline;fill:#F25050;}
	.st7{display:inline;fill:#46C08B;}
</style>
<g class="st0">
	<path class="st1" d="M12.1,472c2.2-10.9,4.5-21.8,6.5-32.7c5.1-27.3,9.9-54.6,15.3-81.8c0.8-4.1,3.8-8.2,6.8-11.3
		c59.7-60,119.7-119.9,179.5-179.7c43-43,86-85.8,128.8-129C361,25.4,372.9,14,390.8,12c3.1,0,6.2,0,9.3,0c0.4,0.2,0.8,0.5,1.3,0.6
		c13.2,1.1,23.6,7.5,32.7,16.8c12,12.3,24.4,24.4,36.5,36.6c3.1,3.1,6,6.3,8.8,9.6c5.8,7,8.1,15.5,10.2,24.1c0,4.4,0,8.7,0,13.1
		c-0.8,2.8-1.5,5.6-2.4,8.4c-2.6,8.3-7.2,15.4-13.3,21.6c-106.5,106.5-213,212.9-319.4,319.5c-6.1,6.1-13.9,6.4-21.4,7.8
		c-33.8,6.4-68,12.6-102.1,18.9c-0.4,0.1-0.8,0.5-1.1,0.7c-2.2,0-4.4,0-6.5,0c-5.5-1.9-9.3-5.6-11.2-11.2
		C12.1,476.4,12.1,474.2,12.1,472z M343.1,84.9c-91.4,91.4-183,183-274.2,274.2c24.5,24.5,49.4,49.4,74,74
		c91.4-91.3,183-182.9,274.3-274.1C392.6,134.4,367.7,109.4,343.1,84.9z M438.6,138.9c4.8-4.9,9.7-9.9,14.6-14.9
		c11.5-11.6,11.5-24.3,0-35.9c-13.2-13.2-26.4-26.4-39.6-39.5c-1.5-1.5-3.2-3-4.9-4.3c-8.2-5.9-19.4-5.9-26.8,0.7
		c-6.5,5.9-12.2,12.7-18.1,19C388.2,88.5,413.2,113.4,438.6,138.9z M112.5,445.5C93.8,426.8,75,408,56.3,389.3
		c-4.1,22.3-8.4,45.3-12.7,68.9C67.3,453.9,90.2,449.7,112.5,445.5z"/>
</g>
<g class="st0">
	<path class="st1" d="M119.3,375.8c-24,0-47.1,0-70.1,0c-22.3,0-34.7-12.1-34.7-34.2c0-45.1,0-90.3,0-135.4
		c0-21.9,12.1-34.1,33.8-34.1c23.3,0,46.6,0,71,0c0-3.4,0-6.2,0-9c0-39.8,0-79.6,0-119.5c0-26.3,17.1-43.4,43.3-43.4
		c60,0,120,0.1,180-0.1c7,0,12,2.4,16.7,7.3C399,48.7,438.7,90,478.6,131.2c4.8,4.9,7,10,7,16.9c-0.2,102.7-0.1,205.5-0.1,308.2
		c0,26.7-17,43.6-43.9,43.6c-92.7,0-185.3,0-278,0c-27.3,0-44.2-16.9-44.2-44.1C119.3,429.6,119.3,403.3,119.3,375.8z M142,375.8
		c0,3.8,0,6.7,0,9.5c0,23.1,0,46.2,0,69.3c0,16.7,5.7,22.3,22.6,22.3c91.8,0,183.7,0,275.5,0c17,0,22.4-5.3,22.4-22.3
		c0-96.3,0-192.7,0-289c0-2.8-0.2-5.7-0.4-9.3c-3.5,0-6.4,0-9.2,0c-36.1,0-72.2,0-108.3,0c-12.1,0-15-3-15-15c0-36.4,0-72.7,0-109.1
		c0-2.8,0-5.6,0-8.5c-2.7-0.3-4.3-0.6-5.8-0.6c-54.1,0-108.3-0.1-162.4,0c-12.5,0-19.1,6.8-19.2,19.3c-0.1,26.3-0.1,52.6-0.1,78.8
		c0,16.7,0,33.3,0,50.8c4,0,7.1,0,10.2,0c49.4,0,98.7,0,148.1,0c19.9,0,32.4,12.3,32.4,32.1c0.1,46.4,0.1,92.9,0,139.3
		c0,19.6-12.7,32.2-32.5,32.2c-30.5,0.1-61,0-91.6,0C186.9,375.8,165.1,375.8,142,375.8z M173.5,353.4c41.4,0,82.8,0,124.2,0
		c10,0,12.7-2.7,12.7-12.7c0-44.3,0-88.7,0-133c0-10.7-2.5-13.2-13-13.2c-82.6,0-165.1,0-247.7,0c-10.5,0-12.4,1.9-12.4,12.7
		c0,44.3,0,88.7,0,133c0,11.7,1.6,13.3,13.5,13.3C91.7,353.4,132.6,353.4,173.5,353.4z M352.3,32.8c0,34.7,0,67.6,0,100.5
		c32.2,0,63.8,0,96.7,0C416.6,99.6,385.1,66.9,352.3,32.8z"/>
	<path class="st1" d="M146.9,318.4c0-28.7,0-56.5,0-86.2c16.4,0.9,32.5,0.6,48.3,3c11.3,1.7,17.8,11.2,21.1,21.8
		c3.7,11.9,4,24,0.5,36.1c-4.4,15.2-14.3,24.1-30.1,25.1C173.8,319.1,160.8,318.4,146.9,318.4z M167.2,301.3
		c10.1-1.3,20.7,3.4,27.7-6.7c5.5-8,4.8-31.5-1-38.2c-7.3-8.4-17.2-5.5-26.7-6C167.2,267.7,167.2,283.8,167.2,301.3z"/>
	<path class="st1" d="M90.9,318.3c-7.3,0-13.4,0-20,0c0-28.2,0-56.2,0-86.1c16.7,0.9,33.4,0.5,49.6,3c11.6,1.8,17.6,15.1,16.1,29.3
		c-1.3,11.9-10.3,21.2-22.2,22.3c-7.6,0.8-15.2,1-23.6,1.4C90.9,298.3,90.9,308,90.9,318.3z M91.2,270.8c6.5-0.5,12.6,0,17.8-1.8
		c3.1-1.1,6.8-5.8,6.7-8.9c0-3-4-7.5-7.1-8.4c-5.3-1.6-11.3-1-17.4-1.3C91.2,257.3,91.2,263.3,91.2,270.8z"/>
	<path class="st1" d="M230,233.4c20,0,39.2,0,59,0c0,5.6,0,10.8,0,16.8c-12.8,0-25.4,0-38.6,0c0,5.5,0,10.1,0,15.6
		c10.5,0,21.3,0,32.7,0c0,6.2,0,11.5,0,17.7c-10.9,0-21.7,0-33.1,0c0,11.8,0,22.9,0,34.5c-6.9,0-13.1,0-19.9,0
		C230,290.1,230,262.1,230,233.4z"/>
</g>
<g class="st0">
	<path class="st1" d="M372.6,489.3c-80.8,0-161.5,0-242.3,0c-0.6-0.2-1.1-0.6-1.7-0.7c-22.3-5-35.2-21.1-35.2-43.9
		c0-16.4,0-32.8,0-49.2c0-4.2,0-8.4,0-13.1c-4.8,0-9.2,0-13.6,0c-39-0.4-70.4-31.7-70.6-70.5C9,273.7,9,235.5,9.3,197.4
		c0.1-7.1,1.3-14.5,3.4-21.3c9.2-29.3,36.2-48.9,67-49.2c4.5,0,9,0,13.7,0c0-17.1,0-33.5,0-49.9c0.1-41,31.2-72.1,72.2-72.2
		c57.3-0.1,114.5-0.1,171.8,0c40.9,0,72,31.3,72.1,72.3c0,14.8,0,29.7,0,44.5c0,1.7,0,3.3,0,5.3c5.2,0,9.8,0,14.3,0
		c30.9,0.4,58.5,21.4,67.1,51.1c1.1,3.7,1.9,7.5,2.9,11.3c0,43.5,0,87.1,0,130.6c-0.3,0.9-0.7,1.7-0.9,2.6
		c-5.1,31.1-29.3,54.9-60.5,59.1c-7.4,1-15,0.8-22.8,1.2c0,1.8,0,3.5,0,5.2c0,19.9,0.1,39.7-0.1,59.6c-0.2,17.8-11.6,33.3-28.3,39.2
		C378.3,487.8,375.4,488.5,372.6,489.3z M93.2,306.6c-3.3,0-6.1,0.1-8.9,0c-7.3-0.4-13.1-6.1-13.6-13.3c-0.4-6.9,4.4-13.3,11.4-14.7
		c2-0.4,4.1-0.3,6.1-0.3c108.8,0,217.6,0,326.4,0c1.1,0,2.2,0,3.3,0c8.1,0.3,14.2,6.4,14.2,14.1c0,7.8-6.1,13.9-14.1,14.2
		c-2.8,0.1-5.5,0-8.2,0c0,16.2,0,31.7,0,47.3c3.8,0,7.3,0,10.8,0c26.4-0.1,44.6-18.2,44.7-44.6c0-36.6,0-73.2,0-109.8
		c0-26.1-18.3-44.4-44.3-44.4c-113.1,0-226.1,0-339.2,0c-25.8,0-44.2,18.3-44.2,44c-0.1,36.9-0.1,73.8,0.1,110.7
		c0,4.2,0.5,8.6,1.6,12.6c5.9,21,24.8,35.1,54,30.9C93.2,338,93.2,322.6,93.2,306.6z M381.1,307c-86.7,0-172.9,0-259.1,0
		c-0.1,0.9-0.2,1.5-0.2,2.1c0,45.7,0,91.4,0,137.2c0,8.9,6.2,14.6,15.6,14.6c76,0,152,0,228,0c9.8,0,15.7-5.8,15.7-15.5
		c0-45.1,0-90.2,0-135.3C381.1,309.2,381.1,308.2,381.1,307z M122.5,126.5c86,0,172.1,0,258.5,0c0-1.7,0-3.1,0-4.5
		c0-16.6,0.6-33.1-0.3-49.6c-1.1-21.6-19.5-39-41.2-39.1C280.8,33,222,33,163.2,33.2c-20.1,0.1-38.4,15-40.3,35
		C121.1,87.4,122.5,106.9,122.5,126.5z"/>
	<path class="st1" d="M107.9,187.4c7.2,0,14.5-0.1,21.7,0c8.7,0.1,15,6.3,14.8,14.4c-0.1,7.9-6.3,13.9-14.8,14
		c-14.8,0.1-29.6,0.1-44.4,0c-8.4-0.1-14.6-6.2-14.6-14.1c0-7.9,6.2-14.1,14.6-14.2C92.8,187.3,100.3,187.4,107.9,187.4z"/>
	<path class="st1" d="M251.4,338.8c12.1,0,24.2,0,36.4,0c9.2,0,15.6,5.8,15.7,14c0.1,8.4-6.4,14.3-15.9,14.3c-24.1,0-48.2,0-72.3,0
		c-9.5,0-16-5.9-15.9-14.3s6.5-14.1,16.1-14.1C227.5,338.8,239.4,338.8,251.4,338.8z"/>
	<path class="st1" d="M251.5,399.4c12.1,0,24.2,0,36.4,0c9.2,0,15.6,5.9,15.6,14.1c0,8.3-6.4,14.2-15.5,14.2c-24.4,0-48.8,0-73.2,0
		c-9,0-15.5-6.1-15.3-14.4c0.1-8.1,6.5-13.9,15.3-14C226.9,399.3,239.2,399.4,251.5,399.4z"/>
</g>
<g class="st0">
	<path class="st1" d="M200.8,496c-3.5-2.3-7.5-4.1-10.5-7c-4.9-4.5-5.4-10.9-5.4-17.2c0-58.1-0.1-116.2,0.1-174.3
		c0.1-13.6-3.7-25.4-11.6-36.4C121.4,188.2,69.7,115.3,18,42.4c-7-9.8-7.5-18.8-1.7-26.9c3.7-5.3,9-7.9,15.3-8.5
		c1.6-0.2,3.2-0.1,4.8-0.1c143,0,285.9,0,428.9,0c12.7,0,20.3,5.1,23.2,15.6c2,7.4-0.7,13.7-4.9,19.6
		c-23.8,33.5-47.5,66.9-71.3,100.4c-28.3,39.8-56.4,79.7-84.9,119.4c-7.5,10.5-11.1,21.8-11,34.7c0.2,47,0.1,93.9,0.1,140.9
		c0,13.7-3.5,18.8-16.3,23.6c-30,11.4-60,22.7-90,34.1c-0.3,0.1-0.5,0.4-0.7,0.6C206.5,496,203.7,496,200.8,496z M41.2,31.9
		c1.3,1.9,2.1,3.2,3,4.5c49.7,70,99.4,140.1,149.3,210.1c10.9,15.3,16.4,31.8,16.3,50.7c-0.3,55.2-0.1,110.4-0.1,165.7
		c0,1.8,0,3.6,0,6c2.3-0.7,3.8-1.1,5.2-1.7c24-9.2,48.1-18.4,72.2-27.4c3.6-1.4,4.7-3.1,4.7-6.8c-0.1-45.4,0-90.7-0.2-136.1
		c-0.1-18.3,5.1-34.5,15.7-49.5c50-70.2,99.9-140.5,149.8-210.9c1-1.4,1.8-2.8,3-4.6C320.3,31.9,181.1,31.9,41.2,31.9z"/>
</g>
<g class="st0">
	<path class="st2" d="M75.7,493.9c-2.5-0.8-5.1-1.5-7.6-2.3c-18.5-6.1-31.2-23.2-31.4-42.8c-0.2-19.2-0.1-38.4-0.1-57.6
		c0-112.4,0-224.9,0-337.3c0-23,13.5-41.1,34.8-46.3c4-1,8.2-1.4,12.2-1.4c55.9-0.1,111.8,0,167.7-0.1c13.6,0,25,4.8,34.6,14.4
		c34,34.1,68,68.1,102.1,102.1c9.7,9.7,14.6,21.3,14.5,35c-0.1,5.4,0.1,10.8,0,16.2c-0.2,8.6-6.8,15.2-15.1,15.3
		c-8.5,0.1-15.2-6.6-15.4-15.5c-0.1-4.8,0-9.5,0-15c-1.9,0-3.5,0-5.2,0c-23,0-46.1,0-69.1,0c-28,0-47.6-19.7-47.7-47.7
		c0-22.9,0-45.7,0-68.6c0-1.7,0-3.4,0-5.7c-2.1,0-3.8,0-5.4,0c-53.2,0-106.4,0-159.6,0c-12.1,0-17.9,5.7-17.9,17.7
		c0,130.5,0,261.1,0,391.6c0,11.6,5.9,17.6,17.6,17.6c39.5,0,79.1,0,118.6,0c7.9,0,13.7,4.3,15.7,11.3c1.8,6.3-1,13.3-6.8,16.9
		c-1.3,0.8-2.7,1.5-4.1,2.2C164,493.9,119.9,493.9,75.7,493.9z M348,128c-22.3-22.3-45.1-45.1-67.4-67.3c0,16.7-0.1,34.7,0.1,52.6
		c0.1,8.1,6.5,14.6,14.6,14.7C313.2,128.2,331.2,128,348,128z"/>
	<path class="st2" d="M314.9,493.9c-9.4-2-19-3.3-28.3-6c-52.1-14.9-91.7-63.2-96.7-117.4c-6-65.2,32.2-123.8,94.3-144.4
		c79-26.2,165.2,26.5,177.6,108.8c11.6,77-39.9,146.5-117,157.8c-2.7,0.4-5.3,0.8-8,1.2C329.5,493.9,322.2,493.9,314.9,493.9z
		 M326.5,250c-58.8-0.1-106.8,47.7-106.9,106.4c-0.1,58.8,47.6,106.8,106.3,107c59,0.2,107.1-47.7,107.1-106.7
		C433.1,298,385.3,250.1,326.5,250z"/>
	<path class="st2" d="M326.5,335.2c10.8-10.9,21.2-21.3,31.6-31.8c4.6-4.6,10-6.1,16.1-4.1c10.9,3.5,13.9,16.9,5.6,25.5
		c-9.3,9.6-18.8,18.9-28.2,28.3c-1.1,1.1-2.2,2.3-3.9,4c3,2.8,5.9,5.4,8.6,8.2c7.9,7.8,15.8,15.6,23.6,23.6
		c6.2,6.4,6.3,15.9,0.3,21.8s-15.5,6-21.8-0.3c-10.6-10.5-21.1-21.1-32-31.9c-1.3,1.1-2.4,2.1-3.5,3.2c-9.3,9.3-18.6,18.7-28,27.9
		c-6.9,6.8-16.3,7.2-22.5,1.2c-6.4-6.2-6-15.7,1.1-22.8c9.2-9.2,18.4-18.4,27.6-27.6c1.1-1.1,2.1-2.3,3.4-3.7
		c-10.5-10.5-20.9-20.6-31-31.2c-2.5-2.6-4.6-6.2-5.3-9.7c-1.4-6.7,2.2-12.8,8.1-15.7c5.8-2.9,12.6-1.9,17.6,3
		c9.6,9.5,19.1,19.1,28.7,28.6C323.8,332.6,325,333.7,326.5,335.2z"/>
</g>
<g class="st0">
	<path class="st2" d="M3.7,247.1c2.4-4,4.3-8.2,7.2-11.8c34.7-43.5,74.9-80.7,123.3-108.6C166.1,108.4,200.1,96,237,93.6
		c33.9-2.3,66.3,4.4,97.4,17.7c44.5,19,82.6,47.5,116.5,81.7c14.1,14.2,26.9,29.6,39.9,44.8c7.4,8.6,7.1,15.7,0.1,24.7
		c-35,44.3-75.6,82.3-124.7,110.6c-38.5,22.2-79.7,35.7-124.8,33.7c-31-1.4-60.2-9.7-88-23.4C95.1,354.7,48.5,312.2,8.6,261.7
		c-2-2.6-3.2-5.8-4.8-8.8C3.7,251,3.7,249.1,3.7,247.1z M40.5,249.7c1.8,2.1,3,3.8,4.5,5.3c15,15.4,29.3,31.4,45.1,45.9
		c30.5,27.8,64.5,50.5,104,64c23.7,8,47.9,11.5,72.8,8.7c32-3.5,61-15.4,88.3-31.7c35.5-21.3,65.9-48.7,93.4-79.3
		c3.6-4,7-8.2,10.9-12.7c-9.5-10.2-18.3-20.3-27.7-29.9c-31.7-32.2-66.8-59.8-108.6-77.9c-20.8-9-42.5-15-65.4-16
		c-34.9-1.6-67.1,8.1-97.7,23.9c-34.2,17.7-63.8,41.6-90.7,68.8C59.5,228.6,50.2,239.2,40.5,249.7z"/>
	<path class="st2" d="M347.2,250.4c-0.4,54-44.4,97.5-97.9,96.9c-53.9-0.6-97-44.2-96.6-97.7c0.4-54,44.4-97.5,97.9-96.9
		C304.5,153.4,347.6,197,347.2,250.4z M314.8,250.2c0.2-35.7-28.6-64.7-64.6-65.1c-35.6-0.4-65.3,29.2-65.2,65s29.1,64.7,64.8,64.8
		C285.6,315,314.6,286.1,314.8,250.2z"/>
</g>
<g class="st0">
	<path class="st2" d="M51.9,249.9c0-59.4,0-118.8,0-178.2c0-29.6,15.9-52.7,42.9-61.6c6.6-2.2,13.8-3.1,20.8-3.2
		C171.8,6.7,228,6.8,284.2,6.7c12.4,0,22.6,4.4,31.3,13.1c39.8,40,79.7,79.8,119.7,119.6c8.8,8.7,13,19.1,13,31.4
		c0,86.3,0.1,172.6-0.1,258.8c-0.1,36.6-27.2,63.5-63.9,63.5c-89.3,0.1-178.6,0.1-267.9,0c-37.7,0-64.4-26.8-64.4-64.6
		C51.8,369,51.9,309.4,51.9,249.9z M278.4,40.7c-2.5,0-4.4,0-6.3,0c-51.6,0-103.2,0-154.9,0c-20.1,0-31.3,11.4-31.4,31.7
		c0,118.4,0,236.9,0,355.3c0,20.1,11.4,31.5,31.6,31.5c88.4,0,176.8,0,265.2,0c20.2,0,31.6-11.3,31.6-31.5c0-81.7,0-163.3,0-245
		c0-1.9,0-3.8,0-6.2c-2.6,0-4.5,0-6.4,0c-21.7,0-43.5,0.1-65.2,0c-37.2-0.1-64.1-27-64.2-64.3c-0.1-21.7,0-43.5,0-65.2
		C278.4,45.1,278.4,43.2,278.4,40.7z M386.8,142.1c-24.5-24.5-49.7-49.7-74.4-74.4c0,15.1-0.2,31.3,0.1,47.6
		c0.3,13.9,10.1,25.7,24,26.6C353.8,142.9,371.2,142.1,386.8,142.1z"/>
	<path class="st2" d="M250.3,330c-15.1,15.2-29.3,29.4-43.4,43.8c-4.1,4.1-8.7,6.7-14.6,6.2c-6.9-0.6-12.1-4.1-14.5-10.7
		c-2.6-6.9-1.2-13.2,4-18.5c12.8-12.9,25.7-25.8,38.6-38.6c1.7-1.7,3.8-3.2,7.2-6.1c-3-2.2-5.5-3.4-7.3-5.3
		c-12.3-12.2-24.6-24.5-36.8-36.7c-8.5-8.5-9.3-18.9-2-26.1c7.4-7.3,17.4-6.4,26.1,2.3c12.8,12.7,25.5,25.5,38.3,38.2
		c1.2,1.2,2.5,2.4,4.7,4.4c2.2-2.5,4.2-5,6.4-7.3c12-12,24-24,36-36c8.1-8.1,18.2-8.7,25.4-1.7c7.2,7,6.7,17.5-1.5,25.8
		c-12.8,12.9-25.7,25.8-38.7,38.6c-1.4,1.3-3.3,2.1-5.2,3.4c15.5,15.5,29.9,29.6,43.9,44.1c2.8,2.9,5.2,6.9,6,10.8
		c1.7,7.5-2.2,14.4-8.7,17.7c-6.4,3.3-14.1,2.4-19.6-3c-13.5-13.3-26.8-26.7-40.2-40.1C253.2,333.8,252.1,332.2,250.3,330z"/>
</g>
<path class="st3" d="M457.4,438.2c-7.1,7.1-14.2,14.3-21.4,21.4c-12.7,12.4-25.1,12.4-37.7-0.2c-46.7-46.6-93.3-93.2-139.8-139.9
	c-2.5-2.5-4.4-5.6-7.2-9.3c-4.3,4.1-6.7,6.3-8.9,8.6c-46.2,46.2-92.5,92.5-138.7,138.7c-15.3,15.3-26.5,15.2-41.8,0.1
	c-6.7-6.7-13.5-13.5-20.2-20.2c-14.1-14.2-14.1-26-0.1-40c46.6-46.6,93.2-93.2,139.8-139.9c2.3-2.3,4.4-4.6,7.1-7.5
	c-2.7-2.9-4.8-5.2-7.1-7.5C135,196.1,88.6,149.6,42.2,103.2C27.3,88.5,27.4,77,42.3,62.1c7.1-7.1,14.2-14.3,21.4-21.4
	c13-12.8,25.3-12.9,38.3,0.1c46.9,46.8,93.6,93.6,140.4,140.4c2.3,2.3,4.6,4.4,7.6,7.2c2.8-2.5,5.2-4.6,7.4-6.9
	c46.4-46.4,92.8-92.8,139.3-139.2c14.9-14.9,26.3-14.9,41.2-0.2c6.6,6.5,13.1,13.1,19.7,19.7c15.3,15.3,15.4,26.7,0.2,41.8
	c-46.2,46.3-92.4,92.5-138.7,138.6c-2.3,2.3-5.5,3.7-8.9,5.9c4.1,4.4,6.1,6.9,8.3,9.1c46.4,46.4,92.9,92.9,139.3,139.3
	C472.8,411.6,472.7,423,457.4,438.2z"/>
<g class="st0">
	<path class="st2" d="M249.7,459.9c-60.6,0-121.1,0-181.7,0c-26.5,0-48.8-15.5-56.9-39.8c-2-6.1-3.2-12.9-3.2-19.3
		C7.7,321.9,7.7,243,7.8,164c0.1-33.4,26-59.2,59.5-59.4c21.4-0.1,42.8-0.1,64.2,0c3.2,0,4.9-0.7,5.9-4c2.2-7.5,4.8-14.8,7.5-22.1
		c8-22.3,29.6-38.1,53.3-38.3c34.6-0.3,69.1-0.3,103.7,0c23.4,0.2,45.1,16,53,38c2.7,7.5,5.3,15,7.6,22.6c0.9,3.1,2.4,3.9,5.5,3.9
		c21.9-0.1,43.7-0.2,65.6,0c27.4,0.2,51,19.3,56.8,45.9c1,4.7,1.5,9.7,1.5,14.5c0.1,78.3,0.1,156.6,0,234.9
		c0,34-25.9,59.8-59.9,59.9C371.4,460,310.6,459.9,249.7,459.9z M249.9,427.7c60.3,0,120.5,0,180.8,0c18.2,0,29.1-10.9,29.1-29.1
		c0-77.4,0-154.8,0-232.2c0-18.5-10.9-29.4-29.4-29.4c-25.1,0-50.2,0-75.3,0c-11,0-15.8-3.5-19.3-14c-3.5-10.6-6.9-21.2-10.5-31.8
		c-4.1-12-13.8-18.8-26.4-18.8c-32.4,0-64.9,0-97.3,0c-13.5,0-23.1,6.9-27.3,19.6c-3.5,10.4-6.9,20.9-10.4,31.3
		c-3.4,10.1-8.3,13.7-19,13.7c-24.9,0-49.9,0-74.8,0c-19.4,0-30,10.7-30,30.2c0,76.9,0,153.9,0,230.8c0,19.1,10.7,29.7,29.9,29.8
		C130,427.7,190,427.7,249.9,427.7z"/>
	<path class="st2" d="M371.1,274.8c-0.4,67.4-55.1,121.2-122.5,120.6c-66.4-0.5-120.1-55.2-119.7-122.1
		c0.4-66.7,55.1-120.7,122-120.2C317.4,153.6,371.5,208.3,371.1,274.8z M161.3,274.2c-0.1,48.9,39.5,88.6,88.7,88.8
		c48.5,0.2,88.5-39.6,88.8-88.3c0.2-48.8-39.5-89.2-87.8-89.3C201.2,185.3,161.4,224.7,161.3,274.2z"/>
	<path class="st2" d="M395.4,185.4c0-8.9,7-16,15.9-16.1c9-0.1,16.4,7.2,16.4,16.2c0,8.8-7.2,16-15.9,16.1
		C402.8,201.8,395.4,194.5,395.4,185.4z"/>
</g>
<g class="st0">
	<path class="st2" d="M428.2,62.9c-4.2,0-8.4,0-12.7,0l-2,0l0-3.4c0-4.7,0-9.1,0-13.6c0-9.3-3-17.4-8.5-22.9
		c-4.9-4.9-11.3-7.5-18.6-7.5c-22.7,0-45.4,0-68.2,0l-36.4,0c-38.8,0-79,0-118.4,0c-5.8,0-10.4,2.5-13.6,7.4c-0.6,1-1.3,1.9-2.1,2.8
		l-20.2,24.1c-24.8,29.6-50.5,60.2-75.8,90.2c-4.6,5.5-6.8,11.5-6.8,19l0,25.1c0.1,72.8,0.2,148.1-0.1,222.2
		c0,9.5,3.7,18.6,9.9,24.4c5.2,4.8,11.5,7.1,18.4,6.6c3.7-0.3,7.5-0.2,11.6-0.1c0.6,0,1.3,0,1.9,0c0,1.1,0,2.1,0,3.1
		c0,4.5,0,8.9,0,13.3c0,9.7,2.9,17.8,8.5,23.4c4.9,4.9,11.5,7.5,19.1,7.5c0,0,0,0,0,0l318-0.3c12.6,0,22.8-11.3,22.8-25.2V92.8
		C455.1,75,444.3,62.9,428.2,62.9z M116.8,437.2h269.4c16,0,27.3-12.4,27.3-30.1c0.1-44.2,0.1-89.2,0-132.7l0-47
		c0-43.9,0-87.7,0-131.6h11.4v355.6H116.8C116.8,446.8,116.8,442.1,116.8,437.2z M147.6,137.9c-0.1,0-0.1,0-0.2,0
		c-9.4-0.1-18.9-0.1-28.2-0.1c-4.5,0-9,0-13.4,0c-3.9,0-7.7,0-11.6,0c17.9-21.4,35.5-42.4,53.3-63.7c0,4.6,0,9.1,0,13.7
		c0,16.1,0,32.8,0.1,49.2C147.7,137.5,147.7,137.7,147.6,137.9z M74.9,404.4c0.1-20.3,0.1-41,0.1-61l0-170.3c0-0.8,0-1.7,0-2.4
		c0.5,0,1.1,0,1.6,0l23.6,0c19.8,0,39.6,0,59.4,0c12.4,0,18-6.1,18-19.8c0-25.3,0-50.6,0-75.8l0-26.4h205.5v355.9l-294.4,0
		c-1.3,0-2.6,0-3.9,0c-3.2,0-6.6-0.1-10,0.1C74.9,404.5,74.9,404.4,74.9,404.4z"/>
	<path class="st2" d="M305.6,312.1c-26.4-0.1-53.3-0.1-79.3-0.1l-9.9,0c-7.3,0-14.7,0-22,0c-11.4,0-22.8,0-34.2,0c0,0,0,0,0,0
		c-5.4,0-9.4,1.8-12.3,5.5c-4,5.3-4.9,11.4-2.5,17.3c2.6,6.4,7.9,10,14.8,10c0,0,0,0,0,0c17.7,0,35.5,0,53.2,0l59.9,0
		c3.2,0,6.4,0,9.5,0c3.1,0,6.2,0,9.3,0c4.7,0,9.5,0,14.2-0.1c4.6-0.1,8.7-1.8,11.5-5.1c3.1-3.5,4.5-8.3,3.9-13.6
		C320.9,317.5,314.7,312.2,305.6,312.1z"/>
	<path class="st2" d="M161.3,261.7c0,0,0.1,0,0.1,0c16.4,0,32.8,0,49.1,0c31.4,0,62.7,0,94.1-0.1c2.5,0,5-0.4,7.3-1.1
		c5.5-1.8,9.5-7.3,10-13.8c0.4-5.2-1-9.7-4-12.9c-3.1-3.3-7.6-5-13.2-5l-74.8,0c-12.6,0-25.3,0-37.9,0c-3,0-6.1,0-9.1,0
		c-7.6,0-15.5,0-23.2,0.1c-5.6,0.1-10.6,3-13.4,7.8c-3,5.1-3,11.5,0,17C150.6,261.6,158.5,261.7,161.3,261.7z"/>
	<path class="st2" d="M229.4,177.4c2.5,0.8,5.1,1,7.3,1c13.2,0,25.7,0,37.6,0c10.8,0,21.2,0,31.2,0c2.7,0,5.2-0.5,7.2-1.4
		c6.7-2.9,10.3-10.2,9-18.2c-1.2-7.4-7.5-13-14.6-13.1c-8.6-0.1-17.3-0.1-25.7,0c-3.3,0-6.7,0-10,0c-3.7,0-7.4,0-11.1,0
		c-8.6,0-17.6,0-26.4,0c-7.7,0.1-13.6,5.9-14.7,14.4C218.3,167.6,222.7,175.2,229.4,177.4z"/>
</g>
<g class="st0">
	<path class="st2" d="M255.1,279.7c-66.8,3-133.6-46.6-138.1-126.1c-4-70.9,48.1-130.7,116.6-139C311.9,5.2,378.9,62.9,383,140.3
		C386.8,210.7,332.6,276.5,255.1,279.7z M348.4,148.1c1.5-51.6-41.4-97.6-91.7-100c-60.5-2.8-105.3,44.5-105.5,98.8
		c-0.2,50.2,42.3,96.2,92,98.5C303.9,248.2,348.8,200.9,348.4,148.1z"/>
	<path class="st2" d="M250.1,326c91.6,5.4,159.7,39.9,211.3,106c6.2,8,11.3,16.8,16.7,25.4c6.6,10.5,4.9,21-4.1,26.6
		c-8.3,5.2-17.8,1.3-25-8.6c-10.9-15-21.5-30.4-34-43.9c-27.1-29.3-60.5-49.1-98.8-60.4c-57-16.9-112.6-12.4-166.1,13.4
		c-42.2,20.4-75.1,51.1-98.5,91.9c-5.4,9.5-15,12.7-23.8,8c-9.4-5-12.5-13.9-7.2-23.9c11.5-21.5,26.7-40.1,44-57.1
		c37.8-37.2,82.7-61.4,134.8-71.3C218.6,328.2,238.4,327.3,250.1,326z"/>
</g>
<g class="st0">
	<path class="st2" d="M456,478.3c-3.7-7.6-10.7-7.3-17.5-7.1l-0.3,0l0-274.7c0-0.4,0-0.9,0-1.3c0-1.1,0-2.3,0-3.4
		c-0.4-7.1-4.4-10.8-11.4-10.8c-12.9,0-26,0-38.7,0l-15.2,0l-4.6,0l0-34.6c0-25.3,0-50.6,0-75.9c0-11-3.2-14.2-14.2-14.2l-10.6,0
		l-4.4,0v-12c0-1.8,0-3.6,0-5.4c-0.1-4-0.1-8.2,0.1-12.2c0.3-6.2-2-10.5-7.3-13l-0.2-0.1H179.5l-0.2,0.1c-5.1,2.8-7.3,7.1-7.1,13.6
		c0.2,6.9,0.2,13.7,0.1,20.9c0,2.7,0,5.4,0,8.2l-4.7,0c-4.1,0-8,0-11.9,0c-8.9,0-12.5,3.7-12.5,12.5c0,42.5,0,84.9,0,127.4l0,48.3
		l-16.8,0c-9.8,0-19.7,0-29.5,0c-10.8,0-14.1,3.3-14.1,13.9l0,212.8c-2,0-3.9,0-5.8,0.1c-5.1,0.1-10,0.1-14.8-0.1
		c-6.2-0.3-10.7,2-13.6,7.1l-0.1,0.2v13.3h1c67.6,0,135.2,0,202.8,0c67.6,0,135.2,0,202.8,0h1v-13.3L456,478.3z M103.8,470.9V265.4
		h39v205.5H103.8z M318,34.6V56H193V34.6H318z M282.4,421.4V471h-53.6v-49.5H282.4z M303.3,413.3c0-9.1-3.8-12.8-12.9-12.8
		c-23.3,0-46.5,0-69.8,0c-8.8,0-12.6,3.8-12.6,12.5c0,12.5,0,25.3,0,37.6c0,5.2,0,10.3,0,15.5v4.8h-43.9V77.2h183.1V471h-43.8
		l0-20.2C303.3,438.3,303.3,425.8,303.3,413.3z M368.4,471V202h48.8v269H368.4z"/>
	<path class="st2" d="M245.1,307.1c-0.1-7.1-3.9-11-10.6-11.1c-13.5-0.2-27.6-0.2-41.9,0c-7,0.1-10.9,4.1-10.9,11.4
		c-0.1,12.9-0.1,26.2,0,40.5c0,7.6,4.1,11.6,11.6,11.7c7,0.1,13.7,0.1,20.3,0.1c6.8,0,13.5,0,20.1-0.1c7.3-0.1,11.2-4,11.3-11.4
		c0.1-4.8,0-9.6,0-14.3c0-2.1,0-4.1,0-6.2c0-2.1,0-4.2,0-6.3C245.1,316.6,245.1,311.8,245.1,307.1z M224.1,316.7v21.8h-21.6v-21.8
		H224.1z"/>
	<path class="st2" d="M329.5,347.7c0-4.7,0-9.4,0-14c0-2,0-4,0-6c0-2.1,0-4.1,0-6.2c0-4.7,0-9.5,0-14.3c-0.1-7.2-4-11.2-10.9-11.3
		c-14.4-0.2-28.5-0.2-41.9,0c-6.7,0.1-10.6,4.2-10.6,11.1c-0.1,13.2-0.1,26.5,0,40.9c0,7.1,4,11.3,10.9,11.4
		c6.8,0.1,13.7,0.1,20.8,0.1c6.8,0,13.7,0,20.6-0.1C325.6,359.3,329.5,355.3,329.5,347.7z M308.8,316.8v21.7H287v-21.7H308.8z"/>
	<path class="st2" d="M277.2,170.3c6.9,0.1,13.8,0.1,20.6,0.1c7.1,0,14,0,20.8-0.1c7.1-0.1,10.8-4,10.9-11.3c0.1-4.6,0-9.4,0-13.9
		c0-2,0-4,0-6.1c0-2,0-4.1,0-6.1c0-4.7,0-9.5,0-14.3c-0.1-7.6-4.1-11.6-11.6-11.7c-13.9-0.1-27.5-0.1-40.5,0
		c-7.3,0.1-11.3,4.1-11.4,11.4c-0.1,14.6-0.1,28,0,40.9C266.2,166.3,270.1,170.3,277.2,170.3z M287,149.5v-21.8h21.8v21.8H287z"/>
	<path class="st2" d="M245.1,233.2c0-2.1,0-4.2,0-6.2c0-4.7,0-9.5,0-14.2c-0.1-7.4-3.9-11.2-11.4-11.3c-13.2-0.1-26.8-0.1-40.5,0
		c-7.4,0-11.5,4-11.5,11.2c-0.1,13.5-0.1,27.3,0,40.9c0.1,7.2,4.1,11.2,11.5,11.3c6.8,0,13.6,0.1,20.4,0.1c6.8,0,13.5,0,20.1-0.1
		c7.4,0,11.3-3.9,11.4-11.2c0.1-4.7,0.1-9.6,0-14.2C245.1,237.3,245.1,235.2,245.1,233.2z M224.2,222.4V244h-21.7v-21.7H224.2z"/>
	<path class="st2" d="M329.6,213.8c0-8.7-3.7-12.4-12.2-12.4c-12.9,0-26,0-39.1,0c-8.3,0-12.1,3.8-12.1,12c0,13.3,0,26.6,0,39.5
		c0,8,3.9,11.9,11.7,12c6.6,0,13.3,0,20,0c6.7,0,13.4,0,20,0c7.8,0,11.6-4,11.7-12c0-4.5,0-9,0-13.5l0-6l0-6.1
		C329.6,222.8,329.6,218.3,329.6,213.8z M308.7,222.3v21.6h-21.7v-21.6H308.7z"/>
	<path class="st2" d="M192.7,170.3c6.8,0.1,13.7,0.1,20.6,0.1c6.9,0,13.9,0,20.8-0.1c7.1-0.1,10.9-3.9,11-11.2c0.1-4.8,0-9.6,0-14.3
		c0-2.1,0-4.1,0-6.2c0-2.1,0-4.1,0-6.2c0-4.7,0-9.5,0-14.2c-0.1-7.2-4-11.2-10.9-11.3c-13.7-0.2-27.6-0.2-41.4,0
		c-7,0.1-11,4.2-11.1,11.3c-0.1,13.4-0.1,27.2,0,40.9C181.7,166.3,185.7,170.3,192.7,170.3z M202.5,149.4v-21.7h21.7v21.7H202.5z"/>
</g>
<g class="st0">
	<path class="st4" d="M949.7,404.7c19.1-21.1,37.9-41.1,55.7-61.9c23.7-27.7,44.3-57.6,61.5-90c43.5-81.7-15.2-174.6-92.8-189
		C896.2,49.4,826.9,105.6,818,180.1c-0.7,5.7-1,11.6-1.3,17.3c-0.4,9.8-7.8,17.4-16.9,17.1c-9.5-0.3-16.4-7.5-16.3-17.7
		c0.3-30.3,7.2-59,23-85C841.2,55.1,892,25,958.7,29c68.5,4,116.2,41,143.4,103.5c20,46.1,16.5,91.7-6.4,136.3
		c-24.1,47-56.5,87.8-92.1,126.3c-13,14.1-26.7,27.6-40.5,41c-9.6,9.4-17.6,9.3-27.5,0.4c-43.3-38.7-82.3-81.3-113.5-130.5
		c-7.8-12.4-14.4-25.7-21-38.8c-4.6-9.3-1.2-18.7,7.2-22.8c8.8-4.3,18.3-0.7,22.8,8.8C859,312,902.3,358.8,949.7,404.7z"/>
	<path class="st4" d="M762.7,459.1c125,0,248.6,0,373.3,0c-1.6-2.9-2.7-5-3.9-7c-15.7-27.5-31.5-55-47.1-82.6
		c-5-8.8-3.6-16.9,3.1-22.3c8.5-6.8,19.7-4.5,25.6,5.7c10.5,18.2,20.8,36.4,31.2,54.6c11.1,19.4,22.2,38.8,33.2,58.1
		c8,14.1,0.7,27-15.5,27c-141.8,0-283.6,0-425.4,0.1c-7.7,0-14.3-1.7-18.1-8.9c-3.7-6.9-1.5-13.2,2.1-19.6
		c21.2-36.8,42.1-73.6,63.2-110.4c4.8-8.4,11.6-12,19.1-10.1c11.8,3,16.5,14.6,10.2,25.9c-11.2,19.8-22.6,39.6-33.9,59.3
		C774.3,438.6,768.8,448.3,762.7,459.1z"/>
	<path class="st4" d="M949.2,260.5c-36.7,0-66.3-29.8-66.2-66.6c0.1-36.7,29.9-66.2,66.8-66.1c36.6,0.1,66.1,30.1,65.9,66.9
		C1015.5,230.9,985.6,260.5,949.2,260.5z M949,227.2c17.4,0.5,32.7-13.9,33.4-31.6c0.8-18.4-13.5-34-31.7-34.6
		c-18.7-0.7-34,13.8-34.4,32.5C915.9,211.8,930.4,226.7,949,227.2z"/>
</g>
<g class="st0">
	<path class="st2" d="M385.5,147.3l8.6-10.1c1.1,0.9,2.2,1.9,3.3,2.8c3.9,3.3,7.6,6.4,11.5,9.6c5.8,4.8,10.8,4.4,15.6-1.1
		c5.5-6.3,11-12.8,16.4-19.4c4.5-5.5,4-10.7-1.2-15.2c-14.2-12.1-29-24.5-45.2-37.9c-5.3-4.4-10.6-4-15.2,1.3
		c-5.5,6.3-10.9,12.7-15.7,18.5c-5.7,6.8-5.3,11.5,1.5,17.2c3.6,3.1,7.3,6.1,10.9,9.2l3.1,2.6l-8.6,10.2
		c-27.1-20.6-58-33.6-91.9-38.9V82.2c1.7,0,3.3,0,5,0c5.6,0,11,0,16.4,0c9.4-0.1,12.5-3.1,12.5-12.5c0.1-13.9,0.1-29.2,0-46.6
		c0-9.8-3-12.8-12.7-12.8c-33.1,0-66.3,0-99.4,0c-10,0-12.9,3-12.9,13.2c0,15.6,0,30.9,0,45.5c0,10.3,2.9,13.2,13.5,13.2
		c5.3,0,10.5,0,15.8,0l4.7,0v13.7c-44.4,7-83.9,27.3-114.3,59c-29.8,31-48.9,71.7-53.7,114.6c-4.9,43,4.1,85.4,26,122.6
		c21.8,37.1,54.3,65.5,94.1,82.2c24.4,10.2,50.2,15.4,76.1,15.4c16,0,32-2,47.9-5.9c41.7-10.3,78-33.2,105-66.2
		c28.1-34.4,43.3-73.6,45-116.7C450,241.8,429.1,190.1,385.5,147.3z M292.8,30.1v32.5h-85.8V30.1H292.8z M383.2,102.6l5.3-6.4
		l32,26.9l-5.4,6.4L383.2,102.6z M241.5,93.8V83h17.1v10.8H241.5z M250.1,113.3c0.2,0,0.5,0,0.7,0c47.6,0.2,92.4,19,126,52.9
		c33.6,33.9,52,78.8,51.7,126.5c-0.5,98.1-80.4,177.7-178.1,177.7c-0.2,0-0.4,0-0.6,0c-47.9-0.1-92.8-18.8-126.4-52.7
		c-33.6-33.8-52-78.8-51.8-126.6c0.2-47.7,18.9-92.4,52.8-126C158.1,131.6,202.7,113.3,250.1,113.3z"/>
	<path class="st2" d="M248.7,457.8c0.4,0,0.9,0,1.3,0c43.8,0,85-16.9,116.2-47.7c31.8-31.4,49.5-73.5,49.8-118.4
		c0.3-44-16.8-85.4-48.1-116.7c-31.3-31.2-73-48.7-117.6-49c-43.9-0.3-85.4,16.6-116.8,47.8c-31.4,31.2-48.9,72.7-49.3,117
		C83.5,382.2,157.3,457.1,248.7,457.8z M103.4,291.6c0-80.6,65.7-146.2,146.5-146.3c0.1,0,0.1,0,0.2,0c39.2,0,76,15.3,103.7,43
		c27.7,27.7,42.9,64.5,42.8,103.6c-0.2,80.7-65.9,146.4-146.5,146.5c0,0-0.1,0-0.1,0c-39.1,0-75.8-15.3-103.6-43
		C118.7,367.6,103.4,330.8,103.4,291.6z"/>
	<path class="st2" d="M201.4,340.2c2.3,0,5.1-0.9,8.3-3.6c8.2-6.8,16.2-13.5,24-20.3c2.1-1.8,3.3-2.3,6-1.5
		c14.3,4.5,29.3-2.6,34.7-16.6c5.4-13.9-0.7-29.2-14.3-35.8c-2.1-1-2.4-1.8-2.4-4.1c0.1-14.6,0.1-29.1,0-42.7c0-4-1.2-7.2-3.3-9.3
		c-1.7-1.7-3.9-2.6-6.5-2.6c-6,0-9.5,4.5-9.6,12l0,6.2c0,11.6-0.1,23.5,0.1,35.3c0,2.7-0.4,3.8-3.2,5.6c-5.2,3.4-9.9,8.3-12.8,13.5
		c-3.9,6.8-3.9,14.9,0.2,23.9l-6.5,5.5c-6.3,5.3-12.5,10.5-18.7,15.8c-5.7,4.8-6.8,10.5-3,15C195.6,338,197.9,340.2,201.4,340.2z
		 M239.1,287.9c0-2.4,0.8-4.6,2.4-6.1c1.6-1.7,3.9-2.6,6.5-2.6c0,0,0,0,0.1,0c5.2,0,8.9,3.5,9,8.6c0.1,4.9-3.9,9-8.8,9
		c-2.2,0-4.5-1-6.3-2.7C240.2,292.4,239.1,290.2,239.1,287.9z"/>
	<path class="st2" d="M358.6,300.7c3,0.6,6,0.8,8.9,0.8c3.2,0,6.3-0.2,8.9-0.5c4.9-0.5,8-4.6,7.5-10.1c-0.5-5-3.8-8.2-8.8-8.6
		c-1.8-0.1-3.5-0.1-5.2-0.1c-0.7,0-1.4,0-2.1,0c-0.7,0-1.5,0-2.3,0c-1.7,0-3.5-0.1-5.3,0c-2.9,0.2-5.4,1.4-7.1,3.3
		c-1.4,1.6-2,3.7-1.7,5.8C351.8,294.6,355,300.1,358.6,300.7z"/>
	<path class="st2" d="M146.9,285.7c-1.6-2-4.2-3.2-7.2-3.4c-1.6-0.1-3.2-0.1-4.7-0.1c-0.7,0-1.4,0-2.1,0h0c-0.7,0-1.4,0-2.1,0
		c-1.7,0-3.5,0-5.2,0c-5.4,0.3-8.9,3.6-9.3,8.8c-0.5,5.6,2.8,9.6,8.2,10.1c2.8,0.3,5.6,0.5,8.4,0.5c2.8,0,5.6-0.2,8.4-0.8
		c3.6-0.7,7-5.6,7.5-9.1C148.9,289.6,148.3,287.4,146.9,285.7z"/>
	<path class="st2" d="M163.5,219l1.3,1.2c2.2,2,4.5,3,6.8,3c2.3,0,4.6-1,6.6-3c4.2-4.2,4.1-9.3-0.1-13.9c-2.6-2.8-5.8-6.1-9.3-9.2
		c-1.2-1.1-2.7-1.8-4.2-2.5c-0.7-0.3-1.4-0.6-2.2-1.1l-1.5-0.8l-1.3,1.1c-0.5,0.5-1.2,0.9-1.9,1.4c-1.8,1.3-3.7,2.6-4.4,4.7
		c-1,3.1-0.4,7.4,1.4,9.8C157.3,213.3,160.5,216.2,163.5,219z"/>
	<path class="st2" d="M337.3,365.4c-0.7-0.6-1.3-1.3-2-1.9c-4.2-4-9.3-4.2-13.4-0.5c-2.1,1.9-3.2,4.2-3.4,6.6
		c-0.1,2.5,0.9,5.1,3,7.4c3,3.3,6.3,6.5,9.7,9.6c1.1,1,2.5,1.7,3.9,2.3c0.6,0.3,1.3,0.6,2,1l1.4,0.8l1.3-1c0.5-0.4,1.2-0.8,1.8-1.2
		c1.8-1.1,3.8-2.4,4.6-4.6c1-2.7,0.9-7.2-1.1-9.9C343,370.7,340.1,368,337.3,365.4z"/>
	<path class="st2" d="M319.7,217c1.1,1.7,2.3,3.7,4.3,4.7c1.2,0.6,2.9,0.9,4.5,0.9c1.9,0,3.9-0.4,5.2-1.5c3.7-2.8,7.3-6.4,11.6-11.3
		c3.5-4.1,3.1-9.3-1-13c-4-3.6-8.9-3.6-13,0c-3.2,2.9-6.4,6.1-10,10.1c-1,1.1-1.5,2.4-2.1,3.7c-0.3,0.6-0.5,1.3-0.9,2l-0.7,1.4
		l0.9,1.2C319,215.8,319.4,216.4,319.7,217z"/>
	<path class="st2" d="M158.2,388.4c0.5,0.3,1,0.6,1.3,0.9l0.9,0.7l1.2-0.2c0.6-0.1,1.1-0.2,1.5-0.2c1-0.1,2-0.3,2.9-1.1
		c1.1-1,2.1-2,3.2-3c3.7-3.4,7.5-7,10.7-11c0.8-1.1,1.1-2.6,0.8-4.6c-0.3-2.2-1.3-5.2-3.2-6.6c-2.6-1.9-8.2-2.5-11.3-0.4
		c-3.9,2.7-7.7,6.5-11.6,11.5c-1.9,2.5-2,7-0.8,9.7C154.6,386.1,156.6,387.3,158.2,388.4z"/>
	<path class="st2" d="M249.3,190.3c0.6,0.1,1.3,0.2,1.9,0.2c1.6,0,3.1-0.5,4.4-1.4c2.1-1.4,3.4-3.7,3.8-6.5c0.3-2.1,0.2-4.2,0.2-6.2
		c0-0.8-0.1-1.7-0.1-2.5c0-0.7,0.1-1.4,0.1-2.3c0.2-2.1,0.4-4.6-0.7-6.6c-1.4-2.8-4.6-6.1-8.1-6.9c-2.4-0.5-4.7-0.1-6.6,1.3
		c-2,1.5-3.3,3.8-3.5,6.5c-0.4,5.8-0.7,11.4,0.2,16.8C241.6,186.1,245.8,189.5,249.3,190.3z"/>
	<path class="st2" d="M255.9,394.6c-1.9-1.4-4.2-1.8-6.6-1.3c-3.5,0.8-6.7,4.2-8.1,6.9c-1.1,2.1-0.9,4.5-0.7,6.6
		c0.1,0.8,0.1,1.6,0.1,2.3c0,0.7-0.1,1.6-0.2,2.4c-0.2,2.2-0.4,4.8,0.6,7c1.3,2.8,4.5,6,8.1,6.9c0.7,0.2,1.4,0.3,2.1,0.3
		c1.6,0,3.2-0.5,4.5-1.4c2-1.4,3.3-3.8,3.5-6.5c0.4-5.4,0.4-11,0-16.6C259.1,398.5,257.9,396.1,255.9,394.6z"/>
</g>
<path class="st5" d="M250,482.2c-1.4-2-2.6-3.6-3.7-5.3c-40.1-61.3-80.1-122.6-120.1-184c-16.6-25.5-28.8-52.8-34.6-82.9
	C76.3,131.4,121,51.2,200.8,25.6C293.4-4,389.4,53.2,408.3,149.1c8.4,42.7-0.4,82.9-21,120.3c-13.6,24.7-29.7,48.1-45.1,71.9
	c-29.3,45.2-58.9,90.3-88.4,135.4C252.7,478.4,251.5,480.1,250,482.2z M249.9,269.4c49.8,0,90.2-40.2,90.4-89.8
	c0.2-49.2-40.4-90-89.1-90.6c-47.5-0.6-91,36.8-91.6,89.9C159.1,228.8,199.9,269.4,249.9,269.4z"/>
<g class="st0">
	<path class="st6" d="M367.9,255.3c-62.4-0.1-112.6,50-112.7,112.3c-0.1,62.3,50,112.7,112.3,112.7c62.3,0.1,112.6-50.1,112.7-112.3
		C480.3,305.6,430.2,255.3,367.9,255.3z M424.1,345c-18.1,24.1-36.2,48.1-54.4,72c-6,7.8-14.2,8.9-22,3.1
		c-14.4-10.7-28.7-21.6-43-32.5c-7.5-5.8-9.1-14.3-4.1-21.1c5.1-7,14-8,21.7-2.3c10.6,7.8,21,15.8,32.1,24.2
		C365.4,374,376,360,386.6,346c4.6-6.1,9.2-12.3,13.9-18.4c5.7-7.3,14.5-8.9,21.2-3.9C428.6,328.8,429.7,337.5,424.1,345z"/>
	<path class="st6" d="M252.4,448.3c-1.3-0.2-2.5-0.2-3.8-0.3c-1.2-0.1-2.3-0.1-3.4-0.2c-4.6-0.6-9.2-1.1-13.7-1.6
		c-10-1-20.3-2.1-30-4.5C104,417.2,40.7,323.3,54.3,223.3c13.2-97.5,98.7-170.8,199-170.8c0.3,0,0.6,0,0.9,0
		c1.1,0.1,2.4,0.2,3.9,0.3c4.2,0.3,9.9,0.6,15.6,1.2c75.9,8,144.1,65.1,165.8,138.7c5.1,17.3,8,36.3,8.7,57.9
		c0.2,5.2,2.1,9.6,5.5,12.7c3.4,3.1,8,4.7,13,4.4c10-0.5,16.9-8.3,16.5-18.6l-0.1-3c-0.4-10-0.8-20.4-2.4-30.6
		c-8.2-53.2-32.5-99.1-72.2-136.4c-32.4-30.5-73.5-50.9-118.9-58.7c-45.6-7.9-91-2.5-131.3,15.8C78.5,72.3,31.8,134.3,19.2,220.7
		c-6.6,45.8,0.6,90.2,21.6,131.9c34,67.4,88.6,109.7,162.4,125.9c12.6,2.8,25.8,3.5,38.5,4.2c2.9,0.2,5.8,0.3,8.8,0.5
		c0.3,0,0.7,0,1,0c3.8,0,7.5-1.4,10.4-4c3.5-3.1,5.6-7.6,5.8-12.4C268.2,457.2,261.7,449.5,252.4,448.3z"/>
	<path class="st6" d="M198.2,252.2c-4.2,0-8.3,0-12.5,0c-11.2,0-22.8,0-34.3,0.2c-8.6,0.1-15.5,6.4-16.7,15.3
		c-1.1,8.3,4.2,16.5,12.1,18.8c3.2,0.9,6.5,0.9,9.4,0.9c17.2,0,34.3,0,51.3,0c13,0,25.9,0,38.5,0c15.6,0,21.7-6.1,21.7-21.9
		c0-55.9,0-111.9,0-167.8l0-0.9c0-1.8,0-3.7-0.2-5.6c-0.6-5.2-3.5-9.8-7.9-12.6c-4.5-2.9-9.9-3.5-14.9-1.9
		c-8.2,2.7-12.2,9-12.2,19.3c0,37.8,0,75.5,0,113.3l0,42.8l-9,0C214.9,252.2,206.6,252.2,198.2,252.2z"/>
</g>
<g class="st0">
	<path class="st7" d="M250.4,14.2C119.7,14,14.3,119,14.2,249.5C14,380.2,119,485.7,249.6,485.8c130.7,0.2,236.1-104.9,236.3-235.5
		C486,119.7,381,14.3,250.4,14.2z M368.2,202.3c-37.8,50.5-75.9,100.8-114.1,150.9c-12.5,16.4-29.7,18.7-46.1,6.4
		c-30.1-22.5-60.2-45.2-90-68.1c-15.8-12.1-19-30-8.5-44.3c10.8-14.7,29.4-16.8,45.6-4.8c22.1,16.4,44,33.2,67.3,50.8
		c22.9-30.2,45.1-59.6,67.4-89c9.7-12.9,19.3-25.9,29.2-38.6c11.9-15.3,30.5-18.6,44.4-8.2C377.6,168.3,380,186.6,368.2,202.3z"/>
</g>
<g>
	<path d="M257.5,287.1c-3.6-1.7-7.1-7.4-7.3-11.5c-0.9-14.6-0.3-29.3-0.3-43.9c0-15,0.1-30,0-44.9c-0.1-12.6-6.8-20.5-16.9-20.5
		c-10.2-0.1-17.1,7.8-17.2,20.2c-0.1,34.9,0,69.9-0.1,104.8c0,10.2,4.4,16.8,13.8,20.9c24.1,10.3,48.1,21,72.1,31.5
		c11.5,5,21.4,2.3,25.6-6.7c4.5-9.7-0.1-19.1-12.2-24.4C295.7,304.2,276.3,296.2,257.5,287.1z"/>
	<path d="M386.4,103.2l-22.8-15.9c-7.8-5.4-18.4-3.5-23.8,4.3s-3.5,18.4,4.3,23.8l22.8,15.9c7.8,5.4,18.4,3.5,23.8-4.3l0,0
		C396,119.3,394.1,108.6,386.4,103.2z"/>
	<path d="M418.2,202.6c3.7,8.7,13.8,12.7,22.5,9l0,0c8.7-3.7,12.7-13.8,9-22.5l-10.9-25.6c-3.7-8.7-13.8-12.7-22.5-9
		c-8.7,3.7-12.7,13.8-9,22.5L418.2,202.6z"/>
	<path d="M449.9,246.8L449.9,246.8c-9.4-0.4-17.4,6.9-17.9,16.3l-1.3,27.8c-0.4,9.4,6.9,17.4,16.3,17.9v0
		c9.4,0.4,17.4-6.9,17.9-16.3l1.3-27.8C466.7,255.2,459.3,247.2,449.9,246.8z"/>
	<path d="M436.6,342.5c-8.4-4.4-18.7-1.2-23.1,7.2l-12.9,24.6c-4.4,8.4-1.2,18.7,7.2,23.1c8.4,4.4,18.7,1.2,23.1-7.2l12.9-24.6
		C448.1,357.3,444.9,346.9,436.6,342.5z"/>
	<path d="M384,437.5c-0.4,0.3-0.7,0.6-1.1,0.8c-0.5,0.4-1,0.9-1.5,1.4c-1.2,1.3-2.6,2.6-4.2,3.7c-18.2,13.2-37.7,23.1-58.4,30.1
		c-0.3,0.1-0.5,0.2-0.8,0.3c-2.9,0.9-5.7,1.8-8.6,2.6c-53.3,14.8-110.4,2.1-110.4,2.1C104.2,456,33.8,370.6,33.8,268.8
		c0-108.4,79.9-198,183.9-213.4l0,0c0,0,0.1,0,0.4,0c7.1-1,14.3-1.7,21.6-2c6-0.5,12.5-1,18.4-1.3c-0.4-0.7-0.9-1.4-1.4-2.1
		c-9.3-10.6-10.3-20.2-2.8-28.1c8-8.2,18.4-7.4,29,2.5c10.7,10,21.5,20,31.9,30.3c10.8,10.6,10.5,21.6-0.6,32
		c-11.2,10.5-22.4,20.9-33.9,31c-7.7,6.8-16.4,7.7-24.4,0.6c-7.3-6.5-9.2-15.1-3.3-23.3c5.1-7.1,1-6.3-4-6.4
		c-84.1-1-161.3,63.2-176.5,146.7c-15.2,83,25.7,159.8,93.1,195.5c1,0.6,2.1,1.1,3.1,1.6c24.5,12.2,52,19,81.2,19
		c42.6,0,81.9-14.6,112.9-39.1c4.3-3.4,10.4-3,14.2,0.8l8.3,8.3C389.5,426.1,389,433.5,384,437.5z"/>
</g>
</svg>
