
<svg x="0px" y="0px"
	 viewBox="0 0 500 500"  xml:space="preserve">
<g>
	<path d="M367.9,255.3c-62.4-0.1-112.6,50-112.7,112.3c-0.1,62.3,50,112.7,112.3,112.7c62.3,0.1,112.6-50.1,112.7-112.3
		C480.3,305.6,430.2,255.3,367.9,255.3z M424.1,345c-18.1,24.1-36.2,48.1-54.4,72c-6,7.8-14.2,8.9-22,3.1
		c-14.4-10.7-28.7-21.6-43-32.5c-7.5-5.8-9.1-14.3-4.1-21.1c5.1-7,14-8,21.7-2.3c10.6,7.8,21,15.8,32.1,24.2
		C365.4,374,376,360,386.6,346c4.6-6.1,9.2-12.3,13.9-18.4c5.7-7.3,14.5-8.9,21.2-3.9C428.6,328.8,429.7,337.5,424.1,345z"/>
	<path d="M252.4,448.3c-1.3-0.2-2.5-0.2-3.8-0.3c-1.2-0.1-2.3-0.1-3.4-0.2c-4.6-0.6-9.2-1.1-13.7-1.6
		c-10-1-20.3-2.1-30-4.5C104,417.2,40.7,323.3,54.3,223.3c13.2-97.5,98.7-170.8,199-170.8c0.3,0,0.6,0,0.9,0
		c1.1,0.1,2.4,0.2,3.9,0.3c4.2,0.3,9.9,0.6,15.6,1.2c75.9,8,144.1,65.1,165.8,138.7c5.1,17.3,8,36.3,8.7,57.9
		c0.2,5.2,2.1,9.6,5.5,12.7c3.4,3.1,8,4.7,13,4.4c10-0.5,16.9-8.3,16.5-18.6l-0.1-3c-0.4-10-0.8-20.4-2.4-30.6
		c-8.2-53.2-32.5-99.1-72.2-136.4c-32.4-30.5-73.5-50.9-118.9-58.7c-45.6-7.9-91-2.5-131.3,15.8C78.5,72.3,31.8,134.3,19.2,220.7
		c-6.6,45.8,0.6,90.2,21.6,131.9c34,67.4,88.6,109.7,162.4,125.9c12.6,2.8,25.8,3.5,38.5,4.2c2.9,0.2,5.8,0.3,8.8,0.5
		c0.3,0,0.7,0,1,0c3.8,0,7.5-1.4,10.4-4c3.5-3.1,5.6-7.6,5.8-12.4C268.2,457.2,261.7,449.5,252.4,448.3z"/>
	<path d="M198.2,252.2c-4.2,0-8.3,0-12.5,0c-11.2,0-22.8,0-34.3,0.2c-8.6,0.1-15.5,6.4-16.7,15.3
		c-1.1,8.3,4.2,16.5,12.1,18.8c3.2,0.9,6.5,0.9,9.4,0.9c17.2,0,34.3,0,51.3,0c13,0,25.9,0,38.5,0c15.6,0,21.7-6.1,21.7-21.9
		c0-55.9,0-111.9,0-167.8l0-0.9c0-1.8,0-3.7-0.2-5.6c-0.6-5.2-3.5-9.8-7.9-12.6c-4.5-2.9-9.9-3.5-14.9-1.9
		c-8.2,2.7-12.2,9-12.2,19.3c0,37.8,0,75.5,0,113.3l0,42.8l-9,0C214.9,252.2,206.6,252.2,198.2,252.2z"/>
</g>
</svg>
