<svg x="0px" y="0px"
	 viewBox="0 0 500 500" xml:space="preserve">
<g>
	<path d="M428.2,62.9c-4.2,0-8.4,0-12.7,0l-2,0l0-3.4c0-4.7,0-9.1,0-13.6c0-9.3-3-17.4-8.5-22.9
		c-4.9-4.9-11.3-7.5-18.6-7.5c-22.7,0-45.4,0-68.2,0l-36.4,0c-38.8,0-79,0-118.4,0c-5.8,0-10.4,2.5-13.6,7.4c-0.6,1-1.3,1.9-2.1,2.8
		l-20.2,24.1c-24.8,29.6-50.5,60.2-75.8,90.2c-4.6,5.5-6.8,11.5-6.8,19l0,25.1c0.1,72.8,0.2,148.1-0.1,222.2
		c0,9.5,3.7,18.6,9.9,24.4c5.2,4.8,11.5,7.1,18.4,6.6c3.7-0.3,7.5-0.2,11.6-0.1c0.6,0,1.3,0,1.9,0c0,1.1,0,2.1,0,3.1
		c0,4.5,0,8.9,0,13.3c0,9.7,2.9,17.8,8.5,23.4c4.9,4.9,11.5,7.5,19.1,7.5c0,0,0,0,0,0l318-0.3c12.6,0,22.8-11.3,22.8-25.2V92.8
		C455.1,75,444.3,62.9,428.2,62.9z M116.8,437.2h269.4c16,0,27.3-12.4,27.3-30.1c0.1-44.2,0.1-89.2,0-132.7l0-47
		c0-43.9,0-87.7,0-131.6h11.4v355.6H116.8C116.8,446.8,116.8,442.1,116.8,437.2z M147.6,137.9c-0.1,0-0.1,0-0.2,0
		c-9.4-0.1-18.9-0.1-28.2-0.1c-4.5,0-9,0-13.4,0c-3.9,0-7.7,0-11.6,0c17.9-21.4,35.5-42.4,53.3-63.7c0,4.6,0,9.1,0,13.7
		c0,16.1,0,32.8,0.1,49.2C147.7,137.5,147.7,137.7,147.6,137.9z M74.9,404.4c0.1-20.3,0.1-41,0.1-61l0-170.3c0-0.8,0-1.7,0-2.4
		c0.5,0,1.1,0,1.6,0l23.6,0c19.8,0,39.6,0,59.4,0c12.4,0,18-6.1,18-19.8c0-25.3,0-50.6,0-75.8l0-26.4h205.5v355.9l-294.4,0
		c-1.3,0-2.6,0-3.9,0c-3.2,0-6.6-0.1-10,0.1C74.9,404.5,74.9,404.4,74.9,404.4z"/>
	<path d="M305.6,312.1c-26.4-0.1-53.3-0.1-79.3-0.1l-9.9,0c-7.3,0-14.7,0-22,0c-11.4,0-22.8,0-34.2,0c0,0,0,0,0,0
		c-5.4,0-9.4,1.8-12.3,5.5c-4,5.3-4.9,11.4-2.5,17.3c2.6,6.4,7.9,10,14.8,10c0,0,0,0,0,0c17.7,0,35.5,0,53.2,0l59.9,0
		c3.2,0,6.4,0,9.5,0c3.1,0,6.2,0,9.3,0c4.7,0,9.5,0,14.2-0.1c4.6-0.1,8.7-1.8,11.5-5.1c3.1-3.5,4.5-8.3,3.9-13.6
		C320.9,317.5,314.7,312.2,305.6,312.1z"/>
	<path d="M161.3,261.7c0,0,0.1,0,0.1,0c16.4,0,32.8,0,49.1,0c31.4,0,62.7,0,94.1-0.1c2.5,0,5-0.4,7.3-1.1
		c5.5-1.8,9.5-7.3,10-13.8c0.4-5.2-1-9.7-4-12.9c-3.1-3.3-7.6-5-13.2-5l-74.8,0c-12.6,0-25.3,0-37.9,0c-3,0-6.1,0-9.1,0
		c-7.6,0-15.5,0-23.2,0.1c-5.6,0.1-10.6,3-13.4,7.8c-3,5.1-3,11.5,0,17C150.6,261.6,158.5,261.7,161.3,261.7z"/>
	<path d="M229.4,177.4c2.5,0.8,5.1,1,7.3,1c13.2,0,25.7,0,37.6,0c10.8,0,21.2,0,31.2,0c2.7,0,5.2-0.5,7.2-1.4
		c6.7-2.9,10.3-10.2,9-18.2c-1.2-7.4-7.5-13-14.6-13.1c-8.6-0.1-17.3-0.1-25.7,0c-3.3,0-6.7,0-10,0c-3.7,0-7.4,0-11.1,0
		c-8.6,0-17.6,0-26.4,0c-7.7,0.1-13.6,5.9-14.7,14.4C218.3,167.6,222.7,175.2,229.4,177.4z"/>
</g>
</svg>
