<svg x="0px" y="0px"
	 viewBox="0 0 500 500" xml:space="preserve">

<g>
	<path d="M385.5,147.3l8.6-10.1c1.1,0.9,2.2,1.9,3.3,2.8c3.9,3.3,7.6,6.4,11.5,9.6c5.8,4.8,10.8,4.4,15.6-1.1
		c5.5-6.3,11-12.8,16.4-19.4c4.5-5.5,4-10.7-1.2-15.2c-14.2-12.1-29-24.5-45.2-37.9c-5.3-4.4-10.6-4-15.2,1.3
		c-5.5,6.3-10.9,12.7-15.7,18.5c-5.7,6.8-5.3,11.5,1.5,17.2c3.6,3.1,7.3,6.1,10.9,9.2l3.1,2.6l-8.6,10.2
		c-27.1-20.6-58-33.6-91.9-38.9V82.2c1.7,0,3.3,0,5,0c5.6,0,11,0,16.4,0c9.4-0.1,12.5-3.1,12.5-12.5c0.1-13.9,0.1-29.2,0-46.6
		c0-9.8-3-12.8-12.7-12.8c-33.1,0-66.3,0-99.4,0c-10,0-12.9,3-12.9,13.2c0,15.6,0,30.9,0,45.5c0,10.3,2.9,13.2,13.5,13.2
		c5.3,0,10.5,0,15.8,0l4.7,0v13.7c-44.4,7-83.9,27.3-114.3,59c-29.8,31-48.9,71.7-53.7,114.6c-4.9,43,4.1,85.4,26,122.6
		c21.8,37.1,54.3,65.5,94.1,82.2c24.4,10.2,50.2,15.4,76.1,15.4c16,0,32-2,47.9-5.9c41.7-10.3,78-33.2,105-66.2
		c28.1-34.4,43.3-73.6,45-116.7C450,241.8,429.1,190.1,385.5,147.3z M292.8,30.1v32.5h-85.8V30.1H292.8z M383.2,102.6l5.3-6.4
		l32,26.9l-5.4,6.4L383.2,102.6z M241.5,93.8V83h17.1v10.8H241.5z M250.1,113.3c0.2,0,0.5,0,0.7,0c47.6,0.2,92.4,19,126,52.9
		c33.6,33.9,52,78.8,51.7,126.5c-0.5,98.1-80.4,177.7-178.1,177.7c-0.2,0-0.4,0-0.6,0c-47.9-0.1-92.8-18.8-126.4-52.7
		c-33.6-33.8-52-78.8-51.8-126.6c0.2-47.7,18.9-92.4,52.8-126C158.1,131.6,202.7,113.3,250.1,113.3z"/>
	<path d="M248.7,457.8c0.4,0,0.9,0,1.3,0c43.8,0,85-16.9,116.2-47.7c31.8-31.4,49.5-73.5,49.8-118.4
		c0.3-44-16.8-85.4-48.1-116.7c-31.3-31.2-73-48.7-117.6-49c-43.9-0.3-85.4,16.6-116.8,47.8c-31.4,31.2-48.9,72.7-49.3,117
		C83.5,382.2,157.3,457.1,248.7,457.8z M103.4,291.6c0-80.6,65.7-146.2,146.5-146.3c0.1,0,0.1,0,0.2,0c39.2,0,76,15.3,103.7,43
		c27.7,27.7,42.9,64.5,42.8,103.6c-0.2,80.7-65.9,146.4-146.5,146.5c0,0-0.1,0-0.1,0c-39.1,0-75.8-15.3-103.6-43
		C118.7,367.6,103.4,330.8,103.4,291.6z"/>
	<path d="M201.4,340.2c2.3,0,5.1-0.9,8.3-3.6c8.2-6.8,16.2-13.5,24-20.3c2.1-1.8,3.3-2.3,6-1.5
		c14.3,4.5,29.3-2.6,34.7-16.6c5.4-13.9-0.7-29.2-14.3-35.8c-2.1-1-2.4-1.8-2.4-4.1c0.1-14.6,0.1-29.1,0-42.7c0-4-1.2-7.2-3.3-9.3
		c-1.7-1.7-3.9-2.6-6.5-2.6c-6,0-9.5,4.5-9.6,12l0,6.2c0,11.6-0.1,23.5,0.1,35.3c0,2.7-0.4,3.8-3.2,5.6c-5.2,3.4-9.9,8.3-12.8,13.5
		c-3.9,6.8-3.9,14.9,0.2,23.9l-6.5,5.5c-6.3,5.3-12.5,10.5-18.7,15.8c-5.7,4.8-6.8,10.5-3,15C195.6,338,197.9,340.2,201.4,340.2z
		 M239.1,287.9c0-2.4,0.8-4.6,2.4-6.1c1.6-1.7,3.9-2.6,6.5-2.6c0,0,0,0,0.1,0c5.2,0,8.9,3.5,9,8.6c0.1,4.9-3.9,9-8.8,9
		c-2.2,0-4.5-1-6.3-2.7C240.2,292.4,239.1,290.2,239.1,287.9z"/>
	<path d="M358.6,300.7c3,0.6,6,0.8,8.9,0.8c3.2,0,6.3-0.2,8.9-0.5c4.9-0.5,8-4.6,7.5-10.1c-0.5-5-3.8-8.2-8.8-8.6
		c-1.8-0.1-3.5-0.1-5.2-0.1c-0.7,0-1.4,0-2.1,0c-0.7,0-1.5,0-2.3,0c-1.7,0-3.5-0.1-5.3,0c-2.9,0.2-5.4,1.4-7.1,3.3
		c-1.4,1.6-2,3.7-1.7,5.8C351.8,294.6,355,300.1,358.6,300.7z"/>
	<path d="M146.9,285.7c-1.6-2-4.2-3.2-7.2-3.4c-1.6-0.1-3.2-0.1-4.7-0.1c-0.7,0-1.4,0-2.1,0h0c-0.7,0-1.4,0-2.1,0
		c-1.7,0-3.5,0-5.2,0c-5.4,0.3-8.9,3.6-9.3,8.8c-0.5,5.6,2.8,9.6,8.2,10.1c2.8,0.3,5.6,0.5,8.4,0.5c2.8,0,5.6-0.2,8.4-0.8
		c3.6-0.7,7-5.6,7.5-9.1C148.9,289.6,148.3,287.4,146.9,285.7z"/>
	<path d="M163.5,219l1.3,1.2c2.2,2,4.5,3,6.8,3c2.3,0,4.6-1,6.6-3c4.2-4.2,4.1-9.3-0.1-13.9c-2.6-2.8-5.8-6.1-9.3-9.2
		c-1.2-1.1-2.7-1.8-4.2-2.5c-0.7-0.3-1.4-0.6-2.2-1.1l-1.5-0.8l-1.3,1.1c-0.5,0.5-1.2,0.9-1.9,1.4c-1.8,1.3-3.7,2.6-4.4,4.7
		c-1,3.1-0.4,7.4,1.4,9.8C157.3,213.3,160.5,216.2,163.5,219z"/>
	<path d="M337.3,365.4c-0.7-0.6-1.3-1.3-2-1.9c-4.2-4-9.3-4.2-13.4-0.5c-2.1,1.9-3.2,4.2-3.4,6.6
		c-0.1,2.5,0.9,5.1,3,7.4c3,3.3,6.3,6.5,9.7,9.6c1.1,1,2.5,1.7,3.9,2.3c0.6,0.3,1.3,0.6,2,1l1.4,0.8l1.3-1c0.5-0.4,1.2-0.8,1.8-1.2
		c1.8-1.1,3.8-2.4,4.6-4.6c1-2.7,0.9-7.2-1.1-9.9C343,370.7,340.1,368,337.3,365.4z"/>
	<path d="M319.7,217c1.1,1.7,2.3,3.7,4.3,4.7c1.2,0.6,2.9,0.9,4.5,0.9c1.9,0,3.9-0.4,5.2-1.5c3.7-2.8,7.3-6.4,11.6-11.3
		c3.5-4.1,3.1-9.3-1-13c-4-3.6-8.9-3.6-13,0c-3.2,2.9-6.4,6.1-10,10.1c-1,1.1-1.5,2.4-2.1,3.7c-0.3,0.6-0.5,1.3-0.9,2l-0.7,1.4
		l0.9,1.2C319,215.8,319.4,216.4,319.7,217z"/>
	<path d="M158.2,388.4c0.5,0.3,1,0.6,1.3,0.9l0.9,0.7l1.2-0.2c0.6-0.1,1.1-0.2,1.5-0.2c1-0.1,2-0.3,2.9-1.1
		c1.1-1,2.1-2,3.2-3c3.7-3.4,7.5-7,10.7-11c0.8-1.1,1.1-2.6,0.8-4.6c-0.3-2.2-1.3-5.2-3.2-6.6c-2.6-1.9-8.2-2.5-11.3-0.4
		c-3.9,2.7-7.7,6.5-11.6,11.5c-1.9,2.5-2,7-0.8,9.7C154.6,386.1,156.6,387.3,158.2,388.4z"/>
	<path d="M249.3,190.3c0.6,0.1,1.3,0.2,1.9,0.2c1.6,0,3.1-0.5,4.4-1.4c2.1-1.4,3.4-3.7,3.8-6.5c0.3-2.1,0.2-4.2,0.2-6.2
		c0-0.8-0.1-1.7-0.1-2.5c0-0.7,0.1-1.4,0.1-2.3c0.2-2.1,0.4-4.6-0.7-6.6c-1.4-2.8-4.6-6.1-8.1-6.9c-2.4-0.5-4.7-0.1-6.6,1.3
		c-2,1.5-3.3,3.8-3.5,6.5c-0.4,5.8-0.7,11.4,0.2,16.8C241.6,186.1,245.8,189.5,249.3,190.3z"/>
	<path d="M255.9,394.6c-1.9-1.4-4.2-1.8-6.6-1.3c-3.5,0.8-6.7,4.2-8.1,6.9c-1.1,2.1-0.9,4.5-0.7,6.6
		c0.1,0.8,0.1,1.6,0.1,2.3c0,0.7-0.1,1.6-0.2,2.4c-0.2,2.2-0.4,4.8,0.6,7c1.3,2.8,4.5,6,8.1,6.9c0.7,0.2,1.4,0.3,2.1,0.3
		c1.6,0,3.2-0.5,4.5-1.4c2-1.4,3.3-3.8,3.5-6.5c0.4-5.4,0.4-11,0-16.6C259.1,398.5,257.9,396.1,255.9,394.6z"/>
</g>
</svg>
