<svg x="0px" y="0px"
	 viewBox="0 0 90 90" xml:space="preserve">
<g>
	<path d="M89.1,32.2c-1.1,0.3-2.1,0.5-3.2,0.8c-0.3,0.1-0.6,0.4-0.7,0.7c-0.5,1.2-1,2.4-1.5,3.6c-0.1,0.3-0.1,0.8,0,1.1
		c0.5,0.9,1.1,1.8,1.6,2.7c-2.6,2.5-5.1,5.1-7.6,7.6c-0.8-0.5-1.7-1.1-2.6-1.6c-0.3-0.2-0.8-0.2-1.1-0.1c-1.2,0.4-2.4,0.9-3.6,1.5
		c-0.3,0.1-0.6,0.5-0.7,0.8c-0.3,0.8-0.5,1.6-0.6,2.5c-0.1,0.5-0.3,0.6-0.8,0.6c-3.2,0-6.4,0-9.6,0c-0.2,0-0.6-0.3-0.7-0.5
		c-0.3-1-0.3-2.3-0.9-3c-0.6-0.7-1.9-0.7-2.8-1.2c-1.4-1-2.6-0.7-3.8,0.3c-0.4,0.3-0.8,0.5-1.2,0.7c-2.6-2.6-5.1-5.1-7.6-7.6
		c0.5-0.8,1.1-1.7,1.6-2.6c0.1-0.3,0.2-0.7,0-1c-0.5-1.2-1-2.5-1.5-3.7c-0.1-0.3-0.4-0.6-0.7-0.6c-1-0.3-2-0.5-3.1-0.7
		c-0.2,0-0.6,0.1-0.7,0.3c-0.5,0.9-0.9,1.8-1.4,2.8c1.7,0.5,2.9,1.5,3.3,3.3c0.4,1.7-0.2,3.1-1.6,4.4c1.4,1.4,2.9,2.8,4.3,4.3
		c2,2,3.7,4.2,4.9,6.8c6.6,13.8-0.5,30.8-16.3,34.6c-1.1,0.3-2.3,0.4-3.4,0.6c-1.3,0-2.6,0-3.9,0c-0.4-0.1-0.9-0.1-1.3-0.2
		c-10.2-1.8-16.9-7.6-20-17.5c-0.5-1.4-0.6-3-0.9-4.5c0-1.5,0-3,0-4.4c0.1-0.2,0.1-0.4,0.2-0.7c0.4-3.7,1.5-7.2,3.7-10.3
		c1.4-2,3.1-3.8,4.8-5.7c0.9-1,2-2,3-3c-1.3-1.3-2-2.6-1.6-4.4c0.4-1.7,1.6-2.7,3.3-3.3c-1.4-2.7-2.8-5.4-4-8.1
		c-0.5-1-0.7-2.2-0.8-3.4c-0.1-2.3,1.5-4.4,3.6-5.3c2.2-0.8,3.8-0.4,5.6,1.6c1.1,1.2,1.5,1.2,2.7,0c0.7-0.7,1.5-1.4,2.4-1.7
		c2-0.7,3.5,0.2,4.8,1.7c1.1,1.3,1.5,1.2,2.7,0c0.7-0.7,1.5-1.5,2.5-1.8c2.2-0.7,4,0.2,5.5,1.9c0.2,0.2,0.6,0.5,0.9,0.5
		c0.6-0.1,1.3,0,1.5-0.9c0.4-1.2,0.9-2.4,1.4-3.5c0.2-0.5,0.2-0.8,0-1.2c-0.6-0.9-1.1-1.8-1.6-2.6c2.6-2.6,5.1-5.1,7.6-7.6
		c0.9,0.5,1.8,1.1,2.7,1.7c0.2,0.1,0.7,0.1,0.9,0c1.2-0.5,2.5-1,3.7-1.5c0.3-0.1,0.6-0.4,0.7-0.7c0.3-1,0.6-2.1,0.8-3.1
		c3.5,0,7.1,0,10.6,0c0.3,1.1,0.5,2.1,0.8,3.1c0.1,0.3,0.4,0.6,0.7,0.7c1.2,0.6,2.4,1.1,3.7,1.5c0.3,0.1,0.7,0.1,1-0.1
		c0.9-0.5,1.8-1.1,2.7-1.6c2.6,2.6,5.1,5.1,7.6,7.6c-0.5,0.8-1,1.7-1.6,2.6c-0.3,0.4-0.3,0.7-0.1,1.2c0.5,1.1,1,2.3,1.5,3.5
		c0.2,0.5,0.4,0.7,0.9,0.8c1,0.2,2,0.5,3.1,0.8C89.1,25.1,89.1,28.7,89.1,32.2z M46.6,64.9c0-5.2-1.5-9.9-4.9-13.8
		c-2.1-2.4-4.5-4.7-6.8-7c-0.2-0.2-0.6-0.2-0.9-0.2c-5.8,0-11.6,0-17.4,0c-0.4,0-0.8,0.2-1.1,0.5c-1.6,1.6-3.2,3.2-4.8,4.8
		c-5.5,5.5-7.5,12-6.3,19.6C6.3,80.5,18,88.5,29.5,86.1C39.7,83.9,46.6,75.3,46.6,64.9z M39.1,29.6c1.6,0.4,3,0.7,4.4,1.1
		c0.3,0.1,0.7,0.4,0.8,0.7c0.6,2.1,1.4,4.1,2.5,6c0.3,0.4,0.2,0.7,0,1.1c-0.5,0.7-0.9,1.5-1.3,2.1c1.5,1.5,3,3,4.5,4.5
		c0.6-0.4,1.3-0.8,2-1.3c0.4-0.3,0.8-0.3,1.3,0c1.9,0.9,3.9,1.7,5.8,2.4c0.5,0.2,0.7,0.4,0.8,0.9c0.2,0.8,0.4,1.7,0.6,2.5
		c2.1,0,4.2,0,6.3,0c0.2-0.9,0.4-1.7,0.6-2.6c0.1-0.3,0.4-0.7,0.7-0.7c2.1-0.5,4.1-1.3,6-2.5c0.4-0.3,0.7-0.2,1.1,0
		c0.7,0.5,1.5,0.9,2.1,1.3c1.5-1.5,3-3,4.5-4.5c-0.4-0.7-0.8-1.4-1.3-2.1c-0.3-0.4-0.3-0.7,0-1.1c1.2-1.9,2-3.9,2.5-6
		c0.1-0.3,0.4-0.6,0.7-0.7c0.8-0.3,1.7-0.4,2.6-0.6c0-2.1,0-4.2,0-6.3c-0.9-0.2-1.7-0.4-2.6-0.6c-0.3-0.1-0.7-0.4-0.7-0.7
		c-0.5-2.1-1.3-4.1-2.5-6c-0.3-0.4-0.2-0.7,0-1.1c0.5-0.7,0.9-1.5,1.3-2.1c-1.5-1.5-3-3-4.5-4.5c-0.7,0.4-1.4,0.8-2.1,1.3
		c-0.4,0.3-0.7,0.3-1.1,0c-1.9-1.2-3.9-2-6-2.5c-0.3-0.1-0.6-0.4-0.7-0.7C67.1,6,67,5.1,66.8,4.3c-2.1,0-4.2,0-6.3,0
		c-0.2,0.9-0.4,1.7-0.6,2.5c-0.1,0.3-0.4,0.7-0.7,0.7c-2.1,0.5-4.1,1.3-6,2.5c-0.4,0.3-0.7,0.2-1.1,0c-0.7-0.5-1.5-0.9-2.1-1.3
		c-1.5,1.5-3,3-4.5,4.5c0.4,0.6,0.8,1.4,1.3,2.1c0.3,0.4,0.2,0.7,0,1.2c-0.9,1.9-1.7,3.9-2.4,5.8c-0.2,0.5-0.4,0.7-0.9,0.8
		c-0.8,0.2-1.6,0.4-2.6,0.6C41.2,26,39.9,27.7,39.1,29.6z M22.4,26.5c0.1,0.2,0.1,0.3,0.1,0.4c0.8,2.6,1.5,5.3,2.3,7.9
		c0.1,0.2,0.3,0.4,0.5,0.6c0.2-0.2,0.4-0.4,0.5-0.6c0.2-0.6,0.4-1.3,0.6-1.9c0.6-2.1,1.2-4.2,1.8-6.4c0.9,0.3,1.8,0.5,2.7,0.8
		c-0.8,2.7-1.5,5.4-2.3,8.1c1.3,0,2.5,0,3.7,0c0.3,0,0.8-0.3,0.9-0.6c1.5-2.9,3-5.9,4.4-8.8c0.3-0.6,0.4-1.4,0.4-2.1
		c-0.1-1.2-0.8-2-1.9-2.4c-1.1-0.5-1.8,0.1-2.4,0.9c-0.1,0.2-0.3,0.3-0.4,0.5c-1.8,1.8-4.3,1.8-6.1,0c-0.3-0.3-0.6-0.7-0.9-1
		c-0.8-0.8-1.3-0.8-2.1,0c-0.4,0.4-0.7,0.8-1,1.1c-1.3,1.1-2.7,1.6-4.3,0.8c-0.9-0.4-1.6-1.2-2.3-1.9c-0.7-0.7-1.3-0.8-2.2-0.5
		c-1.6,0.6-2.4,2.5-1.6,4.3c1.5,3.1,3.1,6.2,4.6,9.2c0.1,0.2,0.4,0.4,0.6,0.5c1.3,0,2.5,0,3.9,0c-0.8-2.7-1.5-5.4-2.3-8.1
		C20.6,27.1,21.5,26.8,22.4,26.5z M25.2,41.1c1.3,0,2.6,0,3.9,0c1.8,0,3.6,0,5.4,0c1.5,0,2.1-0.4,2.1-1.4c0-1-0.7-1.4-2.2-1.4
		c-6.1,0-12.3,0-18.4,0c-0.2,0-0.5,0-0.7,0c-0.8,0.1-1.4,0.7-1.4,1.4c0,0.7,0.6,1.3,1.3,1.4c0.2,0,0.5,0,0.7,0
		C19.1,41.1,22.2,41.1,25.2,41.1z"/>
	<path d="M19.7,69.5c0.9,0,1.8,0,2.7,0c0.1,0.4,0.3,0.9,0.5,1.3c0.4,0.9,1.2,1.4,2.2,1.5c1,0.1,2.1,0,3.2,0c0-1.1,0.1-2.2,0-3.2
		c-0.1-1.3-1.3-2.4-2.6-2.4c-3.2,0-6-2.6-5.8-6.3c0.1-1.6,0-3.3,0-5.1c1.4,0,2.8,0,4.2,0c0-1,0-1.9,0-2.8c1,0,1.8,0,2.8,0
		c0,0.8,0,1.5,0,2.3c0,0.5,0.1,0.8,0.7,0.9c2.2,0.8,3.6,2.9,3.6,5.2c-0.9,0-1.8,0-2.7,0c-0.7-2.2-1.4-2.8-3.8-2.8
		c-0.6,0-1.2,0-1.9,0c0,1.2-0.1,2.3,0,3.4c0.2,1.3,1.4,2.2,2.7,2.2c3.4,0.2,5.7,2.5,5.7,5.9c0,1.8,0,3.5,0,5.4c-1.4,0-2.8,0-4.2,0
		c0,1,0,1.9,0,2.8c-1,0-1.9,0-2.9,0c0-0.8,0-1.5,0-2.3c0-0.5-0.1-0.7-0.6-0.9C21,73.8,19.6,71.7,19.7,69.5z"/>
	<path d="M42.7,71.3c-2.4,7.3-9.8,12.4-17.3,12.3c0-0.9,0-1.8,0-2.8c2.2-0.1,4.3-0.5,6.3-1.4c3.7-1.7,6.4-4.4,8-8.2
		c0.3-0.6,0.6-0.8,1.2-0.5C41.4,71,42,71.1,42.7,71.3z"/>
	<path d="M10.5,60c-1-0.3-1.8-0.6-2.7-0.8c1.6-5.9,6.5-9.1,10.4-13.4c0.4,0.4,0.7,0.7,1,1c0.3,0.3,0.7,0.6,1,0.9
		C16.8,51.7,12.1,54.5,10.5,60z"/>
	<path d="M7,62.2c1,0.1,1.9,0.3,2.8,0.4c0,0.9-0.1,1.7-0.1,2.6c-0.9,0-1.8,0-2.8,0C6.9,64.2,7,63.2,7,62.2z"/>
	<path d="M41,65.3c0.9,0,1.8,0,2.8,0c-0.1,1-0.1,1.9-0.2,3c-0.9-0.1-1.8-0.3-2.8-0.4C40.8,67,40.9,66.1,41,65.3z"/>
	<path d="M46.6,26.9c0-9.4,7.6-17,17-17c9.4,0,17,7.6,17,17.1c0,9.3-7.7,17-17,17C54.2,43.9,46.6,36.3,46.6,26.9z M77.8,26.9
		c0-7.8-6.4-14.2-14.2-14.2c-7.8,0-14.2,6.4-14.2,14.2c0,7.8,6.4,14.2,14.2,14.2C71.4,41.1,77.8,34.7,77.8,26.9z"/>
	<path d="M54.3,30.6c0.6-0.5,1.2-1.1,1.9-1.8c1.5,1.5,2.9,3.1,4.5,4.6c4-4,7.9-7.9,11.9-11.9c0.7,0.7,1.3,1.4,1.8,1.9
		c-4.5,4.5-9.1,9.1-13.6,13.6C58.7,35.1,56.5,32.9,54.3,30.6z"/>
</g>
</svg>
