<svg x="0px" y="0px"
	 viewBox="0 0 90 90" xml:space="preserve">
<path class="st2" d="M-145.7-134.3"/>
<g>
	<path d="M82,3.8H45.5c-2.8,0-5.2,1.5-6.5,3.8l-16.2,5c-3,0.9-5,3.5-5.2,6.5L3.7,28.8c-3.4,2.4-4.2,7-1.8,10.4l30.9,43.9
		c1.1,1.6,2.9,2.7,4.8,3c0.4,0.1,0.9,0.1,1.3,0.1c1.5,0,3-0.5,4.3-1.4l17.3-12.2l1-0.3H82c4.1,0,7.5-3.3,7.5-7.5V11.2
		C89.4,7.1,86.1,3.8,82,3.8z M24,16.1L38,11.8v53.1c0,4.1,3.3,7.5,7.5,7.5h3.3l-6.9,2.1c-0.9,0.3-1.9,0.2-2.8-0.3
		c-0.9-0.5-1.5-1.2-1.8-2.2L21.5,20.7c-0.1-0.3-0.1-0.5-0.2-0.8C21.2,18.2,22.3,16.6,24,16.1z M41.1,81.8c-0.8,0.6-1.8,0.8-2.7,0.6
		c-1-0.2-1.8-0.7-2.4-1.5L5,37c-1.2-1.7-0.8-4,0.9-5.1l12.4-8.8l15.3,50c0.6,1.9,1.9,3.5,3.6,4.4c1.1,0.6,2.3,0.9,3.5,0.9
		c0.7,0,1.5-0.1,2.2-0.3l6-1.8L41.1,81.8z M85.7,64.9c0,2-1.7,3.7-3.7,3.7H45.5c-2,0-3.7-1.7-3.7-3.7V11.2c0-2,1.7-3.7,3.7-3.7H82
		c2,0,3.7,1.7,3.7,3.7V64.9z"/>
	<path d="M81.5,17.1H46.1c-0.8,0-1.4,0.6-1.4,1.4s0.6,1.4,1.4,1.4h35.4c0.8,0,1.4-0.6,1.4-1.4S82.3,17.1,81.5,17.1z"/>
	<path d="M81.5,25.3H46.1c-0.8,0-1.4,0.6-1.4,1.4s0.6,1.4,1.4,1.4h35.4c0.8,0,1.4-0.6,1.4-1.4S82.3,25.3,81.5,25.3z"/>
	<path d="M46,35.9h35.4c0.8,0,1.4-0.6,1.4-1.4c0-0.8-0.6-1.4-1.4-1.4H46c-0.8,0-1.4,0.6-1.4,1.4C44.6,35.2,45.2,35.9,46,35.9z"/>
	<path d="M46,43.6h35.4c0.8,0,1.4-0.6,1.4-1.4c0-0.8-0.6-1.4-1.4-1.4H46c-0.8,0-1.4,0.6-1.4,1.4C44.6,42.9,45.2,43.6,46,43.6z"/>
	<path d="M81.5,48.9H46.1c-0.8,0-1.4,0.6-1.4,1.4c0,0.8,0.6,1.4,1.4,1.4h35.4c0.8,0,1.4-0.6,1.4-1.4C82.9,49.6,82.3,48.9,81.5,48.9z
		"/>
	<path d="M67.4,57.6H46.1c-0.8,0-1.4,0.6-1.4,1.4c0,0.8,0.6,1.4,1.4,1.4h21.3c0.8,0,1.4-0.6,1.4-1.4C68.8,58.2,68.2,57.6,67.4,57.6z
		"/>
</g>
</svg>
