<svg x="0px" y="0px"
	 viewBox="0 0 500 500" xml:space="preserve">

<g>
	<path d="M249.7,459.9c-60.6,0-121.1,0-181.7,0c-26.5,0-48.8-15.5-56.9-39.8c-2-6.1-3.2-12.9-3.2-19.3
		C7.7,321.9,7.7,243,7.8,164c0.1-33.4,26-59.2,59.5-59.4c21.4-0.1,42.8-0.1,64.2,0c3.2,0,4.9-0.7,5.9-4c2.2-7.5,4.8-14.8,7.5-22.1
		c8-22.3,29.6-38.1,53.3-38.3c34.6-0.3,69.1-0.3,103.7,0c23.4,0.2,45.1,16,53,38c2.7,7.5,5.3,15,7.6,22.6c0.9,3.1,2.4,3.9,5.5,3.9
		c21.9-0.1,43.7-0.2,65.6,0c27.4,0.2,51,19.3,56.8,45.9c1,4.7,1.5,9.7,1.5,14.5c0.1,78.3,0.1,156.6,0,234.9
		c0,34-25.9,59.8-59.9,59.9C371.4,460,310.6,459.9,249.7,459.9z M249.9,427.7c60.3,0,120.5,0,180.8,0c18.2,0,29.1-10.9,29.1-29.1
		c0-77.4,0-154.8,0-232.2c0-18.5-10.9-29.4-29.4-29.4c-25.1,0-50.2,0-75.3,0c-11,0-15.8-3.5-19.3-14c-3.5-10.6-6.9-21.2-10.5-31.8
		c-4.1-12-13.8-18.8-26.4-18.8c-32.4,0-64.9,0-97.3,0c-13.5,0-23.1,6.9-27.3,19.6c-3.5,10.4-6.9,20.9-10.4,31.3
		c-3.4,10.1-8.3,13.7-19,13.7c-24.9,0-49.9,0-74.8,0c-19.4,0-30,10.7-30,30.2c0,76.9,0,153.9,0,230.8c0,19.1,10.7,29.7,29.9,29.8
		C130,427.7,190,427.7,249.9,427.7z"/>
	<path d="M371.1,274.8c-0.4,67.4-55.1,121.2-122.5,120.6c-66.4-0.5-120.1-55.2-119.7-122.1
		c0.4-66.7,55.1-120.7,122-120.2C317.4,153.6,371.5,208.3,371.1,274.8z M161.3,274.2c-0.1,48.9,39.5,88.6,88.7,88.8
		c48.5,0.2,88.5-39.6,88.8-88.3c0.2-48.8-39.5-89.2-87.8-89.3C201.2,185.3,161.4,224.7,161.3,274.2z"/>
	<path d="M395.4,185.4c0-8.9,7-16,15.9-16.1c9-0.1,16.4,7.2,16.4,16.2c0,8.8-7.2,16-15.9,16.1
		C402.8,201.8,395.4,194.5,395.4,185.4z"/>
</g>
</svg>
