<svg x="0px" y="0px"
	 viewBox="0 0 500 500" xml:space="preserve">

<g>
	<path d="M456,478.3c-3.7-7.6-10.7-7.3-17.5-7.1l-0.3,0l0-274.7c0-0.4,0-0.9,0-1.3c0-1.1,0-2.3,0-3.4
		c-0.4-7.1-4.4-10.8-11.4-10.8c-12.9,0-26,0-38.7,0l-15.2,0l-4.6,0l0-34.6c0-25.3,0-50.6,0-75.9c0-11-3.2-14.2-14.2-14.2l-10.6,0
		l-4.4,0v-12c0-1.8,0-3.6,0-5.4c-0.1-4-0.1-8.2,0.1-12.2c0.3-6.2-2-10.5-7.3-13l-0.2-0.1H179.5l-0.2,0.1c-5.1,2.8-7.3,7.1-7.1,13.6
		c0.2,6.9,0.2,13.7,0.1,20.9c0,2.7,0,5.4,0,8.2l-4.7,0c-4.1,0-8,0-11.9,0c-8.9,0-12.5,3.7-12.5,12.5c0,42.5,0,84.9,0,127.4l0,48.3
		l-16.8,0c-9.8,0-19.7,0-29.5,0c-10.8,0-14.1,3.3-14.1,13.9l0,212.8c-2,0-3.9,0-5.8,0.1c-5.1,0.1-10,0.1-14.8-0.1
		c-6.2-0.3-10.7,2-13.6,7.1l-0.1,0.2v13.3h1c67.6,0,135.2,0,202.8,0c67.6,0,135.2,0,202.8,0h1v-13.3L456,478.3z M103.8,470.9V265.4
		h39v205.5H103.8z M318,34.6V56H193V34.6H318z M282.4,421.4V471h-53.6v-49.5H282.4z M303.3,413.3c0-9.1-3.8-12.8-12.9-12.8
		c-23.3,0-46.5,0-69.8,0c-8.8,0-12.6,3.8-12.6,12.5c0,12.5,0,25.3,0,37.6c0,5.2,0,10.3,0,15.5v4.8h-43.9V77.2h183.1V471h-43.8
		l0-20.2C303.3,438.3,303.3,425.8,303.3,413.3z M368.4,471V202h48.8v269H368.4z"/>
	<path d="M245.1,307.1c-0.1-7.1-3.9-11-10.6-11.1c-13.5-0.2-27.6-0.2-41.9,0c-7,0.1-10.9,4.1-10.9,11.4
		c-0.1,12.9-0.1,26.2,0,40.5c0,7.6,4.1,11.6,11.6,11.7c7,0.1,13.7,0.1,20.3,0.1c6.8,0,13.5,0,20.1-0.1c7.3-0.1,11.2-4,11.3-11.4
		c0.1-4.8,0-9.6,0-14.3c0-2.1,0-4.1,0-6.2c0-2.1,0-4.2,0-6.3C245.1,316.6,245.1,311.8,245.1,307.1z M224.1,316.7v21.8h-21.6v-21.8
		H224.1z"/>
	<path d="M329.5,347.7c0-4.7,0-9.4,0-14c0-2,0-4,0-6c0-2.1,0-4.1,0-6.2c0-4.7,0-9.5,0-14.3c-0.1-7.2-4-11.2-10.9-11.3
		c-14.4-0.2-28.5-0.2-41.9,0c-6.7,0.1-10.6,4.2-10.6,11.1c-0.1,13.2-0.1,26.5,0,40.9c0,7.1,4,11.3,10.9,11.4
		c6.8,0.1,13.7,0.1,20.8,0.1c6.8,0,13.7,0,20.6-0.1C325.6,359.3,329.5,355.3,329.5,347.7z M308.8,316.8v21.7H287v-21.7H308.8z"/>
	<path d="M277.2,170.3c6.9,0.1,13.8,0.1,20.6,0.1c7.1,0,14,0,20.8-0.1c7.1-0.1,10.8-4,10.9-11.3c0.1-4.6,0-9.4,0-13.9
		c0-2,0-4,0-6.1c0-2,0-4.1,0-6.1c0-4.7,0-9.5,0-14.3c-0.1-7.6-4.1-11.6-11.6-11.7c-13.9-0.1-27.5-0.1-40.5,0
		c-7.3,0.1-11.3,4.1-11.4,11.4c-0.1,14.6-0.1,28,0,40.9C266.2,166.3,270.1,170.3,277.2,170.3z M287,149.5v-21.8h21.8v21.8H287z"/>
	<path d="M245.1,233.2c0-2.1,0-4.2,0-6.2c0-4.7,0-9.5,0-14.2c-0.1-7.4-3.9-11.2-11.4-11.3c-13.2-0.1-26.8-0.1-40.5,0
		c-7.4,0-11.5,4-11.5,11.2c-0.1,13.5-0.1,27.3,0,40.9c0.1,7.2,4.1,11.2,11.5,11.3c6.8,0,13.6,0.1,20.4,0.1c6.8,0,13.5,0,20.1-0.1
		c7.4,0,11.3-3.9,11.4-11.2c0.1-4.7,0.1-9.6,0-14.2C245.1,237.3,245.1,235.2,245.1,233.2z M224.2,222.4V244h-21.7v-21.7H224.2z"/>
	<path d="M329.6,213.8c0-8.7-3.7-12.4-12.2-12.4c-12.9,0-26,0-39.1,0c-8.3,0-12.1,3.8-12.1,12c0,13.3,0,26.6,0,39.5
		c0,8,3.9,11.9,11.7,12c6.6,0,13.3,0,20,0c6.7,0,13.4,0,20,0c7.8,0,11.6-4,11.7-12c0-4.5,0-9,0-13.5l0-6l0-6.1
		C329.6,222.8,329.6,218.3,329.6,213.8z M308.7,222.3v21.6h-21.7v-21.6H308.7z"/>
	<path d="M192.7,170.3c6.8,0.1,13.7,0.1,20.6,0.1c6.9,0,13.9,0,20.8-0.1c7.1-0.1,10.9-3.9,11-11.2c0.1-4.8,0-9.6,0-14.3
		c0-2.1,0-4.1,0-6.2c0-2.1,0-4.1,0-6.2c0-4.7,0-9.5,0-14.2c-0.1-7.2-4-11.2-10.9-11.3c-13.7-0.2-27.6-0.2-41.4,0
		c-7,0.1-11,4.2-11.1,11.3c-0.1,13.4-0.1,27.2,0,40.9C181.7,166.3,185.7,170.3,192.7,170.3z M202.5,149.4v-21.7h21.7v21.7H202.5z"/>
</g>
</svg>
