<svg x="0px" y="0px"
	 viewBox="0 0 500 500" xml:space="preserve">

<g>
	<path d="M250.4,394c19.1-21.1,37.9-41.1,55.7-61.9c23.7-27.7,44.3-57.6,61.5-90c43.5-81.7-15.2-174.6-92.8-189
		c-77.9-14.4-147.2,41.8-156.1,116.3c-0.7,5.7-1,11.6-1.3,17.3c-0.4,9.8-7.8,17.4-16.9,17.1c-9.5-0.3-16.4-7.5-16.3-17.7
		c0.3-30.3,7.2-59,23-85c34.6-56.8,85.4-86.9,152.2-83c68.5,4,116.2,41,143.4,103.5c20,46.1,16.5,91.7-6.4,136.3
		c-24.1,47-56.5,87.8-92.1,126.3c-13,14.1-26.7,27.6-40.5,41c-9.6,9.4-17.6,9.3-27.5,0.4C193.1,387,154.1,344.5,123,295.2
		c-7.8-12.4-14.4-25.7-21-38.8c-4.6-9.3-1.2-18.7,7.2-22.8c8.8-4.3,18.3-0.7,22.8,8.8C159.7,301.3,202.9,348.1,250.4,394z"/>
	<path d="M63.3,448.4c125,0,248.6,0,373.3,0c-1.6-2.9-2.7-5-3.9-7c-15.7-27.5-31.5-55-47.1-82.6
		c-5-8.8-3.6-16.9,3.1-22.3c8.5-6.8,19.7-4.5,25.6,5.7c10.5,18.2,20.8,36.4,31.2,54.6c11.1,19.4,22.2,38.8,33.2,58.1
		c8,14.1,0.7,27-15.5,27c-141.8,0-283.6,0-425.4,0.1c-7.7,0-14.3-1.7-18.1-8.9c-3.7-6.9-1.5-13.2,2.1-19.6
		c21.2-36.8,42.1-73.6,63.2-110.4c4.8-8.4,11.6-12,19.1-10.1c11.8,3,16.5,14.6,10.2,25.9c-11.2,19.8-22.6,39.6-33.9,59.3
		C75,427.9,69.5,437.6,63.3,448.4z"/>
	<path d="M249.9,249.8c-36.7,0-66.3-29.8-66.2-66.6c0.1-36.7,29.9-66.2,66.8-66.1c36.6,0.1,66.1,30.1,65.9,66.9
		C316.2,220.2,286.3,249.8,249.9,249.8z M249.7,216.5c17.4,0.5,32.7-13.9,33.4-31.6c0.8-18.4-13.5-34-31.7-34.6
		c-18.7-0.7-34,13.8-34.4,32.5C216.6,201.1,231,215.9,249.7,216.5z"/>
</g>
</svg>
