<svg x="0px" y="0px"
	viewBox="0 0 90 90" xml:space="preserve">
<path class="st2" d="M-145.7-134.3"/>

<g>
	<path d="M38.8,78.5c-18.5,0-33.5-15-33.5-33.5c0-18.5,15-33.5,33.5-33.5c14.1,0,26.2,8.8,31.1,21.2h5.2C70,17.6,55.7,6.6,38.8,6.6
		C17.6,6.6,0.4,23.8,0.4,45c0,21.2,17.2,38.4,38.4,38.4c9.3,0,17.9-3.4,24.6-8.9l-2.7-4.2C54.8,75.4,47.2,78.5,38.8,78.5z"/>
	<path d="M83.7,57.1V37.7H65.6v19.4h-6.1l5.7,9l2.9,4.5l6.5,10.2l15.1-23.7H83.7z M74.5,74.3l-4-6.3l-3-4.7L66.1,61h3.1V41h10.9v20
		H83L74.5,74.3z"/>
	<path d="M41,72.5v-7c8.6-0.1,13.8-4.3,13.8-11.2c0-7.5-6.1-9.5-11.1-11.1L41,42.4V29.1c4.5,0.9,7.1,3.9,7.5,8.5h4.9
		c-0.6-7.5-5-12-12.4-12.9v-6.7h-3.8v6.6c-7.7,0.3-12.6,4.4-12.6,10.6c0,7.8,8,9.5,11.2,10.5l1.4,0.5v14.8c-5-0.9-8.4-3.9-8.8-8.1
		h-5c0.5,6.6,5.8,11.3,13.8,12.4v7.3H41z M41,47.3l1.6,0.5c3.8,1.2,7.3,2.7,7.3,6.7c0,4.1-3.1,6.6-9,6.6V47.3z M29.4,34.9
		c0-3.6,3.2-5.8,7.8-6.1v12.4C33.8,40.2,29.4,39.2,29.4,34.9z"/>
</g>
</svg>
