<?xml version="1.0" encoding="utf-8"?>
<!-- Generator: Adobe Illustrator 26.0.3, SVG Export Plug-In . SVG Version: 6.00 Build 0)  -->
<svg version="1.1" id="Layer_1" xmlns="http://www.w3.org/2000/svg" xmlns:xlink="http://www.w3.org/1999/xlink" x="0px" y="0px"
	 width="90px" height="90px" viewBox="0 0 90 90" style="enable-background:new 0 0 90 90;" xml:space="preserve">
<style type="text/css">
	.st0{display:none;}
	.st1{display:inline;}
	.st2{display:inline;fill:none;}
</style>
<g class="st0">
	<g class="st1">
		<path d="M87,33.6c-1.6-1.7-3.1-3.4-4.7-5c-1.3-1.3-2.1-2.8-2.2-4.7c-0.1-2.3-1.1-4.1-2.6-5.7c-1.5-1.5-3-3-4.5-4.5
			c-0.9-0.9-1.4-2-1.4-3.3c0-2,0-3.9,0-5.9c0-1-0.3-1.8-1.2-2.3h-1.2c-0.2,0.1-0.4,0.2-0.5,0.3c-5.1,2-8.7,5.5-10.6,10.5
			c-0.7,2-1,4.1-1.5,6.1c-1.5,6.3-4.8,11.5-10.1,15.3c-5.4,3.9-11,7.7-16.5,11.5c-2.1,1.5-4.4,2.9-6.4,4.7c-5.1,4.7-7.4,10.6-7,17.5
			c0,0.5,0.1,1,0.2,1.8c-0.4-0.4-0.7-0.6-0.9-0.8c-3.8-3.6-4.9-9.6-2.6-14.3c2.4-4.9,6.4-7.2,11.7-7.4c2.7-0.1,4.8-2.4,4.8-5.1
			c0-2.7-2.2-4.9-4.9-4.9c-1.5,0-3.1,0.1-4.5,0.5C11.3,40.3,5.5,45.9,3,55c-0.3,1.1-0.4,2.2-0.7,3.3v4.2c0.2,1.1,0.4,2.2,0.7,3.2
			c2.5,9.1,8.4,14.7,17.6,16.8c1,0.2,2.1,0.3,3.1,0.4c0.7,0,1.2,0.3,1.8,0.7c3.5,2.6,7.5,4,11.9,4c8.3,0,16.5,0,24.8,0
			c1.3,0,2-0.7,2-1.9c0-4.2-3.7-7.8-8.2-7.9c-3.4,0-6.8-0.1-10.2,0c-0.9,0-1.5-0.2-1.8-1.1c-0.1-0.3-0.3-0.5-0.4-0.9
			c0.5-0.2,0.9-0.4,1.4-0.6c2.1-0.8,3.8-2.1,5.4-3.8c1.6-1.7,3.4-3.1,5.2-4.6c0.4-0.4,0.9-0.7,1.4-1.2c1.4,3.4,2.8,6.7,4.1,10
			c1.4,3.5,2.8,6.9,4.3,10.4c0.5,1.3,0.9,1.5,2.3,1.5h11.6c1.5,0,2.1-0.6,2-2.1c-0.1-3.7-2.9-6.9-6.6-7.5c-0.6-0.1-0.8-0.4-1-0.9
			c-2.1-6.1-4.1-12.3-6.2-18.4c-1-2.9-1-5.9-0.5-8.9c0.3-1.9,0.5-3.7,0.6-5.6c0.1-1.7,0.8-3.1,2-4.3c0.5-0.5,1-1,1.5-1.5
			c0.7-0.7,1.4-0.8,2.2-0.3c1,0.6,2,1.2,3,1.8c2.2,1.1,4.4,1,6.5-0.4c1.4-1,2.8-2,4.1-3.1C87.9,35.5,88,34.6,87,33.6z M8.1,69.7
			c-5.5-10.2-1.3-22.4,9.2-27.1c2.3-1,4.8-1.5,7.4-1.6c1.1,0,1.9,0.7,1.9,1.7s-0.8,1.6-1.9,1.7c-3.6,0.1-6.8,1.3-9.6,3.4
			c-5.3,4.1-7.5,11.7-5.2,18c1.5,4.1,4.2,7.1,8.1,9.1c0.2,0.1,0.5,0.2,0.6,0.4c0.8,1.3,1.5,2.6,2.2,4C15.2,77.8,10.9,74.8,8.1,69.7z
			 M70.8,79.6c0.4,1.1,1,1.6,2.1,1.6c1.8,0,3.2,0.7,4.1,2.2c0.2,0.2,0.3,0.5,0.5,0.9c-3.1,0-6,0-8.9,0c-0.2,0-0.6-0.4-0.7-0.6
			c-2-4.8-4-9.6-5.9-14.4c-0.9-2.2-1.8-4.4-2.7-6.5c-0.7-1.6-1.8-1.9-3.2-0.7c-1,0.8-2,1.7-3,2.6c-0.2-1.2-0.2-2.5-0.6-3.6
			c-0.6-1.7-1.3-3.4-2.1-5.1c-0.4-0.9-1.4-1.2-2.2-0.8c-0.8,0.4-1.2,1.3-0.8,2.2c0.4,0.9,0.8,1.9,1.3,2.8c2.2,5,0.2,10-4.8,12
			c-1,0.4-2,0.8-2.9,1.2c-1.4,0.6-1.7,1.5-1,2.8c0.6,1.2,1.4,2.4,2,3.7c0.5,1,1.2,1.5,2.4,1.4c3.8,0,7.6,0,11.4,0
			c1.9,0,3.5,0.6,4.5,2.3c0.1,0.2,0.2,0.4,0.4,0.7c-0.3,0-0.5,0.1-0.8,0.1c-7.2,0-14.3,0-21.5,0c-7.9,0-14.4-4.6-17.1-12.1
			c-2.5-6.8-0.2-15.1,5.6-19.5c4.4-3.3,8.9-6.3,13.4-9.5c2.7-1.9,5.4-3.8,8.1-5.7c2.3-1.6,4.3-3.5,6-5.6c0.2-0.2,0.3-0.4,0.5-0.6
			c0.2,0.2,0.3,0.3,0.5,0.4c3,3,6,6,9,9c0.3,0.3,0.4,0.6,0.3,1.1c-0.2,1.2-0.4,2.4-0.5,3.6c-0.2,1.7-0.4,3.4-0.7,5.1
			c-0.5,3.1-0.2,6.2,0.8,9.2C66.4,66.4,68.6,73,70.8,79.6z M81.1,36.6c-1.2,0.9-2.5,0.8-3.7,0.1c-1-0.6-1.9-1.2-2.8-1.7
			c-0.5-0.2-1-0.4-1.6-0.4c-1.6,0-2.9-0.6-4-1.9c-0.3-0.4-0.9-0.9-1.4-0.9c-0.5,0-1.1,0.3-1.5,0.7c-0.5,0.5-0.5,1.3,0,1.9
			c0.6,0.8,1.3,1.5,1.9,2.2c-0.5,0.5-1.1,1-1.7,1.5c-3.1-3.1-6.3-6.3-9.6-9.6c0.4-0.9,1-1.8,1.4-2.8c1.4-3,2-6.3,2.7-9.5
			c0.8-3.9,3.9-7.9,7.4-9.5c0,0.2,0.1,0.4,0.1,0.6c0,1.1,0,2.2,0,3.3c-0.1,2.2,0.8,4,2.3,5.6c1.2,1.2,2.4,2.5,3.7,3.6
			c1.6,1.4,2.6,3,2.6,5.2c0,2.2,1.1,4,2.6,5.5c1.3,1.4,2.6,2.8,4,4.2C82.7,35.4,81.9,36,81.1,36.6z"/>
		<path d="M47.9,27.3c-0.9,0-1.7-0.8-1.7-1.6c0-0.9,0.8-1.7,1.6-1.7c0.9,0,1.7,0.8,1.7,1.7C49.5,26.6,48.8,27.3,47.9,27.3z"/>
		<path d="M33.6,76.9c0,1.4-1.4,2.2-2.6,1.5c-2.1-1.2-3.8-2.9-5-5c-1.1-1.8-1.6-3.8-1.8-5.9c-0.1-1,0.5-1.8,1.4-2
			c0.9-0.2,1.7,0.4,1.9,1.4c0.4,1.4,0.6,2.9,1.2,4.2c0.7,1.8,2.1,3.1,3.7,4.1C33.1,75.7,33.6,76.2,33.6,76.9z"/>
		<path d="M24.6,60.4c0-0.9,0.7-1.7,1.7-1.7c0.9,0,1.6,0.8,1.6,1.6c0,0.9-0.8,1.7-1.7,1.7C25.3,62,24.6,61.3,24.6,60.4z"/>
		<path d="M71.2,25.7c-0.9,0-1.7-0.8-1.7-1.6c0-0.9,0.8-1.7,1.7-1.7c0.9,0,1.6,0.8,1.6,1.7C72.8,25,72.1,25.7,71.2,25.7z"/>
	</g>
	<line class="st2" x1="4" y1="-0.9" x2="2.4" y2="1.2"/>
	<line class="st2" x1="0.3" y1="3.9" x2="0.2" y2="4.1"/>
	<g class="st1">
		<path d="M43.6,24.6c-0.3,0-0.6-0.1-0.9-0.3L13.9,3.8c-0.7-0.5-0.8-1.4-0.4-2.1c0.5-0.7,1.4-0.8,2.1-0.4l28.8,20.5
			c0.7,0.5,0.8,1.4,0.4,2.1C44.5,24.4,44,24.6,43.6,24.6z"/>
	</g>
</g>
<g class="st0">
	<g class="st1">
		<g>
			<path d="M87,33.6c-1.6-1.7-3.1-3.4-4.7-5c-1.3-1.3-2.1-2.8-2.2-4.7c-0.1-2.3-1.1-4.1-2.6-5.7c-1.5-1.5-3-3-4.5-4.5
				c-0.9-0.9-1.4-2-1.4-3.3c0-2,0-3.9,0-5.9c0-1-0.3-1.8-1.2-2.3h-1.2c-0.2,0.1-0.4,0.2-0.5,0.3c-5.1,2-8.7,5.5-10.6,10.5
				c-0.7,2-1,4.1-1.5,6.1c-1.5,6.3-4.8,11.5-10.1,15.3c-5.4,3.9-11,7.7-16.5,11.5c-2.1,1.5-4.4,2.9-6.4,4.7
				c-5.1,4.7-7.4,10.6-7,17.5c0,0.5,0.1,1,0.2,1.8c-0.4-0.4-0.7-0.6-0.9-0.8c-3.8-3.6-4.9-9.6-2.6-14.3c2.4-4.9,6.4-7.2,11.7-7.4
				c2.7-0.1,4.8-2.4,4.8-5.1c0-2.7-2.2-4.9-4.9-4.9c-1.5,0-3.1,0.1-4.5,0.5C11.3,40.3,5.5,45.9,3,55c-0.3,1.1-0.4,2.2-0.7,3.3v4.2
				c0.2,1.1,0.4,2.2,0.7,3.2c2.5,9.1,8.4,14.7,17.6,16.8c1,0.2,2.1,0.3,3.1,0.4c0.7,0,1.2,0.3,1.8,0.7c3.5,2.6,7.5,4,11.9,4
				c8.3,0,16.5,0,24.8,0c1.3,0,2-0.7,2-1.9c0-4.2-3.7-7.8-8.2-7.9c-3.4,0-6.8-0.1-10.2,0c-0.9,0-1.5-0.2-1.8-1.1
				c-0.1-0.3-0.3-0.5-0.4-0.9c0.5-0.2,0.9-0.4,1.4-0.6c2.1-0.8,3.8-2.1,5.4-3.8c1.6-1.7,3.4-3.1,5.2-4.6c0.4-0.4,0.9-0.7,1.4-1.2
				c1.4,3.4,2.8,6.7,4.1,10c1.4,3.5,2.8,6.9,4.3,10.4c0.5,1.3,0.9,1.5,2.3,1.5h11.6c1.5,0,2.1-0.6,2-2.1c-0.1-3.7-2.9-6.9-6.6-7.5
				c-0.6-0.1-0.8-0.4-1-0.9c-2.1-6.1-4.1-12.3-6.2-18.4c-1-2.9-1-5.9-0.5-8.9c0.3-1.9,0.5-3.7,0.6-5.6c0.1-1.7,0.8-3.1,2-4.3
				c0.5-0.5,1-1,1.5-1.5c0.7-0.7,1.4-0.8,2.2-0.3c1,0.6,2,1.2,3,1.8c2.2,1.1,4.4,1,6.5-0.4c1.4-1,2.8-2,4.1-3.1
				C87.9,35.5,88,34.6,87,33.6z M8.1,69.7c-5.5-10.2-1.3-22.4,9.2-27.1c2.3-1,4.8-1.5,7.4-1.6c1.1,0,1.9,0.7,1.9,1.7
				s-0.8,1.6-1.9,1.7c-3.6,0.1-6.8,1.3-9.6,3.4c-5.3,4.1-7.5,11.7-5.2,18c1.5,4.1,4.2,7.1,8.1,9.1c0.2,0.1,0.5,0.2,0.6,0.4
				c0.8,1.3,1.5,2.6,2.2,4C15.2,77.8,10.9,74.8,8.1,69.7z M81.1,36.6c-1.2,0.9-2.5,0.8-3.7,0.1c-1-0.6-1.9-1.2-2.8-1.7
				c-0.5-0.2-1-0.4-1.6-0.4c-1.6,0-2.9-0.6-4-1.9c-0.3-0.4-0.9-0.9-1.4-0.9c-0.5,0-1.1,0.3-1.5,0.7c-0.5,0.5-0.5,1.3,0,1.9
				c0.6,0.8,1.3,1.5,1.9,2.2c-0.4,0.3-0.8,0.7-1.1,1c0,0-0.1,0.1-0.1,0.1c-1.5,1.4-2.3,5.3-2.7,7.6c0,0.2-0.1,0.5-0.1,0.6
				c0,0.2-0.1,0.5-0.1,0.7c0,0.3-0.1,0.5-0.1,0.5c-0.1,1.2-0.3,2.3-0.5,3.5c-0.5,3.1-0.2,6.2,0.8,9.2c2.2,6.6,4.5,13.2,6.7,19.8
				c0.4,1.1,1,1.6,2.1,1.6c1.8,0,3.2,0.7,4.1,2.2c0.2,0.2,0.3,0.5,0.5,0.9c-3.1,0-6,0-8.9,0c-0.2,0-0.6-0.4-0.7-0.6
				c-2-4.8-4-9.6-5.9-14.4c-0.9-2.2-1.8-4.4-2.7-6.5c-0.7-1.6-1.8-1.9-3.2-0.7c-1,0.8-2,1.7-3,2.6c-0.2-1.2-0.2-2.5-0.6-3.6
				c-0.6-1.7-1.3-3.4-2.1-5.1c-0.4-0.9-1.4-1.2-2.2-0.8c-0.8,0.4-1.2,1.3-0.8,2.2c0.4,0.9,0.8,1.9,1.3,2.8c2.2,5,0.2,10-4.8,12
				c-1,0.4-2,0.8-2.9,1.2c-1.4,0.6-1.7,1.5-1,2.8c0.6,1.2,1.4,2.4,2,3.7c0.5,1,1.2,1.5,2.4,1.4c3.8,0,7.6,0,11.4,0
				c1.9,0,3.5,0.6,4.5,2.3c0.1,0.2,0.2,0.4,0.4,0.7c-0.3,0-0.5,0.1-0.8,0.1c-7.2,0-14.3,0-21.5,0c-7.9,0-14.4-4.6-17.1-12.1
				c-2.5-6.8-0.2-15.1,5.6-19.5c4.4-3.3,8.9-6.3,13.4-9.5c2.7-1.9,5.4-3.8,8.1-5.7c1.2-0.9,2.4-1.8,3.5-2.9c0.4-0.3,0.7-0.7,1-1.1
				c0,0,0.1-0.1,0.1-0.1c0.5-0.5,0.9-1,1.3-1.6c0.1-0.1,0.2-0.2,0.3-0.3c1.3-1.8,2.4-3.7,3-4.9c0.1-0.2,0.2-0.3,0.2-0.5l0,0
				c0-0.1,0.1-0.2,0.1-0.3c0.1-0.3,0.2-0.5,0.2-0.5c1.4-3,2-6.3,2.7-9.5c0.8-3.9,3.9-7.9,7.4-9.5c0,0.2,0.1,0.4,0.1,0.6
				c0,1.1,0,2.2,0,3.3c-0.1,2.2,0.8,4,2.3,5.6c1.2,1.2,2.4,2.5,3.7,3.6c1.6,1.4,2.6,3,2.6,5.2c0,2.2,1.1,4,2.6,5.5
				c1.3,1.4,2.6,2.8,4,4.2C82.7,35.4,81.9,36,81.1,36.6z"/>
			<path d="M33.6,76.9c0,1.4-1.4,2.2-2.6,1.5c-2.1-1.2-3.8-2.9-5-5c-1.1-1.8-1.6-3.8-1.8-5.9c-0.1-1,0.5-1.8,1.4-2
				c0.9-0.2,1.7,0.4,1.9,1.4c0.4,1.4,0.6,2.9,1.2,4.2c0.7,1.8,2.1,3.1,3.7,4.1C33.1,75.7,33.6,76.2,33.6,76.9z"/>
			<path d="M24.6,60.4c0-0.9,0.7-1.7,1.7-1.7c0.9,0,1.6,0.8,1.6,1.6c0,0.9-0.8,1.7-1.7,1.7C25.3,62,24.6,61.3,24.6,60.4z"/>
			<path d="M71.2,25.7c-0.9,0-1.7-0.8-1.7-1.6c0-0.9,0.8-1.7,1.7-1.7c0.9,0,1.6,0.8,1.6,1.7C72.8,25,72.1,25.7,71.2,25.7z"/>
		</g>
	</g>
	<path class="st1" d="M52.2,34.2c0.2-0.2,0.4-0.3,0.6-0.5c-0.3,0.4-0.7,0.7-1,1.1C51.8,34.6,52,34.4,52.2,34.2z"/>
	<path class="st1" d="M66.2,22.9c0,0,0-0.1,0-0.1c0.3-0.4,0.6-0.9,0.9-1.3c0.2-0.2,0.3-0.5,0.5-0.7c0.1-0.1,0.5-0.5,0.5-0.6
		c0.7-0.8,1.3-1.6,2.4-1.7c0.7-0.1,0.6,0.6,0.5,1.1c-0.3,0.9-1,1.4-1.8,1.8c-0.9,0.6-1.7,1.1-2.7,1.6C66.4,23,66.2,23,66.2,22.9z"/>
</g>
<g class="st0">
	<g class="st1">
		<g>
			<g>
				<path d="M87,33.6c-1.6-1.7-3.1-3.4-4.7-5c-1.3-1.3-2.1-2.8-2.2-4.7c-0.1-2.3-1.1-4.1-2.6-5.7c-1.5-1.5-3-3-4.5-4.5
					c-0.9-0.9-1.4-2-1.4-3.3c0-2,0-3.9,0-5.9c0-1-0.3-1.8-1.2-2.3h-1.2c-0.2,0.1-0.4,0.2-0.5,0.3c-5.1,2-8.7,5.5-10.6,10.5
					c-0.7,2-1,4.1-1.5,6.1c-1.5,6.3-4.8,11.5-10.1,15.3c-5.4,3.9-11,7.7-16.5,11.5c-2.1,1.5-4.4,2.9-6.4,4.7
					c-5.1,4.7-7.4,10.6-7,17.5c0,0.5,0.1,1,0.2,1.8c-0.4-0.4-0.7-0.6-0.9-0.8c-3.8-3.6-4.9-9.6-2.6-14.3c2.4-4.9,6.4-7.2,11.7-7.4
					c2.7-0.1,4.8-2.4,4.8-5.1c0-2.7-2.2-4.9-4.9-4.9c-1.5,0-3.1,0.1-4.5,0.5C11.4,40.3,5.5,45.9,3,55c-0.3,1.1-0.4,2.2-0.7,3.3v4.2
					c0.2,1.1,0.4,2.2,0.7,3.2c2.5,9.1,8.4,14.7,17.6,16.8c1,0.2,2.1,0.3,3.1,0.4c0.7,0,1.2,0.3,1.8,0.7c3.5,2.6,7.5,4,11.9,4
					c8.3,0,16.5,0,24.8,0c1.3,0,2-0.7,2-1.9c0-4.2-3.7-7.8-8.2-7.9c-3.4,0-6.8-0.1-10.2,0c-0.9,0-1.5-0.2-1.8-1.1
					c-0.1-0.3-0.3-0.5-0.4-0.9c0.5-0.2,0.9-0.4,1.4-0.6c2.1-0.8,3.8-2.1,5.4-3.8c1.6-1.7,3.4-3.1,5.2-4.6c0.4-0.4,0.9-0.7,1.4-1.2
					c1.4,3.4,2.8,6.7,4.1,10c1.4,3.5,2.8,6.9,4.3,10.4c0.5,1.3,0.9,1.5,2.3,1.5h11.6c1.5,0,2.1-0.6,2-2.1c-0.1-3.7-2.9-6.9-6.6-7.5
					c-0.6-0.1-0.8-0.4-1-0.9c-2.1-6.1-4.1-12.3-6.2-18.4c-1-2.9-1-5.9-0.5-8.9c0.3-1.9,0.5-3.7,0.6-5.6c0.1-1.7,0.8-3.1,2-4.3
					c0.5-0.5,1-1,1.5-1.5c0.7-0.7,1.4-0.8,2.2-0.3c1,0.6,2,1.2,3,1.8c2.2,1.1,4.4,1,6.5-0.4c1.4-1,2.8-2,4.1-3.1
					C87.9,35.6,88,34.6,87,33.6z M8.1,69.7c-5.5-10.2-1.3-22.4,9.2-27.1c2.3-1,4.8-1.5,7.4-1.6c1.1,0,1.9,0.7,1.9,1.7
					s-0.8,1.6-1.9,1.7c-3.6,0.1-6.8,1.3-9.6,3.4c-5.3,4.1-7.5,11.7-5.2,18c1.5,4.1,4.2,7.1,8.1,9.1c0.2,0.1,0.5,0.2,0.6,0.4
					c0.8,1.3,1.5,2.6,2.2,4C15.2,77.8,10.9,74.8,8.1,69.7z M81.1,36.6c-1.2,0.9-2.5,0.8-3.7,0.1c-1-0.6-1.9-1.2-2.8-1.7
					c-0.5-0.2-1-0.4-1.6-0.4c-1.6,0-2.9-0.6-4-1.9c-0.3-0.4-0.9-0.9-1.4-0.9c-0.5,0-1.1,0.3-1.5,0.7c-0.5,0.5-0.5,1.3,0,1.9
					c0.6,0.8,1.3,1.5,1.9,2.2c-0.4,0.3-0.8,0.7-1.1,1c0,0-0.1,0.1-0.1,0.1c-1.5,1.4-2.3,5.3-2.7,7.6c0,0.2-0.1,0.5-0.1,0.6
					c0,0.2-0.1,0.5-0.1,0.7c0,0.3-0.1,0.5-0.1,0.5c-0.1,1.2-0.3,2.3-0.5,3.5c-0.5,3.1-0.2,6.2,0.8,9.2c2.2,6.6,4.5,13.2,6.7,19.8
					c0.4,1.1,1,1.6,2.1,1.6c1.8,0,3.2,0.7,4.1,2.2c0.2,0.2,0.3,0.5,0.5,0.9c-3.1,0-6,0-8.9,0c-0.2,0-0.6-0.4-0.7-0.6
					c-2-4.8-4-9.6-5.9-14.4c-0.9-2.2-1.8-4.4-2.7-6.5c-0.7-1.6-1.8-1.9-3.2-0.7c-1,0.8-2,1.7-3,2.6c-0.2-1.2-0.2-2.5-0.6-3.6
					c-0.6-1.7-1.3-3.4-2.1-5.1c-0.4-0.9-1.4-1.2-2.2-0.8c-0.8,0.4-1.2,1.3-0.8,2.2c0.4,0.9,0.8,1.9,1.3,2.8c2.2,5,0.2,10-4.8,12
					c-1,0.4-2,0.8-2.9,1.2c-1.4,0.6-1.7,1.5-1,2.8c0.6,1.2,1.4,2.4,2,3.7c0.5,1,1.2,1.5,2.4,1.4c3.8,0,7.6,0,11.4,0
					c1.9,0,3.5,0.6,4.5,2.3c0.1,0.2,0.2,0.4,0.4,0.7c-0.3,0-0.5,0.1-0.8,0.1c-7.2,0-14.3,0-21.5,0c-7.9,0-14.4-4.6-17.1-12.1
					c-2.5-6.8-0.2-15.1,5.6-19.5c4.4-3.3,8.9-6.3,13.4-9.5c2.7-1.9,5.4-3.8,8.1-5.7c1.2-0.9,2.4-1.8,3.5-2.9c0.4-0.3,0.7-0.7,1-1.1
					c0,0,0.1-0.1,0.1-0.1c0.5-0.5,0.9-1,1.3-1.6c0.1-0.1,0.2-0.2,0.3-0.3c1.3-1.8,2.4-3.7,3-4.9c0.1-0.2,0.2-0.3,0.2-0.5l0,0
					c0-0.1,0.1-0.2,0.1-0.3c0.1-0.3,0.2-0.5,0.2-0.5c1.4-3,2-6.3,2.7-9.5c0.8-3.9,3.9-7.9,7.4-9.5c0,0.2,0.1,0.4,0.1,0.6
					c0,1.1,0,2.2,0,3.3c-0.1,2.2,0.8,4,2.3,5.6c1.2,1.2,2.4,2.5,3.7,3.6c1.6,1.4,2.6,3,2.6,5.2c0,2.2,1.1,4,2.6,5.5
					c1.3,1.4,2.6,2.8,4,4.2C82.7,35.4,81.9,36,81.1,36.6z"/>
				<path d="M33.6,76.9c0,1.4-1.4,2.2-2.6,1.5c-2.1-1.2-3.8-2.9-5-5c-1.1-1.8-1.6-3.8-1.8-5.9c-0.1-1,0.5-1.8,1.4-2
					c0.9-0.2,1.7,0.4,1.9,1.4c0.4,1.4,0.6,2.9,1.2,4.2c0.7,1.8,2.1,3.1,3.7,4.1C33.1,75.7,33.6,76.2,33.6,76.9z"/>
				<path d="M24.6,60.4c0-0.9,0.7-1.7,1.7-1.7c0.9,0,1.6,0.8,1.6,1.6c0,0.9-0.8,1.7-1.7,1.7C25.3,62,24.6,61.3,24.6,60.4z"/>
				<path d="M71.2,25.7c-0.9,0-1.7-0.8-1.7-1.6c0-0.9,0.8-1.7,1.7-1.7c0.9,0,1.6,0.8,1.6,1.7C72.8,25,72.1,25.7,71.2,25.7z"/>
			</g>
		</g>
		<path d="M52.2,34.3c0.2-0.2,0.4-0.3,0.6-0.5c-0.3,0.4-0.7,0.7-1,1.1C51.9,34.6,52,34.4,52.2,34.3z"/>
		<path d="M65.9,21.5c0-2.1,2.7-4.1,4.6-2.6C68.5,19,67.4,20.2,65.9,21.5L65.9,21.5z"/>
	</g>
	<path class="st1" d="M28.9,36.3c-2.8-2.8-7.1-2.3-10.3-0.1c2.9-3.4,8-4.7,12-2.3C32.6,35,30.6,37.8,28.9,36.3L28.9,36.3z"/>
	<path class="st1" d="M10.6,80.8c-1.9,0.5-3.8,0.2-4.9-0.9c0,0,0,0,0,0c0,0,0,0,0,0c0,0,0,0,0,0c-0.1,0,0.1,0,0,0c0,0,0,0,0,0
		c0.1,0,0,0,0,0c-0.2,0.1,0.2-0.1,0,0c0.9,1.9,2.1,3.7,4.4,3.6C12,83.5,12.5,80.4,10.6,80.8z"/>
	<path class="st1" d="M16.2,37.5L16.2,37.5c-0.4,0-0.8-0.3-0.8-0.8l0,0c0-0.4,0.3-0.8,0.8-0.8h0c0.4,0,0.8,0.3,0.8,0.8l0,0
		C16.9,37.1,16.6,37.5,16.2,37.5z"/>
	<path class="st1" d="M32.9,38.2L32.9,38.2c-0.4,0-0.8-0.3-0.8-0.8l0,0c0-0.4,0.3-0.8,0.8-0.8h0c0.4,0,0.8,0.3,0.8,0.8l0,0
		C33.6,37.9,33.3,38.2,32.9,38.2z"/>
</g>
<g class="st0">
	<g class="st1">
		<g>
			<g>
				<path d="M87,33.6c-1.6-1.7-3.1-3.4-4.7-5c-1.3-1.3-2.1-2.8-2.2-4.7c-0.1-2.3-1.1-4.1-2.6-5.7c-1.5-1.5-3-3-4.5-4.5
					c-0.9-0.9-1.4-2-1.4-3.3c0-2,0-3.9,0-5.9c0-1-0.3-1.8-1.2-2.3h-1.2c-0.2,0.1-0.4,0.2-0.5,0.3c-5.1,2-8.7,5.5-10.6,10.5
					c-0.7,2-1,4.1-1.5,6.1c-1.5,6.3-4.8,11.5-10.1,15.3c-5.4,3.9-11,7.7-16.5,11.5c-2.1,1.5-4.4,2.9-6.4,4.7
					c-5.1,4.7-7.4,10.6-7,17.5c0,0.5,0.1,1,0.2,1.8c-0.4-0.4-0.7-0.6-0.9-0.8c-3.8-3.6-4.9-9.6-2.6-14.3c2.4-4.9,6.4-7.2,11.7-7.4
					c2.7-0.1,4.8-2.4,4.8-5.1c0-2.7-2.2-4.9-4.9-4.9c-1.5,0-3.1,0.1-4.5,0.5C11.4,40.3,5.5,45.9,3,55c-0.3,1.1-0.4,2.2-0.7,3.3v4.2
					c0.2,1.1,0.4,2.2,0.7,3.2c2.5,9.1,8.4,14.7,17.6,16.8c1,0.2,2.1,0.3,3.1,0.4c0.7,0,1.2,0.3,1.8,0.7c3.5,2.6,7.5,4,11.9,4
					c8.3,0,16.5,0,24.8,0c1.3,0,2-0.7,2-1.9c0-4.2-3.7-7.8-8.2-7.9c-3.4,0-6.8-0.1-10.2,0c-0.9,0-1.5-0.2-1.8-1.1
					c-0.1-0.3-0.3-0.5-0.4-0.9c0.5-0.2,0.9-0.4,1.4-0.6c2.1-0.8,3.8-2.1,5.4-3.8c1.6-1.7,3.4-3.1,5.2-4.6c0.4-0.4,0.9-0.7,1.4-1.2
					c1.4,3.4,2.8,6.7,4.1,10c1.4,3.5,2.8,6.9,4.3,10.4c0.5,1.3,0.9,1.5,2.3,1.5h11.6c1.5,0,2.1-0.6,2-2.1c-0.1-3.7-2.9-6.9-6.6-7.5
					c-0.6-0.1-0.8-0.4-1-0.9c-2.1-6.1-4.1-12.3-6.2-18.4c-1-2.9-1-5.9-0.5-8.9c0.3-1.9,0.5-3.7,0.6-5.6c0.1-1.7,0.8-3.1,2-4.3
					c0.5-0.5,1-1,1.5-1.5c0.7-0.7,1.4-0.8,2.2-0.3c1,0.6,2,1.2,3,1.8c2.2,1.1,4.4,1,6.5-0.4c1.4-1,2.8-2,4.1-3.1
					C87.9,35.6,88,34.6,87,33.6z M8.1,69.7c-5.5-10.2-1.3-22.4,9.2-27.1c2.3-1,4.8-1.5,7.4-1.6c1.1,0,1.9,0.7,1.9,1.7
					s-0.8,1.6-1.9,1.7c-3.6,0.1-6.8,1.3-9.6,3.4c-5.3,4.1-7.5,11.7-5.2,18c1.5,4.1,4.2,7.1,8.1,9.1c0.2,0.1,0.5,0.2,0.6,0.4
					c0.8,1.3,1.5,2.6,2.2,4C15.2,77.8,10.9,74.8,8.1,69.7z M81.1,36.6c-1.2,0.9-2.5,0.8-3.7,0.1c-1-0.6-1.9-1.2-2.8-1.7
					c-0.5-0.2-1-0.4-1.6-0.4c-1.6,0-2.9-0.6-4-1.9c-0.3-0.4-0.9-0.9-1.4-0.9c-0.5,0-1.1,0.3-1.5,0.7c-0.5,0.5-0.5,1.3,0,1.9
					c0.6,0.8,1.3,1.5,1.9,2.2c-0.4,0.3-0.8,0.7-1.1,1c0,0-0.1,0.1-0.1,0.1c-1.5,1.4-2.3,5.3-2.7,7.6c0,0.2-0.1,0.5-0.1,0.6
					c0,0.2-0.1,0.5-0.1,0.7c0,0.3-0.1,0.5-0.1,0.5c-0.1,1.2-0.3,2.3-0.5,3.5c-0.5,3.1-0.2,6.2,0.8,9.2c2.2,6.6,4.5,13.2,6.7,19.8
					c0.4,1.1,1,1.6,2.1,1.6c1.8,0,3.2,0.7,4.1,2.2c0.2,0.2,0.3,0.5,0.5,0.9c-3.1,0-6,0-8.9,0c-0.2,0-0.6-0.4-0.7-0.6
					c-2-4.8-4-9.6-5.9-14.4c-0.9-2.2-1.8-4.4-2.7-6.5c-0.7-1.6-1.8-1.9-3.2-0.7c-1,0.8-2,1.7-3,2.6c-0.2-1.2-0.2-2.5-0.6-3.6
					c-0.6-1.7-1.3-3.4-2.1-5.1c-0.4-0.9-1.4-1.2-2.2-0.8c-0.8,0.4-1.2,1.3-0.8,2.2c0.4,0.9,0.8,1.9,1.3,2.8c2.2,5,0.2,10-4.8,12
					c-1,0.4-2,0.8-2.9,1.2c-1.4,0.6-1.7,1.5-1,2.8c0.6,1.2,1.4,2.4,2,3.7c0.5,1,1.2,1.5,2.4,1.4c3.8,0,7.6,0,11.4,0
					c1.9,0,3.5,0.6,4.5,2.3c0.1,0.2,0.2,0.4,0.4,0.7c-0.3,0-0.5,0.1-0.8,0.1c-7.2,0-14.3,0-21.5,0c-7.9,0-14.4-4.6-17.1-12.1
					c-2.5-6.8-0.2-15.1,5.6-19.5c4.4-3.3,8.9-6.3,13.4-9.5c2.7-1.9,5.4-3.8,8.1-5.7c1.2-0.9,2.4-1.8,3.5-2.9c0.4-0.3,0.7-0.7,1-1.1
					c0,0,0.1-0.1,0.1-0.1c0.5-0.5,0.9-1,1.3-1.6c0.1-0.1,0.2-0.2,0.3-0.3c1.3-1.8,2.4-3.7,3-4.9c0.1-0.2,0.2-0.3,0.2-0.5l0,0
					c0-0.1,0.1-0.2,0.1-0.3c0.1-0.3,0.2-0.5,0.2-0.5c1.4-3,2-6.3,2.7-9.5c0.8-3.9,3.9-7.9,7.4-9.5c0,0.2,0.1,0.4,0.1,0.6
					c0,1.1,0,2.2,0,3.3c-0.1,2.2,0.8,4,2.3,5.6c1.2,1.2,2.4,2.5,3.7,3.6c1.6,1.4,2.6,3,2.6,5.2c0,2.2,1.1,4,2.6,5.5
					c1.3,1.4,2.6,2.8,4,4.2C82.7,35.4,81.9,36,81.1,36.6z"/>
				<path d="M33.6,76.9c0,1.4-1.4,2.2-2.6,1.5c-2.1-1.2-3.8-2.9-5-5c-1.1-1.8-1.6-3.8-1.8-5.9c-0.1-1,0.5-1.8,1.4-2
					c0.9-0.2,1.7,0.4,1.9,1.4c0.4,1.4,0.6,2.9,1.2,4.2c0.7,1.8,2.1,3.1,3.7,4.1C33.1,75.7,33.6,76.2,33.6,76.9z"/>
				<path d="M24.6,60.4c0-0.9,0.7-1.7,1.7-1.7c0.9,0,1.6,0.8,1.6,1.6c0,0.9-0.8,1.7-1.7,1.7C25.3,62,24.6,61.3,24.6,60.4z"/>
				<path d="M71.2,25.7c-0.9,0-1.7-0.8-1.7-1.6c0-0.9,0.8-1.7,1.7-1.7c0.9,0,1.6,0.8,1.6,1.7C72.8,25,72.1,25.7,71.2,25.7z"/>
			</g>
		</g>
		<path d="M52.2,34.3c0.2-0.2,0.4-0.3,0.6-0.5c-0.3,0.4-0.7,0.7-1,1.1C51.9,34.6,52,34.4,52.2,34.3z"/>
		<path d="M65.9,21.5c0-2.1,2.7-4.1,4.6-2.6C68.5,19,67.4,20.2,65.9,21.5L65.9,21.5z"/>
	</g>
	<path class="st1" d="M28.9,36.3c-2.8-2.8-7.1-2.3-10.3-0.1c2.9-3.4,8-4.7,12-2.3C32.6,35,30.6,37.8,28.9,36.3L28.9,36.3z"/>
	<path class="st1" d="M10.6,80.8c-1.9,0.5-3.8,0.2-4.9-0.9c0,0,0,0,0,0c0,0,0,0,0,0c0,0,0,0,0,0c-0.1,0,0.1,0,0,0c0,0,0,0,0,0
		c0.1,0,0,0,0,0c-0.2,0.1,0.2-0.1,0,0c0.9,1.9,2.1,3.7,4.4,3.6C12,83.5,12.5,80.4,10.6,80.8z"/>
	<path class="st1" d="M16.2,37.5L16.2,37.5c-0.4,0-0.8-0.3-0.8-0.8l0,0c0-0.4,0.3-0.8,0.8-0.8h0c0.4,0,0.8,0.3,0.8,0.8l0,0
		C16.9,37.1,16.6,37.5,16.2,37.5z"/>
	<path class="st1" d="M32.9,38.2L32.9,38.2c-0.4,0-0.8-0.3-0.8-0.8l0,0c0-0.4,0.3-0.8,0.8-0.8h0c0.4,0,0.8,0.3,0.8,0.8l0,0
		C33.6,37.9,33.3,38.2,32.9,38.2z"/>
</g>
<g class="st0">
	<path class="st1" d="M86.3,53.6c-1.4-1.4-2.8-2.8-4.2-4.2c-2.2-2.3-4.8-3.4-7.9-3.3c-1.4,0-2.7,0-4.1,0v-7.9
		c2.3,0.1,4.5,0.2,6.5-0.5c0,0,0,0,0.1,0c0.6-0.2,5-2.2,5.1-8.1c-0.2-0.7-0.3-1.4-0.3-2.2c-0.1-0.9-0.2-1.4-0.4-1.7
		c-0.3-0.4-0.8-0.6-1.6-0.8c-1.3-0.3-2.6-0.8-3.9-1c-1.7-0.2-2.6-1-3.3-2.6c-1.3-3-3.6-4.9-6.8-5.6c-0.9-0.2-1.9-0.2-2.9-0.3
		c0-1.8,0-3.5,0-5.2c0-1.6-0.7-2.3-2.3-2.2c-4.1,0.1-7.6,2.9-8.8,7.1c-2,7.4-4.1,14.7-6.1,22.1C44.4,40.4,42.4,42,39,42
		c-4,0-8,0.1-12,0c-1.5,0-3-0.2-4.4-0.6c-3.9-1.1-6.6-3.6-8.3-7.2c-1.5-3.1-4.6-4.3-7.5-3.1c-3,1.3-4.4,4.7-2.9,7.8
		c2.2,4.9,5.7,8.6,10.3,11.3c0.4,0.2,0.7,0.4,0.9,0.6c-0.5,1.5-1.3,2.9-1.4,4.3c-0.3,3.1-0.3,6.3-0.6,9.4c0,0.6-0.3,1.3-0.7,1.7
		c-2.9,3-5.8,5.9-8.7,8.8c-1.4,1.4-2.1,3-1.8,4.9c0.3,2.3,1.6,4,3.9,4.7c2.2,0.7,4.2,0.2,5.9-1.5c2.9-2.9,5.8-5.9,8.8-8.7
		c0.4-0.4,1.1-0.8,1.7-0.9c2.6-0.3,4.9-1.1,6.9-2.8c1.7-1.4,3.3-3.1,5-4.6c0.4-0.4,1.1-0.7,1.6-0.7c11.5,0,23,0,34.5,0
		c0.5,0,1.1,0.3,1.5,0.6c1.3,1.2,2.6,2.6,3.9,3.8c1.8,1.7,4.4,2.1,6.5,1c2.2-1.1,3.4-3.4,3-6c-0.1-0.5-0.2-1-0.3-1.5
		c0.1-0.1,0.2-0.2,0.3-0.3C89,60.7,89.4,56.7,86.3,53.6z M7.4,37.2c-0.5-1.1-0.2-2.1,0.8-2.6c0.9-0.5,2-0.2,2.5,0.8
		c2,4.4,5.3,7.5,9.9,9.4c-1.1,1-2.1,1.8-3.1,2.7C12.9,45.3,9.6,41.9,7.4,37.2z M80.9,67c-0.8,0.8-1.8,0.8-2.8-0.1
		c-1.5-1.4-3-2.9-4.4-4.4c-0.7-0.7-1.4-1-2.3-1c-12.3,0-24.6,0-36.9,0.1c-0.7,0-1.6,0.4-2.2,0.9c-1.3,1.1-2.5,2.5-3.8,3.7
		c-2.1,2.1-4.6,3.4-7.7,3.5c-0.7,0-1.6,0.5-2.2,1c-3,2.9-6,5.9-9,8.9c-0.2,0.2-0.5,0.5-0.7,0.7c-0.9,0.8-1.9,0.9-2.7,0.1
		c-0.7-0.7-0.7-1.8,0.1-2.7c0.3-0.3,0.6-0.6,0.9-0.9c2.9-2.9,5.7-5.7,8.6-8.6c0.8-0.8,1.2-1.6,1.2-2.8c0-2.8-0.1-5.7,0.2-8.5
		c0.7-6.2,6.3-11.1,12.6-11.2c3.2-0.1,6.4,0,9.6,0c4.6,0,8.2-2.7,9.4-7.1c2.1-7.4,4.1-14.7,6.1-22.1c0.6-2,1.5-3.7,3.8-4.5
		c0,1.7,0,3.3,0,4.9c0,1.6,0.7,2.3,2.3,2.3c0.9,0,1.8,0,2.7,0c1.9,0.1,3.4,0.9,4.5,2.4c0.1,0.2,0.3,0.4,0.4,0.6c1,3.5,3.5,5,7,5.5
		c2.3,0.3,2.6,1.1,2.1,3.4c-0.4,2-1.9,3.1-4,3.2c-1.7,0-3.5,0-5.2,0c-1.4,0-2.1,0.7-2.1,2.1c0,6.3,0,12.6,0,18.9
		c0,1.4,0.7,2.1,2.2,2.2c1.2,0,2.4,0,3.5,0c1.5,0,2.7,0.5,3.8,1.5c1.7,1.6,3.4,3.3,5,5C81.7,65.1,81.7,66.2,80.9,67z M84,59.3
		C83.2,60.1,82,60,81.1,59c-0.1-0.1-0.2-0.2-0.3-0.3c-2.8-3.2-6-5.5-10.7-4.9V50c3.6-0.1,7.2-0.7,9.9,2.7c1.1,1.4,2.5,2.5,3.7,3.8
		C84.7,57.4,84.7,58.5,84,59.3z"/>
</g>
<g class="st0">
	<g class="st1">
		<path d="M12.2,58.9c4-6.9,7.1-14.2,8.8-22.1c1.1-4.9,1.5-9.9,1.5-15c0-3.1,0-6.1,0-9.2C22.6,6.3,28,1.1,34.3,1.1
			c3.4,0,6.9,0,10.3,0C48.7,1,52,2.7,54.5,6c0.5,0.6,1,1.3,1.5,1.9c1.8,2.3,4.1,3.4,7,3.5c1.3,0,2.6-0.1,3.9,0.2
			c3.2,0.6,5.4,3.4,5.4,6.6c0,1,0.1,2.1-0.1,3.1c-0.4,2.3-1.7,4-3.8,5.1c-4.3,2.1-8.5,4.3-12.8,6.4c-1.6,0.8-2.5,1.9-2.5,3.7
			c0,0.9-0.7,1.6-1.6,1.6c-0.9,0-1.6-0.7-1.7-1.6c-0.2-2.6,1.3-5.2,3.8-6.5c3.6-1.8,7.3-3.7,10.9-5.5c0.8-0.4,1.6-0.8,2.4-1.2
			c1.2-0.6,1.9-1.6,1.9-2.9c0-0.9,0.1-1.8,0-2.7c-0.1-1.6-1.3-2.8-2.9-2.9c-1.2-0.1-2.3-0.1-3.5-0.1c-3.8-0.2-6.9-1.8-9.2-4.8
			c-0.5-0.6-0.9-1.2-1.4-1.9c-1.7-2.2-3.9-3.5-6.6-3.6c-1.1,0-2.3,0-3.4,0c-0.4,0-0.6,0.2-0.6,0.6c-0.5,5.7-1.1,11.5-1.6,17.2
			c-0.3,2.8-0.5,5.5-0.8,8.3c-0.2,2-1.6,3.5-3.4,3.8c-2,0.4-3.8-0.5-4.7-2.3c-1.5-2.9-2.9-5.9-4.3-8.8c-0.1-0.2-0.3-0.5-0.5-1
			c0,0.5-0.1,0.9-0.1,1.2c-0.1,13.2-3.9,25.3-10.4,36.7c-0.8,1.4-2.1,1.3-3.2-0.1C12.2,59.6,12.2,59.3,12.2,58.9z M37.8,4.5
			c-1.4,0-2.6-0.1-3.9,0c-3.7,0.2-6.7,2.7-7.7,6.2c-0.5,1.8-0.6,3.5,0.4,5.2c1.1,1.9,1.9,3.9,2.8,5.8c1.4,2.8,2.7,5.7,4.1,8.5
			c0.2,0.5,0.6,0.8,1.2,0.7c0.5-0.1,0.7-0.5,0.7-1c0.1-0.9,0.2-1.8,0.3-2.6c0.3-3.6,0.7-7.1,1-10.7C37,12.6,37.4,8.6,37.8,4.5z"/>
	</g>
	<g class="st1">
		<path d="M69.7,36.6c-0.1,1.6,0,3.2,0.8,4.7c1.3,2.3,3.3,3.4,5.9,3.6c0.4,0,0.7,0,1.1,0c0,0,0.1,0,0.2,0.1c0,0.2,0,0.3,0,0.5
			c0,3.9,0,7.7,0,11.6c-0.1,8-2.6,15.1-7.8,21.2c-2.3,2.6-5,4.8-8,6.5c-2.3,1.3-4.5,2.7-6.8,4c-0.3,0.2-0.5,0.2-0.8,0
			c-2.9-1.8-5.9-3.4-8.8-5.3C39.1,79.3,34.9,73.4,32.8,66c-0.8-2.9-1.2-5.8-1.2-8.8c0-3.9,0-7.8,0-11.7c0-0.2,0-0.3,0-0.5
			c0.9-0.1,1.8-0.1,2.6-0.3c3.1-0.6,5.4-3.4,5.4-6.6c0-0.5,0-1,0-1.5C49.7,36.6,59.7,36.6,69.7,36.6z M34.7,47.8c0,0.1,0,0.2,0,0.3
			c0,3.1,0,6.1,0,9.2c0,2.4,0.3,4.7,0.9,7c1.7,6.6,5.2,12.1,10.9,16.1c2.6,1.8,5.3,3.3,8,4.9c0.1,0.1,0.4,0,0.6-0.1
			c2-1.1,3.9-2.3,5.9-3.5c2.5-1.5,4.8-3.3,6.7-5.5c4.3-4.9,6.6-10.6,7-17.1c0.2-3.7,0.1-7.3,0.1-11c0-0.3-0.2-0.4-0.4-0.5
			c-2.8-0.7-5-2.3-6.4-4.8c-0.5-1-0.9-2.1-1.3-3.1c-7.9,0-16,0-24,0C41.6,44,39,46.7,34.7,47.8z"/>
		<path d="M54.7,47.3c7.4,0,13.4,6,13.4,13.4c0,7.4-6,13.4-13.4,13.4c-7.4,0-13.4-6-13.4-13.4C41.3,53.2,47.3,47.3,54.7,47.3z
			 M54.7,50.3c-5.7,0-10.3,4.6-10.4,10.3C44.3,66.3,49,71,54.7,71C60.3,71,65,66.4,65,60.7C65,55,60.4,50.3,54.7,50.3z"/>
		<path d="M48.2,59.1c1.6,0,3.2,0,4.9,0c0-1.7,0-3.3,0-4.9c1,0,2,0,3.1,0c0,1.6,0,3.2,0,4.9c1.7,0,3.3,0,4.9,0c0,1,0,2,0,3.1
			c-1.6,0-3.2,0-4.9,0c0,1.7,0,3.3,0,4.9c-1,0-2,0-3.1,0c0-1.6,0-3.2,0-4.9c-1.7,0-3.3,0-4.9,0C48.2,61.2,48.2,60.2,48.2,59.1z"/>
	</g>
</g>
<g>
	<path d="M29.2,39.5c0.6-5.2-1.2-9.3-5.3-12.4c-1.4-1.1-3-1.9-4.5-2.6c-3.8-1.8-7.1-4.3-9.4-7.8c-1.2-1.8-2-3.8-1.6-6
		c0.4-2.3,1.3-3,3.6-2.5c1.7,0.3,3.3,0.8,5,1.2c0.9,0.2,1.8,0.5,2.7,0.6c2.6,0.3,5-0.5,6.4-2.7c1.8-2.7,4.4-3.7,7.3-3.9
		c6.9-0.4,12.9,1.8,17.5,7.1c1.4,1.6,2.1,3.8,2.9,5.8c0.7,1.8,0,3.5-1.4,4.7c-1.8,1.5-3.7,2.9-5.8,3.9c-2.7,1.3-5.5,2.1-8.3,3.1
		c-1.8,0.6-3.5,0.3-4.9-1.1c-0.7-0.7-1.3-1.5-1.9-2.2c-1-1.2-1.2-2.6-0.5-4c0.9-1.6,1.8-3.2,3-4.5c2-2,4.3-3.7,6.5-5.6
		c0.2-0.1,0.4-0.3,0.6-0.4c0.6-0.4,0.9-1,0.4-1.6c-0.4-0.6-1-0.6-1.6-0.2c-3.7,2.5-7.2,5.3-9.7,9.1c-0.7,1.1-1.2,2.3-1.6,3.5
		c-0.4,1.4-0.3,2.9,0.6,4.1c0.9,1.3,1.9,2.6,3.1,3.7c1.8,1.7,4,2.3,6.3,1.5c3.7-1.3,7.5-2.7,11-4.3c2-0.9,3.6-2.5,5.4-3.8
		c0.5,2.8,0.8,5.8,1.9,8.6c0.2,0.4,0.6,0.7,1.1,0.7c0,0,0,0,0,0c0.7-0.1,1.2-0.8,0.9-1.5c-0.2-0.5-0.4-1.1-0.5-1.6
		c-0.8-3.4-1.2-6.9-1.9-10.3c-0.9-4.6-2.8-8.7-6.7-11.5c-4.7-3.4-9.9-5.3-15.7-5c-3.8,0.2-7.2,1.1-9.5,4.6c-1.2,1.7-2.9,2.4-5,1.9
		c-0.6-0.1-1.2-0.3-1.8-0.4c-2.1-0.4-4.2-1-6.4-1.3C8.6,5.6,7.2,6.8,6.5,9.5c-0.7,2.9,0,5.5,1.5,7.9c2.5,4.1,6.1,6.9,10.3,8.9
		c1.2,0.6,2.5,1.2,3.6,2c3.6,2.4,5.4,5.8,5.2,10.2c-0.1,2.6-1.1,5.1-2.2,7.4c-2.9,6.2-3.2,12.4-0.8,18.6c0.2,0.6,1,0.9,1.5,0.6
		c0.5-0.3,0.7-0.8,0.5-1.4c-2.1-5.6-1.9-11.2,0.7-16.8C28,44.6,28.9,42.2,29.2,39.5z"/>
	<path d="M83.7,42.1c-0.2-3.1-1.7-4.6-4.8-4.3c-2,0.2-3.9,0.8-5.8,1.2c-2,0.5-3.7,0.1-4.9-1.7c-0.4-0.6-0.8-1.1-1.3-1.5
		c-0.8-0.7-1.7-1.1-2.7-1.4c0,0,0,0,0,0c-0.6-0.2-1.3-0.4-1.9-0.6c0,0,0,0,0,0c-1.3-0.3-2.5-0.4-3.7-0.3c-4,0.2-7,2-7.1,2h0
		c-4.5,1.9-8,4.9-9.7,10.1c-0.7,2.1-1,4.4-1.5,6.6c-0.3,1.4-0.5,2.9-1,4.3c-1.2,3.6-3.7,6-6.6,7.9l0,0c-1,0.6-2.1,1.2-3.2,1.8
		c0,0-0.1,0-0.1,0c-0.1,0-0.2,0.1-0.3,0.1l0,0c-1.2,0.6-0.4,2.5,0.9,2c0.1,0,0.2-0.1,0.3-0.1c5.7-2.6,10.2-6.4,11.6-12.9
		c0.3-1.5,0.6-3,0.9-4.7c2.3,2.9,5.3,4.4,8.5,5.6c1.4,0.6,2.9,1,4.3,1.5c4,1.3,8.3-1.1,9.4-5.2c0.6-2.1-0.3-3.9-1.4-5.6
		c-2.1-3-4.9-5.3-7.9-7.3c-0.6-0.4-1.2-0.4-1.7,0.2c-0.4,0.6-0.1,1.1,0.4,1.6c1.1,0.8,2.3,1.5,3.3,2.5c1.7,1.7,3.2,3.4,4.7,5.3
		c0.8,1,1,2.3,0.2,3.5c-0.6,0.9-1.3,1.8-2.2,2.5c-0.9,0.9-2.1,1.2-3.3,0.7c-3-1.1-6-2.2-8.9-3.5c-1.1-0.5-2.2-1.3-3-2.3
		c-0.7-0.8-1-1.9-1.2-3c-0.3-1.8,0.6-3.4,1.7-4.7c4-4.7,9.2-6.9,15.4-6.5c2.2,0.1,4.1,1,5.4,2.9c1.5,2.2,3.8,2.9,6.5,2.3
		c1.9-0.5,3.8-0.9,5.8-1.3c1.5-0.3,2.1,0.3,2.4,1.7c0.4,1.8-0.2,3.4-1.1,4.9c-1.8,3-4.5,5-7.6,6.6c-0.9,0.4-1.8,0.8-2.6,1.3
		c-4,2.5-6.3,6.1-5.8,10.9c0.3,2.3,1.1,4.5,2,6.6c2.1,4.9,2.3,9.7,0.3,14.5c-0.3,0.8-1,1.6,0.1,2.3c0.7,0.4,1.3,0,1.9-1.4
		c2.3-5.4,2.2-10.8-0.3-16.2c-0.5-1.2-1.1-2.4-1.4-3.6c-1.4-4.9,0.3-8.9,4.7-11.5c0.6-0.3,1.2-0.6,1.8-0.9c3.1-1.4,5.8-3.4,7.9-6.1
		C82.9,47,83.9,44.8,83.7,42.1z"/>
	<path d="M27.1,9.4c-0.8,0-1.4,0.4-1.4,1.3c0,0.9,0.5,1.3,1.2,1.4c0.9,0,1.4-0.5,1.5-1.3C28.5,10,27.9,9.4,27.1,9.4z"/>
	<path d="M66.1,40.6c-0.8,0-1.4,0.4-1.4,1.3c0,0.9,0.5,1.3,1.2,1.4c0.9,0,1.4-0.5,1.5-1.3C67.5,41.1,66.9,40.6,66.1,40.6z"/>
</g>
</svg>
