<svg x="0px" y="0px"
	 viewBox="0 0 28 28" xml:space="preserve">
<style type="text/css">
	.st0{display:none;}
	.st1{display:inline;}
</style>
<g class="st0">
	<path class="st1" d="M25.5,9.4c-1.3,0-2.6,0-3.9,0h-0.3V5.2c0-1.3-1.1-2.4-2.3-2.4c-3.4,0-6.8,0-10.1,0c-2.1,0-4.2,0-6.3,0
		c-0.6,0-1.1,0.2-1.6,0.6C0.5,3.9,0.3,4.4,0.2,4.9v10.5c0,0,0,0.1,0,0.1c0.3,1.2,1.2,1.9,2.5,1.9c0.9,0,1.7,0,2.6,0
		c0.2,0,0.3,0.1,0.5,0.2c1.3,1.3,2.6,2.6,4,4c0.1,0.1,0.1,0.1,0.2,0.2v-4.4h1.6v0.7c0,1.5,1,2.5,2.5,2.5h5.6v4.4c0,0,0,0,0.1,0
		c0-0.1,0.1-0.2,0.2-0.2c1.3-1.3,2.6-2.7,3.9-4c0.2-0.2,0.3-0.2,0.5-0.2c0.4,0,0.8,0,1.1,0c1.2,0,2.3-1.1,2.3-2.3c0-2.2,0-4.5,0-6.7
		C27.8,10.5,26.8,9.4,25.5,9.4z M8.3,15.8v2.1c-0.1-0.1-0.2-0.1-0.2-0.2C7.6,17.2,7,16.6,6.4,16c-0.1-0.1-0.3-0.2-0.4-0.2
		c-1.1,0-2.2,0-3.2,0c-0.6,0-1-0.3-1-1V5.5c0-0.6,0.3-1,1-1h16c0.6,0,1,0.3,1,0.9v9.5c0,0.6-0.3,0.9-1,0.9H8.3z M26.2,18.1
		c0,0.6-0.3,0.9-0.9,0.9c-0.5,0-1.1,0-1.6,0c-0.2,0-0.4,0.1-0.5,0.2c-0.6,0.6-1.2,1.2-1.9,1.8v-2h-7.1c-0.7,0-1-0.3-1-1v-0.6h5.6
		c1.5,0,2.5-1,2.5-2.5V11c0.1,0,0.2,0,0.3,0h3.7c0.6,0,0.9,0.3,0.9,1V18.1z"/>
</g>
<path class="st0" d="M9.3,7.2c0.4,0.4,0.8,0.8,1.2,1.2c-0.6,0.6-1.2,1.2-1.8,1.8c0.6,0.6,1.2,1.2,1.8,1.8c-0.4,0.4-0.8,0.8-1.2,1.2
	c-0.6-0.6-1.2-1.2-1.8-1.8c-0.6,0.6-1.2,1.2-1.8,1.8c-0.4-0.4-0.8-0.8-1.1-1.1c0.6-0.6,1.2-1.2,1.8-1.8C5.7,9.6,5.1,9,4.5,8.4
	C4.9,8,5.3,7.6,5.7,7.2C6.3,7.8,6.9,8.4,7.5,9C8.1,8.4,8.7,7.8,9.3,7.2z"/>
<g class="st0">
	<g class="st1">
		<path d="M3.2,6.9L3.2,6.9c0-0.4,0.2-0.8,0.5-0.8h5.8c0.3,0,0.5,0.4,0.5,0.8v0c0,0.4-0.2,0.8-0.5,0.8H3.7C3.4,7.7,3.2,7.4,3.2,6.9z
			"/>
	</g>
	<g class="st1">
		<path d="M3.2,10.2L3.2,10.2c0-0.4,0.2-0.8,0.5-0.8h5.8c0.3,0,0.5,0.4,0.5,0.8v0c0,0.4-0.2,0.8-0.5,0.8H3.7
			C3.4,11,3.2,10.6,3.2,10.2z"/>
	</g>
	<g class="st1">
		<path d="M10,13.4L10,13.4c0,0.4-0.2,0.8-0.5,0.8H3.7c-0.3,0-0.5-0.4-0.5-0.8v0c0-0.4,0.2-0.8,0.5-0.8h5.8C9.7,12.6,10,13,10,13.4z
			"/>
	</g>
</g>
<g class="st0">
	<g class="st1">
		<path d="M18.7,7.2v0.9c0,0.7-0.5,1.2-1.2,1.2c-0.2,0-0.5,0-0.8,0h-0.2c-0.2,0-0.3-0.1-0.4-0.2C16.1,9.1,16,8.9,16,8.8
			c0-0.3,0.2-0.5,0.6-0.5h0.3c-0.5-0.5-1-0.9-1.7-1c-0.9-0.2-1.7,0-2.4,0.5c-0.7,0.5-1.1,1.2-1.2,2c-0.1,0.8,0.1,1.6,0.6,2.2
			c0.5,0.6,1.1,1,1.9,1.1c0.1,0,0.3,0,0.4,0h0.2c0.1,0,0.2,0,0.2,0c0.3,0.1,0.4,0.3,0.4,0.6c0,0.3-0.2,0.5-0.5,0.5l-0.6,0l-0.2,0
			c-0.1,0-0.2,0-0.3,0c-1-0.2-1.8-0.7-2.5-1.5c-0.4-0.5-0.7-1.1-0.8-1.8c0-0.1,0-0.2,0-0.3l0-0.1V9.9l0-0.2c0-0.1,0-0.2,0-0.3
			c0.1-0.7,0.4-1.2,0.8-1.8c0.6-0.8,1.5-1.3,2.5-1.5c1.2-0.2,2.3,0,3.3,0.8c0.2,0.1,0.3,0.3,0.5,0.4V7.2c0-0.3,0.2-0.5,0.5-0.5
			S18.7,6.9,18.7,7.2z"/>
	</g>
	<g class="st1">
		<path d="M18.6,11c0,0.1,0,0.2-0.1,0.4c-0.1,0.2-0.3,0.4-0.5,0.4c0,0,0,0,0,0c-0.2,0-0.3-0.1-0.4-0.2c-0.1-0.1-0.1-0.3-0.1-0.5
			c0-0.1,0.1-0.3,0.1-0.4c0.1-0.3,0.4-0.4,0.7-0.3C18.5,10.4,18.7,10.7,18.6,11z"/>
	</g>
	<g class="st1">
		<path d="M16.7,13.7c-0.1,0.1-0.2,0.1-0.3,0.2c-0.1,0-0.1,0-0.2,0l-0.1,0c-0.2,0-0.5-0.2-0.5-0.4c-0.1-0.2,0-0.5,0.2-0.6
			c0.1-0.1,0.2-0.1,0.4-0.2c0.3-0.1,0.6,0,0.7,0.3S16.9,13.5,16.7,13.7z"/>
	</g>
	<g class="st1">
		<path d="M17.9,12.5c-0.1,0.1-0.2,0.2-0.3,0.3C17.6,13,17.4,13,17.3,13c-0.1,0-0.3,0-0.4-0.1c-0.2-0.2-0.3-0.5-0.1-0.7
			c0.1-0.1,0.2-0.2,0.2-0.3c0.1-0.1,0.2-0.2,0.4-0.2c0.2,0,0.4,0.1,0.5,0.3C18.1,12.2,18,12.4,17.9,12.5z"/>
	</g>
</g>
<g class="st0">
	<path class="st1" d="M21.9,1.5c-0.2,1.7-0.2,1.7-1.7,1.7c-5,0-10.1,0-15.1,0c-0.4,0-0.8,0-1.3,0c0-0.3,0-0.6,0-1
		c5.7,0,11.3,0,17.1,0c0-0.6,0-1.2,0-1.7c0-0.5,0.4-0.8,0.8-0.4c1.8,1.4,3.6,2.8,5.4,4.2c0,0,0,0.1,0.1,0.2
		c-0.1,0.2-0.3,0.4-0.5,0.6c-1.6,1.3-3.2,2.7-4.8,4c-0.1,0-0.1,0.1-0.2,0.1c-0.6,0.4-0.9,0.3-1-0.4c0-0.6,0-1.3,0-2
		c-0.4,0-0.7,0-1,0c-3,0-5.9,0-8.9,0c-4.5,0-8.3,3-9.6,7.3c-1.5,5.5,2.2,11.3,7.8,12.3c0.6,0.1,1.1,0.2,1.7,0.3
		c0,0.2,0.1,0.5,0.1,0.9c-0.5,0-0.9,0.1-1.4,0c-5.1-0.7-8.9-4.6-9.5-9.6C-0.5,11.8,3.7,7,8.7,6c0.7-0.1,1.5-0.2,2.2-0.2
		c3.2,0,6.3,0,9.5,0c0.2,0,0.4,0,0.6,0c0.7,0,0.8,0.1,0.8,0.8c0,0.4,0,0.7,0,1.3c1.4-1.2,2.7-2.2,4.1-3.4
		C24.6,3.4,23.3,2.5,21.9,1.5z"/>
	<path class="st1" d="M11,23.4c-3.7,0.1-6.8-3-6.8-6.7c0-3.8,3.2-6.9,6.8-6.9c3.7,0,6.8,3.1,6.8,6.8C17.8,20.4,14.7,23.4,11,23.4z
		 M15.7,13.2c-0.4-0.4-0.9-0.9-1.3-1.3c-0.2,0.3-0.4,0.5-0.6,0.7c-0.2-0.2-0.5-0.3-0.7-0.5c0.1-0.3,0.2-0.5,0.3-0.8
		c-0.6-0.2-1.2-0.3-1.8-0.5c-0.1,0.5-0.1,0.9-0.2,1.3c-0.3,0-0.6,0-0.8-0.1c0-0.4-0.1-0.8-0.1-1.3c-0.7,0.2-1.3,0.3-1.8,0.5
		c0.1,0.3,0.2,0.6,0.3,0.8c-0.3,0.1-0.5,0.3-0.7,0.4c-0.2-0.2-0.4-0.4-0.6-0.6c-0.5,0.4-0.9,0.8-1.4,1.2c0.3,0.3,0.5,0.4,0.7,0.6
		c-0.2,0.2-0.3,0.5-0.5,0.7c-0.3-0.1-0.5-0.2-0.8-0.3c-0.2,0.6-0.3,1.2-0.5,1.8c0.5,0.1,0.9,0.1,1.3,0.2c0,0.3-0.1,0.6-0.1,0.8
		c-0.4,0-0.8,0.1-1.3,0.1c0.2,0.7,0.3,1.3,0.5,1.8c0.3-0.1,0.6-0.2,0.8-0.3c0.1,0.3,0.3,0.5,0.4,0.7c-0.2,0.2-0.4,0.4-0.7,0.6
		c0.4,0.5,0.9,0.9,1.3,1.3c0.2-0.3,0.4-0.5,0.6-0.7c0.2,0.2,0.5,0.3,0.7,0.5c-0.1,0.3-0.2,0.5-0.3,0.8c0.6,0.2,1.2,0.3,1.8,0.5
		c0.1-0.5,0.1-0.9,0.2-1.3c0.3,0,0.6,0.1,0.8,0.1c0,0.4,0.1,0.8,0.1,1.3c0.7-0.2,1.2-0.3,1.8-0.5c-0.1-0.3-0.2-0.6-0.3-0.8
		c0.3-0.1,0.5-0.3,0.7-0.4c0.2,0.2,0.4,0.4,0.6,0.7c0.5-0.4,0.9-0.9,1.3-1.3c-0.3-0.2-0.5-0.4-0.7-0.6c0.2-0.2,0.3-0.5,0.5-0.7
		c0.3,0.1,0.5,0.2,0.8,0.3c0.2-0.7,0.3-1.2,0.5-1.8c-0.5-0.1-0.9-0.1-1.3-0.2c0-0.3,0.1-0.6,0.1-0.8c0.4,0,0.8-0.1,1.3-0.1
		c-0.2-0.7-0.3-1.2-0.5-1.8c-0.3,0.1-0.6,0.2-0.8,0.3c-0.1-0.3-0.3-0.5-0.4-0.7C15.3,13.6,15.5,13.4,15.7,13.2z"/>
	<path class="st1" d="M10.5,13c0.4,0,0.6,0,0.9,0c0,1.1,0,2.2,0,3.2c0.7,0.4,1.3,0.8,2,1.3c-0.1,0.3-0.3,0.5-0.4,0.8
		c-0.8-0.5-1.5-0.8-2.1-1.3c-0.2-0.1-0.4-0.4-0.4-0.6C10.5,15.4,10.5,14.3,10.5,13z"/>
</g>
<g>
	<path d="M10.5,25.8c-1.5,0.1-3,0-4.4,0c-0.6,0-1.2,0-1.8,0c-0.8,0-0.9-0.1-0.9-1V3.1c0-0.8,0.1-0.9,0.9-0.9l12.5,0
		c0.1,0,0.2,0,0.3,0l0,5.5c0,0.9,0.2,1.1,1,1.1h5.3v2.3c0,1,0.2,1.2,1.2,1.4l0.3,0l0-1.4c0-1,0-2,0-3c0-0.4-0.1-0.8-0.5-1.1
		c-1.9-1.9-3.7-3.9-5.6-5.9c-0.3-0.3-0.7-0.5-1.2-0.5c0,0,0,0,0,0c-2.8,0-5.5,0-8.3,0c0,0,0,0,0,0l-5.1,0c-1.6,0-2.4,0.8-2.4,2.4
		c0,7.3,0,14.6,0,21.9c0,1.6,0.8,2.4,2.4,2.4c1.1,0,2.3,0,3.4,0c1,0,2,0,3,0h1.1c0.1,0,0.2,0,0.3,0l0.7,0l-0.3-0.4
		C11.9,26.3,11.5,25.7,10.5,25.8z M18.6,7.3V3.1l3.9,4.1H18.6z"/>
	<path d="M24.6,19.8c-0.3,0.2-0.4,0.6-0.4,0.7c-0.5,2.9-2.7,4.9-5.6,5.1c-3.3,0.2-6-2-6.5-5.4c-0.4-3,1.8-6,4.8-6.6
		c0.4-0.1,0.7-0.1,1.1-0.1c0.3,0,0.6,0,1-0.1c0.3,0,0.7-0.4,0.8-0.7c0-0.3-0.2-0.6-0.5-0.8c-0.1-0.1-0.3-0.1-0.5-0.1l-0.1,0
		c-2.3-0.2-4.6,0.7-6.1,2.4c-1.6,1.7-2.4,3.9-2.1,6.2c0.4,3.9,3.7,6.8,7.6,6.9c0,0,0,0,0,0c3.9,0,7.1-2.8,7.7-6.6
		c0-0.3-0.1-0.6-0.3-0.8C25.3,19.7,24.8,19.7,24.6,19.8z"/>
	<path d="M26.1,14c-0.2-0.2-0.5-0.2-0.8-0.2c-0.2,0-0.3,0.1-0.4,0.2l-5.8,5.5c-0.1,0.1-0.2,0.2-0.3,0.3l0,0l-0.3-0.3
		c-0.6-0.6-1.1-1.2-1.7-1.7c-0.2-0.2-0.4-0.4-0.7-0.4c-0.2,0-0.4,0.1-0.5,0.3c-0.4,0.4-0.3,0.8,0.2,1.3c0.5,0.5,0.9,0.9,1.4,1.4l1,1
		c0.3,0.3,0.5,0.4,0.8,0.4c0.2,0,0.5-0.1,0.7-0.4c2.1-2,4.2-4,6.3-6l0.1-0.1c0.1-0.1,0.3-0.3,0.3-0.5C26.3,14.7,26.3,14.2,26.1,14z"
		/>
	<path d="M5.1,5.5c0.2,0.1,0.4,0.1,0.5,0.1c0,0,0,0,0,0c0.7,0,1.4,0,2.1,0l0.8,0l0.8,0c0.7,0,1.4,0,2.1,0c0.2,0,0.5,0,0.8-0.2
		c0.1-0.1,0.2-0.3,0.2-0.5c0-0.5-0.3-0.7-1-0.7c0,0,0,0,0,0c-1.9,0-3.8,0-5.7,0c0,0,0,0,0,0c-0.3,0-0.6,0-0.8,0.2
		C4.8,4.5,4.8,4.7,4.8,4.9C4.8,5.3,5,5.5,5.1,5.5z"/>
	<path d="M12.4,7.4c0-0.2-0.1-0.4-0.2-0.5c-0.2-0.2-0.5-0.2-0.7-0.2c-0.7,0-1.3,0-2,0l-0.9,0l-0.8,0c-0.7,0-1.4,0-2.1,0
		c-0.3,0-0.5,0-0.7,0.2C4.8,7,4.7,7.2,4.8,7.4c0,0.2,0.1,0.7,0.9,0.7c0,0,0,0,0,0c2,0,3.9,0,5.9,0C12.3,8.1,12.4,7.6,12.4,7.4z"/>
	<path d="M8.5,9.3c-1,0-1.9,0-2.9,0c0,0,0,0,0,0c-0.7,0-0.8,0.4-0.8,0.7c0,0.3,0.1,0.4,0.2,0.5c0.1,0.2,0.4,0.2,0.7,0.2l2.9,0
		c0.5,0,0.8-0.3,0.8-0.7c0-0.3-0.1-0.4-0.2-0.5C8.9,9.3,8.7,9.3,8.5,9.3C8.5,9.3,8.5,9.3,8.5,9.3z"/>
</g>
</svg>
