<svg x="0px" y="0px"
	viewBox="0 0 90 90" xml:space="preserve">
<g>
	<path d="M25.7,87.2c-2-0.4-3.8-1.2-5.2-2.8c-1.4-1.6-2.1-3.4-2.1-5.4c0-1.8,0-3.7,0-5.5c0-1,0.5-1.7,1.4-1.7c0.9,0,1.4,0.6,1.4,1.7
		c0,1.8,0,3.6,0,5.4c0,3.2,2.7,5.7,5.9,5.6c3.1-0.1,5.6-2.9,5.3-6c-0.1-0.7-0.3-1.4-0.6-2.1c-1.2-3,0.7-5.9,4-5.9
		c13.5,0,26.9,0,40.4,0c0.3,0,0.7,0,1.2,0c0-0.4,0-0.7,0-1c0-19.2,0-38.4,0-57.6c0-3.7-2.3-6-6-6c-17.1,0-34.2,0-51.3,0
		c-0.3,0-0.6,0-1,0c1.1,1.4,1.8,2.8,2,4.4c0,0.3,0.1,0.7,0.1,1c0,6.5,0,13,0,19.5c0,0.7-0.1,1.3-0.8,1.5c-0.4,0.1-1.1,0.2-1.4-0.1
		c-0.4-0.3-0.6-0.9-0.6-1.4c-0.1-3.3,0-6.6,0-9.9c0-0.3,0-0.6,0-1c-1.9,0-3.7,0-5.6,0c-4.2,0-7.6-2.9-8.3-7C3.6,8.2,6.5,4,11,3
		c0.2,0,0.3-0.1,0.5-0.2c20.5,0,41,0,61.5,0c0,0,0.1,0.1,0.1,0.1c4.8,1.2,7.1,4.2,7.1,9.1c0,19.1,0,38.2,0,57.2c0,0.4,0,0.8,0,1.1
		c3.6,1,5.6,2.8,6.6,5.7c0.2,0.5,0.3,1,0.5,1.5c0,0.8,0,1.5,0,2.3c-0.1,0.2-0.1,0.3-0.2,0.5c-0.5,2.5-1.9,4.4-4.1,5.6
		c-1,0.6-2.2,0.8-3.3,1.2C61.6,87.2,43.7,87.2,25.7,87.2z M33,84.4c0.5,0,0.8,0,1.1,0c9.5,0,19.1,0,28.6,0c5.3,0,10.5,0,15.8,0
		c3.1,0,5.7-2.5,5.8-5.4c0.1-3.2-2.4-5.8-5.7-5.8c-14.2,0-28.4,0-42.6,0c-0.2,0-0.4,0-0.5,0c-1,0.1-1.6,1-1.2,2
		C35.8,78.4,35.3,81.4,33,84.4z M18.3,16.7c0-1.8,0-3.7,0-5.6c0-2.9-2.4-5.3-5.2-5.5c-3-0.2-5.5,1.9-6,4.9c-0.4,2.8,1.5,5.8,4.4,6.1
		C13.7,17,15.9,16.7,18.3,16.7z"/>
	<path d="M2.8,50.3c0.5-1.7,0.7-3.5,1.4-5.1C7,38.6,12,34.8,19,33.9c9.8-1.2,18.5,5.6,20.1,15.3c1.6,9.6-5.1,19-14.7,20.7
		C14.3,71.8,4.7,65.1,3.1,54.9c-0.1-0.4-0.1-0.7-0.2-1.1C2.8,52.6,2.8,51.4,2.8,50.3z M21.1,36.6c-8.6,0-15.5,6.9-15.5,15.4
		c0,8.6,7,15.5,15.6,15.5c8.5,0,15.3-7,15.3-15.6C36.5,43.5,29.5,36.5,21.1,36.6z"/>
	<path d="M62.2,25.3c1.2,1.5,2.3,3.1,3.4,4.6c0.6,0.8,0.6,1.4,0,2c-0.6,0.7-1.6,0.6-2.3-0.3c-0.5-0.6-1-1.3-1.5-2
		c-0.5-0.6-0.9-1.3-1.5-2c-0.8,1-1.5,2-2.3,3c-0.2,0.3-0.5,0.7-0.7,1c-0.6,0.7-1.4,0.9-2.1,0.3c-0.6-0.5-0.7-1.3-0.2-2
		c1.1-1.6,2.3-3.1,3.5-4.7c-1.1-1.5-2.2-3-3.3-4.5c-0.7-0.9-0.7-1.7,0-2.2c0.7-0.6,1.5-0.4,2.2,0.6c0.9,1.2,1.9,2.5,2.9,3.8
		c1-1.3,1.9-2.6,2.9-3.8c0.7-0.9,1.4-1.1,2.2-0.6c0.7,0.5,0.8,1.3,0.1,2.2C64.5,22.3,63.4,23.8,62.2,25.3z"/>
	<path d="M53.4,30.8c0,0.8-0.4,1.3-1,1.5c-0.7,0.2-1.2,0-1.6-0.6c-0.2-0.4-0.4-0.9-0.6-1.4c-0.2-0.6-0.5-0.8-1.1-0.8
		c-1,0-1.9,0-2.9,0c-0.5,0-0.8,0.1-0.9,0.6c-0.1,0.4-0.3,0.9-0.5,1.3c-0.4,0.8-1.1,1.1-1.8,0.8c-0.8-0.3-1.1-1-0.8-1.9
		c1.1-3,2.2-5.9,3.3-8.8c0.3-0.8,0.5-1.5,0.8-2.3c0.2-0.6,0.7-1,1.4-1c0.7,0,1.1,0.4,1.3,1c1.4,3.7,2.7,7.3,4.1,11
		C53.3,30.5,53.4,30.7,53.4,30.8z M48.9,26.7c-0.4-1-0.7-1.8-1.1-3c-0.4,1.1-0.8,2-1.1,3C47.5,26.7,48.2,26.7,48.9,26.7z"/>
	<path d="M55.5,53.4c-3.8,0-7.6,0-11.4,0c-0.2,0-0.4,0-0.6,0c-0.8-0.1-1.3-0.7-1.3-1.4c0-0.7,0.5-1.3,1.3-1.4c0.2,0,0.5,0,0.7,0
		c7.6,0,15.1,0,22.7,0c0.1,0,0.2,0,0.4,0c1,0,1.6,0.6,1.6,1.4c0,0.8-0.6,1.4-1.6,1.4c-2.3,0-4.6,0-6.8,0
		C58.8,53.4,57.2,53.4,55.5,53.4z"/>
	<path d="M55.5,59.1c3.9,0,7.7,0,11.6,0c0.4,0,0.9,0,1.1,0.2c0.3,0.4,0.7,1,0.6,1.4c-0.1,0.4-0.6,0.8-1,1.1c-0.1,0.1-0.4,0-0.6,0
		c-7.7,0-15.5,0-23.2,0c-0.7,0-1.3-0.1-1.5-0.8c-0.1-0.4-0.1-1.1,0.1-1.4c0.3-0.4,0.9-0.6,1.4-0.6C47.8,59,51.7,59.1,55.5,59.1z"/>
	<path d="M36.6,21.1c-1,0-1.8,0-2.6,0c-1,0-1.6-0.6-1.6-1.4c0-0.8,0.6-1.4,1.6-1.4c2.7,0,5.4,0,8.1,0c1,0,1.6,0.6,1.6,1.4
		c0,0.8-0.6,1.4-1.6,1.4c-0.8,0-1.7,0-2.7,0c0,0.4,0,0.7,0,1c0,2.8,0,5.7,0,8.5c0,1.1-0.5,1.7-1.4,1.8c-0.9,0-1.4-0.6-1.4-1.7
		C36.6,27.5,36.6,24.4,36.6,21.1z"/>
	<path d="M49.4,45c-2.3,0-4.6,0-6.8,0c-1.1,0-1.7-0.5-1.7-1.4c0-0.9,0.6-1.4,1.7-1.4c4.6,0,9.2,0,13.8,0c1.1,0,1.7,0.5,1.7,1.4
		c0,0.9-0.6,1.4-1.7,1.4C54,45,51.7,45,49.4,45z"/>
	<path d="M22.8,61.6c-0.3,1-0.5,1.9-0.8,2.7c-0.1,0.2-0.6,0.3-0.9,0.3c-1,0-1.2-0.5-1.4-2.6c-1.2-1-2.3-1.6-3.1-2.6
		c-0.6-0.8-0.9-2-1.1-3.1c-0.2-0.9,0.5-1.5,1.3-1.6c0.8-0.1,1.4,0.5,1.5,1.5c0.2,1.5,1.2,2.6,2.6,2.7c1.4,0.1,2.6-0.8,2.9-2.1
		c0.5-1.8-0.9-3.4-2.8-3.5c-2.6-0.1-4.8-1.8-5.4-4.2c-0.7-2.8,0.7-5.5,3.3-6.6c0.2-0.1,0.4-0.2,0.6-0.2c0.2-1.2-0.5-2.9,1.5-2.9
		c1.9,0,1.2,1.8,1.3,2.5c1.2,1,2.4,1.7,3.1,2.6c0.6,0.8,0.9,2,1.1,3.1c0.2,0.9-0.5,1.6-1.3,1.6c-0.8,0-1.3-0.5-1.4-1.5
		c-0.2-1.5-1.2-2.6-2.6-2.7c-1.4-0.1-2.6,0.8-2.9,2.1c-0.5,1.8,0.8,3.4,2.8,3.5c2.6,0.1,4.8,1.8,5.4,4.2c0.7,2.8-0.7,5.5-3.3,6.6
		C23,61.5,22.8,61.6,22.8,61.6z"/>
</g>
</svg>
