<svg x="0px" y="0px"
	 viewBox="0 0 28 28" xml:space="preserve">
<style type="text/css">
	.st0{display:none;}
	.st1{display:inline;}
</style>
<g class="st0">
	<path class="st1" d="M25.5,9.4c-1.3,0-2.6,0-3.9,0h-0.3V5.2c0-1.3-1.1-2.4-2.3-2.4c-3.4,0-6.8,0-10.1,0c-2.1,0-4.2,0-6.3,0
		c-0.6,0-1.1,0.2-1.6,0.6C0.5,3.9,0.3,4.4,0.2,4.9v10.5c0,0,0,0.1,0,0.1c0.3,1.2,1.2,1.9,2.5,1.9c0.9,0,1.7,0,2.6,0
		c0.2,0,0.3,0.1,0.5,0.2c1.3,1.3,2.6,2.6,4,4c0.1,0.1,0.1,0.1,0.2,0.2v-4.4h1.6v0.7c0,1.5,1,2.5,2.5,2.5h5.6v4.4c0,0,0,0,0.1,0
		c0-0.1,0.1-0.2,0.2-0.2c1.3-1.3,2.6-2.7,3.9-4c0.2-0.2,0.3-0.2,0.5-0.2c0.4,0,0.8,0,1.1,0c1.2,0,2.3-1.1,2.3-2.3c0-2.2,0-4.5,0-6.7
		C27.8,10.5,26.8,9.4,25.5,9.4z M8.3,15.8v2.1c-0.1-0.1-0.2-0.1-0.2-0.2C7.6,17.2,7,16.6,6.4,16c-0.1-0.1-0.3-0.2-0.4-0.2
		c-1.1,0-2.2,0-3.2,0c-0.6,0-1-0.3-1-1V5.5c0-0.6,0.3-1,1-1h16c0.6,0,1,0.3,1,0.9v9.5c0,0.6-0.3,0.9-1,0.9H8.3z M26.2,18.1
		c0,0.6-0.3,0.9-0.9,0.9c-0.5,0-1.1,0-1.6,0c-0.2,0-0.4,0.1-0.5,0.2c-0.6,0.6-1.2,1.2-1.9,1.8v-2h-7.1c-0.7,0-1-0.3-1-1v-0.6h5.6
		c1.5,0,2.5-1,2.5-2.5V11c0.1,0,0.2,0,0.3,0h3.7c0.6,0,0.9,0.3,0.9,1V18.1z"/>
</g>
<path class="st0" d="M9.3,7.2c0.4,0.4,0.8,0.8,1.2,1.2c-0.6,0.6-1.2,1.2-1.8,1.8c0.6,0.6,1.2,1.2,1.8,1.8c-0.4,0.4-0.8,0.8-1.2,1.2
	c-0.6-0.6-1.2-1.2-1.8-1.8c-0.6,0.6-1.2,1.2-1.8,1.8c-0.4-0.4-0.8-0.8-1.1-1.1c0.6-0.6,1.2-1.2,1.8-1.8C5.7,9.6,5.1,9,4.5,8.4
	C4.9,8,5.3,7.6,5.7,7.2C6.3,7.8,6.9,8.4,7.5,9C8.1,8.4,8.7,7.8,9.3,7.2z"/>
<g class="st0">
	<g class="st1">
		<path d="M3.2,6.9L3.2,6.9c0-0.4,0.2-0.8,0.5-0.8h5.8c0.3,0,0.5,0.4,0.5,0.8v0c0,0.4-0.2,0.8-0.5,0.8H3.7C3.4,7.7,3.2,7.4,3.2,6.9z
			"/>
	</g>
	<g class="st1">
		<path d="M3.2,10.2L3.2,10.2c0-0.4,0.2-0.8,0.5-0.8h5.8c0.3,0,0.5,0.4,0.5,0.8v0c0,0.4-0.2,0.8-0.5,0.8H3.7
			C3.4,11,3.2,10.6,3.2,10.2z"/>
	</g>
	<g class="st1">
		<path d="M10,13.4L10,13.4c0,0.4-0.2,0.8-0.5,0.8H3.7c-0.3,0-0.5-0.4-0.5-0.8v0c0-0.4,0.2-0.8,0.5-0.8h5.8C9.7,12.6,10,13,10,13.4z
			"/>
	</g>
</g>
<g class="st0">
	<g class="st1">
		<path d="M18.7,7.2v0.9c0,0.7-0.5,1.2-1.2,1.2c-0.2,0-0.5,0-0.8,0h-0.2c-0.2,0-0.3-0.1-0.4-0.2C16.1,9.1,16,8.9,16,8.8
			c0-0.3,0.2-0.5,0.6-0.5h0.3c-0.5-0.5-1-0.9-1.7-1c-0.9-0.2-1.7,0-2.4,0.5c-0.7,0.5-1.1,1.2-1.2,2c-0.1,0.8,0.1,1.6,0.6,2.2
			c0.5,0.6,1.1,1,1.9,1.1c0.1,0,0.3,0,0.4,0h0.2c0.1,0,0.2,0,0.2,0c0.3,0.1,0.4,0.3,0.4,0.6c0,0.3-0.2,0.5-0.5,0.5l-0.6,0l-0.2,0
			c-0.1,0-0.2,0-0.3,0c-1-0.2-1.8-0.7-2.5-1.5c-0.4-0.5-0.7-1.1-0.8-1.8c0-0.1,0-0.2,0-0.3l0-0.1V9.9l0-0.2c0-0.1,0-0.2,0-0.3
			c0.1-0.7,0.4-1.2,0.8-1.8c0.6-0.8,1.5-1.3,2.5-1.5c1.2-0.2,2.3,0,3.3,0.8c0.2,0.1,0.3,0.3,0.5,0.4V7.2c0-0.3,0.2-0.5,0.5-0.5
			S18.7,6.9,18.7,7.2z"/>
	</g>
	<g class="st1">
		<path d="M18.6,11c0,0.1,0,0.2-0.1,0.4c-0.1,0.2-0.3,0.4-0.5,0.4c0,0,0,0,0,0c-0.2,0-0.3-0.1-0.4-0.2c-0.1-0.1-0.1-0.3-0.1-0.5
			c0-0.1,0.1-0.3,0.1-0.4c0.1-0.3,0.4-0.4,0.7-0.3C18.5,10.4,18.7,10.7,18.6,11z"/>
	</g>
	<g class="st1">
		<path d="M16.7,13.7c-0.1,0.1-0.2,0.1-0.3,0.2c-0.1,0-0.1,0-0.2,0l-0.1,0c-0.2,0-0.5-0.2-0.5-0.4c-0.1-0.2,0-0.5,0.2-0.6
			c0.1-0.1,0.2-0.1,0.4-0.2c0.3-0.1,0.6,0,0.7,0.3S16.9,13.5,16.7,13.7z"/>
	</g>
	<g class="st1">
		<path d="M17.9,12.5c-0.1,0.1-0.2,0.2-0.3,0.3C17.6,13,17.4,13,17.3,13c-0.1,0-0.3,0-0.4-0.1c-0.2-0.2-0.3-0.5-0.1-0.7
			c0.1-0.1,0.2-0.2,0.2-0.3c0.1-0.1,0.2-0.2,0.4-0.2c0.2,0,0.4,0.1,0.5,0.3C18.1,12.2,18,12.4,17.9,12.5z"/>
	</g>
</g>
<g>
	<path d="M23.6,15c-0.6-0.1-1.3-0.2-1.9-0.4c0.5-3.1-0.2-5.8-2.2-8.1c-1.6-1.9-3.8-3-6.3-3.4C8.3,2.5,3.7,5.8,2.6,10.6
		c-1.3,5.5,2.4,11,7.8,11.9c-0.1,0.6-0.2,1.3-0.3,1.9c-3.5-0.5-7.6-3.3-9.1-8.1c-1.5-4.9,0.3-10.1,4.5-13C9.4,0.4,15,0.4,19,3.4
		C23.2,6.4,24.4,11.4,23.6,15z"/>
	<path d="M18.9,26.9c-1.6-1.6-3.2-3.2-4.8-4.8c0.4-0.4,0.9-0.9,1.4-1.4c1.1,1.1,2.3,2.3,3.5,3.5c2.5-2.5,4.9-4.9,7.4-7.4
		c0.5,0.5,0.9,0.9,1.4,1.4C24.8,21,21.8,24,18.9,26.9z"/>
	<path d="M10.1,14.4c1.8-1.9,3.7-3.7,5.4-5.4c0.5,0.5,0.9,0.9,1.3,1.3c-2.2,2.2-4.5,4.5-6.7,6.7c-1.3-1.3-2.6-2.6-3.8-3.8
		c0.4-0.4,0.8-0.8,1.3-1.3C8.4,12.7,9.3,13.6,10.1,14.4z"/>
</g>
</svg>
