<svg x="0px" y="0px"
	 viewBox="0 0 28 28" xml:space="preserve">
<style type="text/css">
	.st0{display:none;}
</style>
<path d="M0.2,4.9c0.1-0.5,0.3-1,0.8-1.4c0.4-0.4,1-0.7,1.6-0.7c2.1,0,4.2,0,6.3,0c3.4,0,6.7,0,10.1,0c1.3,0,2.3,1.1,2.3,2.4
	c0,1.3,0,2.5,0,3.8c0,0.1,0,0.2,0,0.3c0.1,0,0.2,0,0.3,0c1.3,0,2.6,0,3.9,0c1.2,0,2.3,1.1,2.3,2.3c0,2.2,0,4.4,0,6.7
	c0,1.2-1.1,2.3-2.3,2.3c-0.4,0-0.8,0-1.1,0c-0.2,0-0.4,0.1-0.5,0.2c-1.3,1.3-2.6,2.7-3.9,4c-0.1,0.1-0.1,0.1-0.2,0.2c0,0,0,0-0.1,0
	c0-1.4,0-2.9,0-4.4c-0.1,0-0.2,0-0.3,0c-1.8,0-3.5,0-5.3,0c-1.5,0-2.5-1-2.5-2.5c0-0.2,0-0.4,0-0.7c-0.5,0-1.1,0-1.6,0
	c0,1.4,0,2.9,0,4.4c-0.1-0.1-0.2-0.2-0.3-0.2c-1.3-1.3-2.6-2.6-3.9-4c-0.1-0.1-0.3-0.2-0.5-0.2c-0.9,0-1.7,0-2.6,0
	c-1.2,0-2.2-0.7-2.5-2c0,0,0-0.1,0-0.1C0.2,11.9,0.2,8.4,0.2,4.9z M8.3,15.8c0.1,0,0.2,0,0.3,0c3.3,0,6.7,0,10,0c0.6,0,1-0.3,1-0.9
	c0-3.1,0-6.3,0-9.4c0-0.6-0.3-0.9-0.9-0.9c-5.3,0-10.7,0-16,0c-0.6,0-0.9,0.3-0.9,0.9c0,3.1,0,6.3,0,9.4c0,0.6,0.3,1,1,1
	c1.1,0,2.2,0,3.2,0c0.1,0,0.3,0.1,0.4,0.2c0.6,0.6,1.2,1.1,1.7,1.7c0.1,0.1,0.1,0.1,0.2,0.2C8.3,17.2,8.3,16.5,8.3,15.8z M21.3,21.1
	c0.6-0.6,1.3-1.2,1.9-1.8c0.2-0.2,0.3-0.2,0.5-0.2c0.5,0,1.1,0,1.6,0c0.6,0,0.9-0.3,0.9-0.9c0-2.1,0-4.1,0-6.2
	c0-0.6-0.3-0.9-0.9-0.9c-1.2,0-2.5,0-3.7,0c-0.1,0-0.2,0-0.3,0c0,0.1,0,0.2,0,0.3c0,1.2,0,2.4,0,3.6c0,1.5-1,2.5-2.5,2.5
	c-1.8,0-3.5,0-5.3,0c-0.1,0-0.2,0-0.3,0c0,0.2,0,0.4,0,0.6c0,0.7,0.3,1,1,1c2.2,0,4.5,0,6.7,0c0.1,0,0.2,0,0.3,0
	C21.3,19.8,21.3,20.4,21.3,21.1z"/>
<path class="st0" d="M9.3,7.2c0.4,0.4,0.8,0.8,1.2,1.2c-0.6,0.6-1.2,1.2-1.8,1.8c0.6,0.6,1.2,1.2,1.8,1.8c-0.4,0.4-0.8,0.8-1.2,1.2
	c-0.6-0.6-1.2-1.2-1.8-1.8c-0.6,0.6-1.2,1.2-1.8,1.8c-0.4-0.4-0.8-0.8-1.1-1.1c0.6-0.6,1.2-1.2,1.8-1.8C5.7,9.6,5.1,9,4.5,8.4
	C4.9,8,5.3,7.6,5.7,7.2C6.3,7.8,6.9,8.4,7.5,9C8.1,8.4,8.7,7.8,9.3,7.2z"/>
<path d="M5.2,6.9L5.2,6.9c0-0.4,0.4-0.8,0.8-0.8h9.2c0.4,0,0.8,0.4,0.8,0.8v0c0,0.4-0.4,0.8-0.8,0.8H6C5.5,7.7,5.2,7.4,5.2,6.9z"/>
<path d="M5.2,10.2L5.2,10.2c0-0.4,0.4-0.8,0.8-0.8h9.3c0.4,0,0.8,0.4,0.8,0.8v0c0,0.4-0.4,0.8-0.8,0.8H6C5.5,11,5.2,10.6,5.2,10.2z"
	/>
<path d="M16,13.4L16,13.4c0,0.4-0.4,0.8-0.8,0.8H6c-0.4,0-0.8-0.4-0.8-0.8v0c0-0.4,0.4-0.8,0.8-0.8h9.3C15.7,12.6,16,13,16,13.4z"/>
</svg>
